<svg xmlns="http://www.w3.org/2000/svg" width="692" height="340" viewBox="0 0 692 340">
<rect width="100%" height="100%" fill="#ffffff"/>
<text x="346.0" y="24.0" font-family="Arial, sans-serif" font-size="15" font-weight="700" text-anchor="middle" fill="#1f2937">Ablation: JCT & Comm Gain vs random_same</text>
<rect x="140" y="278" width="36" height="2" fill="#64748b" rx="2"/>
<text x="158.0" y="272.0" font-family="Arial, sans-serif" font-size="9" font-weight="600" text-anchor="middle" fill="#64748b">+0.0%</text>
<rect x="180" y="278" width="36" height="2" fill="#64748b" opacity="0.45" rx="2"/>
<text x="198.0" y="272.0" font-family="Arial, sans-serif" font-size="9" font-weight="400" text-anchor="middle" fill="#64748b">+0.0%</text>
<text
x="176.0"
y="296.0"
font-family="Arial,
sans-serif"
font-size="9"
font-weight="400"
text-anchor="middle"
fill="#4b5563">random
same</text>
<rect x="224" y="278" width="36" height="2" fill="#0ea5e9" rx="2"/>
<text x="242.0" y="272.0" font-family="Arial, sans-serif" font-size="9" font-weight="600" text-anchor="middle" fill="#0ea5e9">+0.2%</text>
<rect x="264" y="278" width="36" height="2" fill="#0ea5e9" opacity="0.45" rx="2"/>
<text x="282.0" y="272.0" font-family="Arial, sans-serif" font-size="9" font-weight="400" text-anchor="middle" fill="#0ea5e9">+0.3%</text>
<text
x="260.0"
y="296.0"
font-family="Arial,
sans-serif"
font-size="9"
font-weight="400"
text-anchor="middle"
fill="#4b5563">random
intensity</text>
<rect x="308" y="183" width="36" height="97" fill="#8b5cf6" rx="2"/>
<text x="326.0" y="177.1" font-family="Arial, sans-serif" font-size="9" font-weight="600" text-anchor="middle" fill="#8b5cf6">+15.1%</text>
<rect x="348" y="87" width="36" height="193" fill="#8b5cf6" opacity="0.45" rx="2"/>
<text x="366.0" y="80.7" font-family="Arial, sans-serif" font-size="9" font-weight="400" text-anchor="middle" fill="#8b5cf6">+30.1%</text>
<text
x="344.0"
y="296.0"
font-family="Arial,
sans-serif"
font-size="9"
font-weight="400"
text-anchor="middle"
fill="#4b5563">place
only</text>
<rect x="392" y="278" width="36" height="2" fill="#f59e0b" rx="2"/>
<text x="410.0" y="272.0" font-family="Arial, sans-serif" font-size="9" font-weight="600" text-anchor="middle" fill="#f59e0b">+0.2%</text>
<rect x="432" y="278" width="36" height="2" fill="#f59e0b" opacity="0.45" rx="2"/>
<text x="450.0" y="272.0" font-family="Arial, sans-serif" font-size="9" font-weight="400" text-anchor="middle" fill="#f59e0b">+0.2%</text>
<text
x="428.0"
y="296.0"
font-family="Arial,
sans-serif"
font-size="9"
font-weight="400"
text-anchor="middle"
fill="#4b5563">priority
only</text>
<rect x="476" y="183" width="36" height="97" fill="#22c55e" rx="2"/>
<text x="494.0" y="177.1" font-family="Arial, sans-serif" font-size="9" font-weight="600" text-anchor="middle" fill="#22c55e">+15.1%</text>
<rect x="516" y="87" width="36" height="193" fill="#22c55e" opacity="0.45" rx="2"/>
<text x="534.0" y="80.7" font-family="Arial, sans-serif" font-size="9" font-weight="400" text-anchor="middle" fill="#22c55e">+30.1%</text>
<text
x="512.0"
y="296.0"
font-family="Arial,
sans-serif"
font-size="9"
font-weight="400"
text-anchor="middle"
fill="#4b5563">crux
no
compress</text>
<rect x="560" y="184" width="36" height="96" fill="#ef4444" rx="2"/>
<text x="578.0" y="178.3" font-family="Arial, sans-serif" font-size="9" font-weight="600" text-anchor="middle" fill="#ef4444">+14.9%</text>
<rect x="600" y="90" width="36" height="190" fill="#ef4444" opacity="0.45" rx="2"/>
<text x="618.0" y="84.1" font-family="Arial, sans-serif" font-size="9" font-weight="400" text-anchor="middle" fill="#ef4444">+29.5%</text>
<text
x="596.0"
y="296.0"
font-family="Arial,
sans-serif"
font-size="9"
font-weight="400"
text-anchor="middle"
fill="#4b5563">crux</text>
<line x1="140" y1="280" x2="632" y2="280" stroke="#334155" stroke-width="1.5"/>
<text x="12.0" y="170.0" font-family="Arial, sans-serif" font-size="11" font-weight="400" text-anchor="start" fill="#6b7280">Gain %</text>
<rect x="140" y="314" width="14" height="10" fill="#22c55e" rx="2"/>
<text x="158.0" y="322.0" font-family="Arial, sans-serif" font-size="10" font-weight="400" text-anchor="start" fill="#1f2937">JCT gain</text>
<rect x="230" y="314" width="14" height="10" fill="#22c55e" opacity="0.45" rx="2"/>
<text x="248.0" y="322.0" font-family="Arial, sans-serif" font-size="10" font-weight="400" text-anchor="start" fill="#1f2937">Comm gain</text>
</svg>