<svg xmlns="http://www.w3.org/2000/svg" width="900" height="654" viewBox="0 0 900 654">
<rect width="100%" height="100%" fill="#ffffff"/>
<text x="450.0" y="22.0" font-family="Arial, sans-serif" font-size="16" font-weight="700" text-anchor="middle" fill="#1f2937">JCT Breakdown: crux_no_compress vs random_same</text>
<text x="465.0" y="38.0" font-family="Arial, sans-serif" font-size="10" font-weight="400" text-anchor="end" fill="#64748b">← baseline better</text>
<text x="485.0" y="38.0" font-family="Arial, sans-serif" font-size="10" font-weight="400" text-anchor="start" fill="#22c55e">target better →</text>
<text x="12.0" y="62.0" font-family="Arial, sans-serif" font-size="9" font-weight="400" text-anchor="start" fill="#1f2937">job 11 unknown-8gpu</text>
<rect x="456.2" y="48.0" width="18.8" height="22" fill="#3b82f6" opacity="0.7" rx="2"/>
<rect x="435.0" y="48.0" width="21.3" height="22" fill="#f59e0b" opacity="0.7" rx="2"/>
<rect x="475.0" y="72.0" width="14.7" height="22" fill="#3b82f6" opacity="0.85" rx="2"/>
<rect x="489.7" y="72.0" width="13.9" height="22" fill="#f59e0b" opacity="0.85" rx="2"/>
<text x="509.6" y="86.0" font-family="Arial, sans-serif" font-size="9" font-weight="700" text-anchor="start" fill="#22c55e">+4.4s</text>
<text x="12.0" y="110.0" font-family="Arial, sans-serif" font-size="9" font-weight="400" text-anchor="start" fill="#1f2937">job 5 unknown-smal</text>
<rect x="418.5" y="96.0" width="56.5" height="22" fill="#3b82f6" opacity="0.7" rx="2"/>
<rect x="416.2" y="96.0" width="2.4" height="22" fill="#f59e0b" opacity="0.7" rx="2"/>
<rect x="475.0" y="120.0" width="56.5" height="22" fill="#3b82f6" opacity="0.85" rx="2"/>
<rect x="531.5" y="120.0" width="1.4" height="22" fill="#f59e0b" opacity="0.85" rx="2"/>
<text x="539.0" y="134.0" font-family="Arial, sans-serif" font-size="9" font-weight="700" text-anchor="start" fill="#22c55e">+0.3s</text>
<text x="12.0" y="158.0" font-family="Arial, sans-serif" font-size="9" font-weight="400" text-anchor="start" fill="#1f2937">job 8 unknown-8gpu</text>
<rect x="452.4" y="144.0" width="22.6" height="22" fill="#3b82f6" opacity="0.7" rx="2"/>
<rect x="401.8" y="144.0" width="50.6" height="22" fill="#f59e0b" opacity="0.7" rx="2"/>
<rect x="475.0" y="168.0" width="39.2" height="22" fill="#3b82f6" opacity="0.85" rx="2"/>
<rect x="514.2" y="168.0" width="37.8" height="22" fill="#f59e0b" opacity="0.85" rx="2"/>
<text x="558.0" y="182.0" font-family="Arial, sans-serif" font-size="9" font-weight="700" text-anchor="start" fill="#ef4444">-1.4s</text>
<text x="12.0" y="206.0" font-family="Arial, sans-serif" font-size="9" font-weight="400" text-anchor="start" fill="#1f2937">job 3 unknown-8gpu</text>
<rect x="445.7" y="192.0" width="29.3" height="22" fill="#3b82f6" opacity="0.7" rx="2"/>
<rect x="381.3" y="192.0" width="64.4" height="22" fill="#f59e0b" opacity="0.7" rx="2"/>
<rect x="475.0" y="216.0" width="43.2" height="22" fill="#3b82f6" opacity="0.85" rx="2"/>
<rect x="518.2" y="216.0" width="33.9" height="22" fill="#f59e0b" opacity="0.85" rx="2"/>
<text x="558.1" y="230.0" font-family="Arial, sans-serif" font-size="9" font-weight="700" text-anchor="start" fill="#22c55e">+6.3s</text>
<text x="12.0" y="254.0" font-family="Arial, sans-serif" font-size="9" font-weight="400" text-anchor="start" fill="#1f2937">job 6 GPT</text>
<rect x="442.5" y="240.0" width="32.5" height="22" fill="#3b82f6" opacity="0.7" rx="2"/>
<rect x="359.0" y="240.0" width="83.5" height="22" fill="#f59e0b" opacity="0.7" rx="2"/>
<rect x="475.0" y="264.0" width="25.4" height="22" fill="#3b82f6" opacity="0.85" rx="2"/>
<rect x="500.4" y="264.0" width="58.2" height="22" fill="#f59e0b" opacity="0.85" rx="2"/>
<text x="564.6" y="278.0" font-family="Arial, sans-serif" font-size="9" font-weight="700" text-anchor="start" fill="#22c55e">+12.4s</text>
<text x="12.0" y="302.0" font-family="Arial, sans-serif" font-size="9" font-weight="400" text-anchor="start" fill="#1f2937">job 7 GPT</text>
<rect x="449.4" y="288.0" width="25.6" height="22" fill="#3b82f6" opacity="0.7" rx="2"/>
<rect x="356.7" y="288.0" width="92.7" height="22" fill="#f59e0b" opacity="0.7" rx="2"/>
<rect x="475.0" y="312.0" width="28.2" height="22" fill="#3b82f6" opacity="0.85" rx="2"/>
<rect x="503.2" y="312.0" width="56.2" height="22" fill="#f59e0b" opacity="0.85" rx="2"/>
<text x="565.4" y="326.0" font-family="Arial, sans-serif" font-size="9" font-weight="700" text-anchor="start" fill="#22c55e">+12.9s</text>
<text x="12.0" y="350.0" font-family="Arial, sans-serif" font-size="9" font-weight="400" text-anchor="start" fill="#1f2937">job 9 unknown-mid</text>
<rect x="418.8" y="336.0" width="56.2" height="22" fill="#3b82f6" opacity="0.7" rx="2"/>
<rect x="331.9" y="336.0" width="86.9" height="22" fill="#f59e0b" opacity="0.7" rx="2"/>
<rect x="475.0" y="360.0" width="43.0" height="22" fill="#3b82f6" opacity="0.85" rx="2"/>
<rect x="518.0" y="360.0" width="69.5" height="22" fill="#f59e0b" opacity="0.85" rx="2"/>
<text x="593.5" y="374.0" font-family="Arial, sans-serif" font-size="9" font-weight="700" text-anchor="start" fill="#22c55e">+11.7s</text>
<text x="12.0" y="398.0" font-family="Arial, sans-serif" font-size="9" font-weight="400" text-anchor="start" fill="#1f2937">job 0 unknown-mid</text>
<rect x="420.5" y="384.0" width="54.5" height="22" fill="#3b82f6" opacity="0.7" rx="2"/>
<rect x="349.2" y="384.0" width="71.3" height="22" fill="#f59e0b" opacity="0.7" rx="2"/>
<rect x="475.0" y="408.0" width="70.8" height="22" fill="#3b82f6" opacity="0.85" rx="2"/>
<rect x="545.8" y="408.0" width="58.2" height="22" fill="#f59e0b" opacity="0.85" rx="2"/>
<text x="610.0" y="422.0" font-family="Arial, sans-serif" font-size="9" font-weight="700" text-anchor="start" fill="#ef4444">-1.2s</text>
<text x="12.0" y="446.0" font-family="Arial, sans-serif" font-size="9" font-weight="400" text-anchor="start" fill="#1f2937">job 10 unknown-larg</text>
<rect x="377.9" y="432.0" width="97.1" height="22" fill="#3b82f6" opacity="0.7" rx="2"/>
<rect x="312.7" y="432.0" width="65.3" height="22" fill="#f59e0b" opacity="0.7" rx="2"/>
<rect x="475.0" y="456.0" width="80.7" height="22" fill="#3b82f6" opacity="0.85" rx="2"/>
<rect x="555.7" y="456.0" width="68.9" height="22" fill="#f59e0b" opacity="0.85" rx="2"/>
<text x="630.6" y="470.0" font-family="Arial, sans-serif" font-size="9" font-weight="700" text-anchor="start" fill="#22c55e">+4.9s</text>
<text x="12.0" y="494.0" font-family="Arial, sans-serif" font-size="9" font-weight="400" text-anchor="start" fill="#1f2937">job 4 GPT-large</text>
<rect x="387.6" y="480.0" width="87.4" height="22" fill="#3b82f6" opacity="0.7" rx="2"/>
<rect x="226.8" y="480.0" width="160.8" height="22" fill="#f59e0b" opacity="0.7" rx="2"/>
<rect x="475.0" y="504.0" width="102.5" height="22" fill="#3b82f6" opacity="0.85" rx="2"/>
<rect x="577.5" y="504.0" width="84.4" height="22" fill="#f59e0b" opacity="0.85" rx="2"/>
<text x="667.8" y="518.0" font-family="Arial, sans-serif" font-size="9" font-weight="700" text-anchor="start" fill="#22c55e">+23.4s</text>
<text x="12.0" y="542.0" font-family="Arial, sans-serif" font-size="9" font-weight="400" text-anchor="start" fill="#1f2937">job 2 unknown-larg</text>
<rect x="386.5" y="528.0" width="88.5" height="22" fill="#3b82f6" opacity="0.7" rx="2"/>
<rect x="225.0" y="528.0" width="161.5" height="22" fill="#f59e0b" opacity="0.7" rx="2"/>
<rect x="475.0" y="552.0" width="104.4" height="22" fill="#3b82f6" opacity="0.85" rx="2"/>
<rect x="579.4" y="552.0" width="106.6" height="22" fill="#f59e0b" opacity="0.85" rx="2"/>
<text x="692.0" y="566.0" font-family="Arial, sans-serif" font-size="9" font-weight="700" text-anchor="start" fill="#22c55e">+14.9s</text>
<text x="12.0" y="590.0" font-family="Arial, sans-serif" font-size="9" font-weight="400" text-anchor="start" fill="#1f2937">job 1 unknown-larg</text>
<rect x="373.0" y="576.0" width="102.0" height="22" fill="#3b82f6" opacity="0.7" rx="2"/>
<rect x="237.8" y="576.0" width="135.3" height="22" fill="#f59e0b" opacity="0.7" rx="2"/>
<rect x="475.0" y="600.0" width="110.6" height="22" fill="#3b82f6" opacity="0.85" rx="2"/>
<rect x="585.6" y="600.0" width="107.6" height="22" fill="#f59e0b" opacity="0.85" rx="2"/>
<text x="699.2" y="614.0" font-family="Arial, sans-serif" font-size="9" font-weight="700" text-anchor="start" fill="#22c55e">+7.3s</text>
<rect x="200" y="626" width="14" height="10" fill="#3b82f6" opacity="0.8" rx="2"/>
<text x="218.0" y="634.0" font-family="Arial, sans-serif" font-size="10" font-weight="400" text-anchor="start" fill="#1f2937">compute</text>
<rect x="280" y="626" width="14" height="10" fill="#f59e0b" opacity="0.8" rx="2"/>
<text x="298.0" y="634.0" font-family="Arial, sans-serif" font-size="10" font-weight="400" text-anchor="start" fill="#1f2937">comm</text>
<rect x="360" y="626" width="14" height="10" fill="#ef4444" opacity="0.8" rx="2"/>
<text x="378.0" y="634.0" font-family="Arial, sans-serif" font-size="10" font-weight="400" text-anchor="start" fill="#1f2937">wait</text>
</svg>