<svg xmlns="http://www.w3.org/2000/svg" width="900" height="460" viewBox="0 0 900 460">
<rect width="100%" height="100%" fill="#ffffff"/>
<text x="450.0" y="28.0" font-family="Arial, sans-serif" font-size="18" font-weight="700" text-anchor="middle" fill="#1f2937">Aggregation Path Count</text>
<line x1="78" y1="378" x2="870" y2="378" stroke="#334155"/>
<line x1="78" y1="54" x2="78" y2="378" stroke="#334155"/>
<text x="18.0" y="230.0" font-family="Arial, sans-serif" font-size="12" font-weight="400" text-anchor="middle" fill="#1f2937">GPU util gain</text>
<line x1="78" y1="378.0" x2="870" y2="378.0" stroke="#e5e7eb"/>
<text x="68.0" y="382.0" font-family="Arial, sans-serif" font-size="11" font-weight="400" text-anchor="end" fill="#1f2937">0%</text>
<line x1="78" y1="313.2" x2="870" y2="313.2" stroke="#e5e7eb"/>
<text x="68.0" y="317.2" font-family="Arial, sans-serif" font-size="11" font-weight="400" text-anchor="end" fill="#1f2937">3%</text>
<line x1="78" y1="248.4" x2="870" y2="248.4" stroke="#e5e7eb"/>
<text x="68.0" y="252.4" font-family="Arial, sans-serif" font-size="11" font-weight="400" text-anchor="end" fill="#1f2937">7%</text>
<line x1="78" y1="183.6" x2="870" y2="183.6" stroke="#e5e7eb"/>
<text x="68.0" y="187.6" font-family="Arial, sans-serif" font-size="11" font-weight="400" text-anchor="end" fill="#1f2937">10%</text>
<line x1="78" y1="118.8" x2="870" y2="118.8" stroke="#e5e7eb"/>
<text x="68.0" y="122.8" font-family="Arial, sans-serif" font-size="11" font-weight="400" text-anchor="end" fill="#1f2937">13%</text>
<line x1="78" y1="54.0" x2="870" y2="54.0" stroke="#e5e7eb"/>
<text x="68.0" y="58.0" font-family="Arial, sans-serif" font-size="11" font-weight="400" text-anchor="end" fill="#1f2937">17%</text>
<text x="210.0" y="418.0" font-family="Arial, sans-serif" font-size="11" font-weight="400" text-anchor="middle" fill="#1f2937">2</text>
<rect x="165.0" y="306.5" width="27.0" height="71.5" rx="3" fill="#0ea5e9"/>
<text x="178.5" y="302.5" font-family="Arial, sans-serif" font-size="9" font-weight="400" text-anchor="middle" fill="#1f2937">3.7</text>
<rect x="195.0" y="107.0" width="27.0" height="271.0" rx="3" fill="#ef4444"/>
<text x="208.5" y="103.0" font-family="Arial, sans-serif" font-size="9" font-weight="400" text-anchor="middle" fill="#1f2937">14.1</text>
<rect x="225.0" y="103.4" width="27.0" height="274.6" rx="3" fill="#22c55e"/>
<text x="238.5" y="99.4" font-family="Arial, sans-serif" font-size="9" font-weight="400" text-anchor="middle" fill="#1f2937">14.2</text>
<text x="474.0" y="418.0" font-family="Arial, sans-serif" font-size="11" font-weight="400" text-anchor="middle" fill="#1f2937">4</text>
<rect x="429.0" y="315.9" width="27.0" height="62.1" rx="3" fill="#0ea5e9"/>
<text x="442.5" y="311.9" font-family="Arial, sans-serif" font-size="9" font-weight="400" text-anchor="middle" fill="#1f2937">3.2</text>
<rect x="459.0" y="137.5" width="27.0" height="240.5" rx="3" fill="#ef4444"/>
<text x="472.5" y="133.5" font-family="Arial, sans-serif" font-size="9" font-weight="400" text-anchor="middle" fill="#1f2937">12.5</text>
<rect x="489.0" y="134.5" width="27.0" height="243.5" rx="3" fill="#22c55e"/>
<text x="502.5" y="130.5" font-family="Arial, sans-serif" font-size="9" font-weight="400" text-anchor="middle" fill="#1f2937">12.6</text>
<text x="738.0" y="418.0" font-family="Arial, sans-serif" font-size="11" font-weight="400" text-anchor="middle" fill="#1f2937">8</text>
<rect x="693.0" y="316.3" width="27.0" height="61.7" rx="3" fill="#0ea5e9"/>
<text x="706.5" y="312.3" font-family="Arial, sans-serif" font-size="9" font-weight="400" text-anchor="middle" fill="#1f2937">3.2</text>
<rect x="723.0" y="173.9" width="27.0" height="204.1" rx="3" fill="#ef4444"/>
<text x="736.5" y="169.9" font-family="Arial, sans-serif" font-size="9" font-weight="400" text-anchor="middle" fill="#1f2937">10.6</text>
<rect x="753.0" y="171.9" width="27.0" height="206.1" rx="3" fill="#22c55e"/>
<text x="766.5" y="167.9" font-family="Arial, sans-serif" font-size="9" font-weight="400" text-anchor="middle" fill="#1f2937">10.7</text>
<rect x="88" y="56" width="14" height="14" rx="2" fill="#0ea5e9"/>
<text x="108.0" y="68.0" font-family="Arial, sans-serif" font-size="12" font-weight="400" text-anchor="start" fill="#1f2937">priority-only</text>
<rect x="273" y="56" width="14" height="14" rx="2" fill="#ef4444"/>
<text x="293.0" y="68.0" font-family="Arial, sans-serif" font-size="12" font-weight="400" text-anchor="start" fill="#1f2937">crux</text>
<rect x="458" y="56" width="14" height="14" rx="2" fill="#22c55e"/>
<text x="478.0" y="68.0" font-family="Arial, sans-serif" font-size="12" font-weight="400" text-anchor="start" fill="#1f2937">crux no compress</text>
</svg>