<svg xmlns="http://www.w3.org/2000/svg" width="900" height="460" viewBox="0 0 900 460">
<rect width="100%" height="100%" fill="#ffffff"/>
<text x="450.0" y="28.0" font-family="Arial, sans-serif" font-size="18" font-weight="700" text-anchor="middle" fill="#1f2937">Scale Pressure</text>
<line x1="78" y1="378" x2="870" y2="378" stroke="#334155"/>
<line x1="78" y1="54" x2="78" y2="378" stroke="#334155"/>
<text x="18.0" y="230.0" font-family="Arial, sans-serif" font-size="12" font-weight="400" text-anchor="middle" fill="#1f2937">GPU util gain</text>
<line x1="78" y1="378.0" x2="870" y2="378.0" stroke="#e5e7eb"/>
<text x="68.0" y="382.0" font-family="Arial, sans-serif" font-size="11" font-weight="400" text-anchor="end" fill="#1f2937">0%</text>
<line x1="78" y1="313.2" x2="870" y2="313.2" stroke="#e5e7eb"/>
<text x="68.0" y="317.2" font-family="Arial, sans-serif" font-size="11" font-weight="400" text-anchor="end" fill="#1f2937">4%</text>
<line x1="78" y1="248.4" x2="870" y2="248.4" stroke="#e5e7eb"/>
<text x="68.0" y="252.4" font-family="Arial, sans-serif" font-size="11" font-weight="400" text-anchor="end" fill="#1f2937">8%</text>
<line x1="78" y1="183.6" x2="870" y2="183.6" stroke="#e5e7eb"/>
<text x="68.0" y="187.6" font-family="Arial, sans-serif" font-size="11" font-weight="400" text-anchor="end" fill="#1f2937">11%</text>
<line x1="78" y1="118.8" x2="870" y2="118.8" stroke="#e5e7eb"/>
<text x="68.0" y="122.8" font-family="Arial, sans-serif" font-size="11" font-weight="400" text-anchor="end" fill="#1f2937">15%</text>
<line x1="78" y1="54.0" x2="870" y2="54.0" stroke="#e5e7eb"/>
<text x="68.0" y="58.0" font-family="Arial, sans-serif" font-size="11" font-weight="400" text-anchor="end" fill="#1f2937">19%</text>
<text x="177.0" y="418.0" font-family="Arial, sans-serif" font-size="11" font-weight="400" text-anchor="middle" fill="#1f2937">small</text>
<rect x="132.0" y="312.4" width="27.0" height="65.6" rx="3" fill="#0ea5e9"/>
<text x="145.5" y="308.4" font-family="Arial, sans-serif" font-size="9" font-weight="400" text-anchor="middle" fill="#1f2937">3.8</text>
<rect x="162.0" y="207.1" width="27.0" height="170.9" rx="3" fill="#ef4444"/>
<text x="175.5" y="203.1" font-family="Arial, sans-serif" font-size="9" font-weight="400" text-anchor="middle" fill="#1f2937">10.0</text>
<rect x="192.0" y="206.8" width="27.0" height="171.2" rx="3" fill="#22c55e"/>
<text x="205.5" y="202.8" font-family="Arial, sans-serif" font-size="9" font-weight="400" text-anchor="middle" fill="#1f2937">10.0</text>
<text x="375.0" y="418.0" font-family="Arial, sans-serif" font-size="11" font-weight="400" text-anchor="middle" fill="#1f2937">medium</text>
<rect x="330.0" y="323.0" width="27.0" height="55.0" rx="3" fill="#0ea5e9"/>
<text x="343.5" y="319.0" font-family="Arial, sans-serif" font-size="9" font-weight="400" text-anchor="middle" fill="#1f2937">3.2</text>
<rect x="360.0" y="164.9" width="27.0" height="213.1" rx="3" fill="#ef4444"/>
<text x="373.5" y="160.9" font-family="Arial, sans-serif" font-size="9" font-weight="400" text-anchor="middle" fill="#1f2937">12.5</text>
<rect x="390.0" y="162.2" width="27.0" height="215.8" rx="3" fill="#22c55e"/>
<text x="403.5" y="158.2" font-family="Arial, sans-serif" font-size="9" font-weight="400" text-anchor="middle" fill="#1f2937">12.6</text>
<text x="573.0" y="418.0" font-family="Arial, sans-serif" font-size="11" font-weight="400" text-anchor="middle" fill="#1f2937">large</text>
<rect x="528.0" y="311.5" width="27.0" height="66.5" rx="3" fill="#0ea5e9"/>
<text x="541.5" y="307.5" font-family="Arial, sans-serif" font-size="9" font-weight="400" text-anchor="middle" fill="#1f2937">3.9</text>
<rect x="558.0" y="154.2" width="27.0" height="223.8" rx="3" fill="#ef4444"/>
<text x="571.5" y="150.2" font-family="Arial, sans-serif" font-size="9" font-weight="400" text-anchor="middle" fill="#1f2937">13.1</text>
<rect x="588.0" y="132.1" width="27.0" height="245.9" rx="3" fill="#22c55e"/>
<text x="601.5" y="128.1" font-family="Arial, sans-serif" font-size="9" font-weight="400" text-anchor="middle" fill="#1f2937">14.4</text>
<text x="771.0" y="418.0" font-family="Arial, sans-serif" font-size="11" font-weight="400" text-anchor="middle" fill="#1f2937">xl</text>
<rect x="726.0" y="315.9" width="27.0" height="62.1" rx="3" fill="#0ea5e9"/>
<text x="739.5" y="311.9" font-family="Arial, sans-serif" font-size="9" font-weight="400" text-anchor="middle" fill="#1f2937">3.6</text>
<rect x="756.0" y="131.1" width="27.0" height="246.9" rx="3" fill="#ef4444"/>
<text x="769.5" y="127.1" font-family="Arial, sans-serif" font-size="9" font-weight="400" text-anchor="middle" fill="#1f2937">14.4</text>
<rect x="786.0" y="103.4" width="27.0" height="274.6" rx="3" fill="#22c55e"/>
<text x="799.5" y="99.4" font-family="Arial, sans-serif" font-size="9" font-weight="400" text-anchor="middle" fill="#1f2937">16.1</text>
<rect x="88" y="56" width="14" height="14" rx="2" fill="#0ea5e9"/>
<text x="108.0" y="68.0" font-family="Arial, sans-serif" font-size="12" font-weight="400" text-anchor="start" fill="#1f2937">priority-only</text>
<rect x="273" y="56" width="14" height="14" rx="2" fill="#ef4444"/>
<text x="293.0" y="68.0" font-family="Arial, sans-serif" font-size="12" font-weight="400" text-anchor="start" fill="#1f2937">crux</text>
<rect x="458" y="56" width="14" height="14" rx="2" fill="#22c55e"/>
<text x="478.0" y="68.0" font-family="Arial, sans-serif" font-size="12" font-weight="400" text-anchor="start" fill="#1f2937">crux no compress</text>
</svg>