<svg xmlns="http://www.w3.org/2000/svg" width="900" height="440" viewBox="0 0 900 440">
<rect width="100%" height="100%" fill="#ffffff"/>
<text x="450.0" y="28.0" font-family="Arial, sans-serif" font-size="18" font-weight="700" text-anchor="middle" fill="#1f2937">Multi-Seed Stability</text>
<line x1="78" y1="368" x2="870" y2="368" stroke="#334155"/>
<line x1="78" y1="54" x2="78" y2="368" stroke="#334155"/>
<text x="18.0" y="220.0" font-family="Arial, sans-serif" font-size="12" font-weight="400" text-anchor="middle" fill="#1f2937">GPU util gain</text>
<line x1="78" y1="368.0" x2="870" y2="368.0" stroke="#e5e7eb"/>
<text x="68.0" y="372.0" font-family="Arial, sans-serif" font-size="11" font-weight="400" text-anchor="end" fill="#1f2937">0%</text>
<line x1="78" y1="305.2" x2="870" y2="305.2" stroke="#e5e7eb"/>
<text x="68.0" y="309.2" font-family="Arial, sans-serif" font-size="11" font-weight="400" text-anchor="end" fill="#1f2937">3%</text>
<line x1="78" y1="242.4" x2="870" y2="242.4" stroke="#e5e7eb"/>
<text x="68.0" y="246.4" font-family="Arial, sans-serif" font-size="11" font-weight="400" text-anchor="end" fill="#1f2937">6%</text>
<line x1="78" y1="179.6" x2="870" y2="179.6" stroke="#e5e7eb"/>
<text x="68.0" y="183.6" font-family="Arial, sans-serif" font-size="11" font-weight="400" text-anchor="end" fill="#1f2937">9%</text>
<line x1="78" y1="116.8" x2="870" y2="116.8" stroke="#e5e7eb"/>
<text x="68.0" y="120.8" font-family="Arial, sans-serif" font-size="11" font-weight="400" text-anchor="end" fill="#1f2937">12%</text>
<line x1="78" y1="54.0" x2="870" y2="54.0" stroke="#e5e7eb"/>
<text x="68.0" y="58.0" font-family="Arial, sans-serif" font-size="11" font-weight="400" text-anchor="end" fill="#1f2937">15%</text>
<text x="78.0" y="404.0" font-family="Arial, sans-serif" font-size="11" font-weight="400" text-anchor="middle" fill="#1f2937">7</text>
<text x="342.0" y="404.0" font-family="Arial, sans-serif" font-size="11" font-weight="400" text-anchor="middle" fill="#1f2937">42</text>
<text x="606.0" y="404.0" font-family="Arial, sans-serif" font-size="11" font-weight="400" text-anchor="middle" fill="#1f2937">100</text>
<text x="870.0" y="404.0" font-family="Arial, sans-serif" font-size="11" font-weight="400" text-anchor="middle" fill="#1f2937">2024</text>
<polyline points="78.0,300.1 342.0,308.8 606.0,297.6 870.0,298.7" fill="none" stroke="#0ea5e9" stroke-width="2.5"/>
<circle cx="78.0" cy="300.1" r="4" fill="#0ea5e9"/>
<text x="78.0" y="292.1" font-family="Arial, sans-serif" font-size="10" font-weight="400" text-anchor="middle" fill="#1f2937">3.2</text>
<circle cx="342.0" cy="308.8" r="4" fill="#0ea5e9"/>
<text x="342.0" y="300.8" font-family="Arial, sans-serif" font-size="10" font-weight="400" text-anchor="middle" fill="#1f2937">2.8</text>
<circle cx="606.0" cy="297.6" r="4" fill="#0ea5e9"/>
<text x="606.0" y="289.6" font-family="Arial, sans-serif" font-size="10" font-weight="400" text-anchor="middle" fill="#1f2937">3.3</text>
<circle cx="870.0" cy="298.7" r="4" fill="#0ea5e9"/>
<text x="870.0" y="290.7" font-family="Arial, sans-serif" font-size="10" font-weight="400" text-anchor="middle" fill="#1f2937">3.3</text>
<polyline points="78.0,105.2 342.0,120.2 606.0,137.2 870.0,162.4" fill="none" stroke="#ef4444" stroke-width="2.5"/>
<circle cx="78.0" cy="105.2" r="4" fill="#ef4444"/>
<text x="78.0" y="97.2" font-family="Arial, sans-serif" font-size="10" font-weight="400" text-anchor="middle" fill="#1f2937">12.5</text>
<circle cx="342.0" cy="120.2" r="4" fill="#ef4444"/>
<text x="342.0" y="112.2" font-family="Arial, sans-serif" font-size="10" font-weight="400" text-anchor="middle" fill="#1f2937">11.8</text>
<circle cx="606.0" cy="137.2" r="4" fill="#ef4444"/>
<text x="606.0" y="129.2" font-family="Arial, sans-serif" font-size="10" font-weight="400" text-anchor="middle" fill="#1f2937">11.0</text>
<circle cx="870.0" cy="162.4" r="4" fill="#ef4444"/>
<text x="870.0" y="154.4" font-family="Arial, sans-serif" font-size="10" font-weight="400" text-anchor="middle" fill="#1f2937">9.8</text>
<polyline points="78.0,101.9 342.0,118.7 606.0,135.0 870.0,159.7" fill="none" stroke="#22c55e" stroke-width="2.5"/>
<circle cx="78.0" cy="101.9" r="4" fill="#22c55e"/>
<text x="78.0" y="93.9" font-family="Arial, sans-serif" font-size="10" font-weight="400" text-anchor="middle" fill="#1f2937">12.6</text>
<circle cx="342.0" cy="118.7" r="4" fill="#22c55e"/>
<text x="342.0" y="110.7" font-family="Arial, sans-serif" font-size="10" font-weight="400" text-anchor="middle" fill="#1f2937">11.8</text>
<circle cx="606.0" cy="135.0" r="4" fill="#22c55e"/>
<text x="606.0" y="127.0" font-family="Arial, sans-serif" font-size="10" font-weight="400" text-anchor="middle" fill="#1f2937">11.1</text>
<circle cx="870.0" cy="159.7" r="4" fill="#22c55e"/>
<text x="870.0" y="151.7" font-family="Arial, sans-serif" font-size="10" font-weight="400" text-anchor="middle" fill="#1f2937">9.9</text>
<line x1="88" y1="62" x2="106" y2="62" stroke="#0ea5e9" stroke-width="3"/>
<text x="114.0" y="66.0" font-family="Arial, sans-serif" font-size="12" font-weight="400" text-anchor="start" fill="#1f2937">priority-only</text>
<line x1="273" y1="62" x2="291" y2="62" stroke="#ef4444" stroke-width="3"/>
<text x="299.0" y="66.0" font-family="Arial, sans-serif" font-size="12" font-weight="400" text-anchor="start" fill="#1f2937">crux</text>
<line x1="458" y1="62" x2="476" y2="62" stroke="#22c55e" stroke-width="3"/>
<text x="484.0" y="66.0" font-family="Arial, sans-serif" font-size="12" font-weight="400" text-anchor="start" fill="#1f2937">crux no compress</text>
</svg>