<svg xmlns="http://www.w3.org/2000/svg" width="760" height="420" viewBox="0 0 760 420">
<rect width="100%" height="100%" fill="#ffffff"/>
<text x="380.0" y="24.0" font-family="Arial, sans-serif" font-size="18" font-weight="700" text-anchor="middle" fill="#1f2937">Job JCT CDF</text>
<line x1="70" y1="362" x2="736" y2="362" stroke="#334155"/>
<line x1="70" y1="36" x2="70" y2="362" stroke="#334155"/>
<line x1="70.0" y1="36" x2="70.0" y2="362" stroke="#e5e7eb"/>
<text x="70.0" y="392.0" font-family="Arial, sans-serif" font-size="11" font-weight="400" text-anchor="middle" fill="#1f2937">0s</text>
<line x1="203.2" y1="36" x2="203.2" y2="362" stroke="#e5e7eb"/>
<text x="203.2" y="392.0" font-family="Arial, sans-serif" font-size="11" font-weight="400" text-anchor="middle" fill="#1f2937">21s</text>
<line x1="336.4" y1="36" x2="336.4" y2="362" stroke="#e5e7eb"/>
<text x="336.4" y="392.0" font-family="Arial, sans-serif" font-size="11" font-weight="400" text-anchor="middle" fill="#1f2937">41s</text>
<line x1="469.6" y1="36" x2="469.6" y2="362" stroke="#e5e7eb"/>
<text x="469.6" y="392.0" font-family="Arial, sans-serif" font-size="11" font-weight="400" text-anchor="middle" fill="#1f2937">62s</text>
<line x1="602.8" y1="36" x2="602.8" y2="362" stroke="#e5e7eb"/>
<text x="602.8" y="392.0" font-family="Arial, sans-serif" font-size="11" font-weight="400" text-anchor="middle" fill="#1f2937">82s</text>
<line x1="736.0" y1="36" x2="736.0" y2="362" stroke="#e5e7eb"/>
<text x="736.0" y="392.0" font-family="Arial, sans-serif" font-size="11" font-weight="400" text-anchor="middle" fill="#1f2937">103s</text>
<line x1="70" y1="362.0" x2="736" y2="362.0" stroke="#e5e7eb"/>
<text x="44.0" y="366.0" font-family="Arial, sans-serif" font-size="11" font-weight="400" text-anchor="end" fill="#1f2937">0.0</text>
<line x1="70" y1="296.8" x2="736" y2="296.8" stroke="#e5e7eb"/>
<text x="44.0" y="300.8" font-family="Arial, sans-serif" font-size="11" font-weight="400" text-anchor="end" fill="#1f2937">0.2</text>
<line x1="70" y1="231.6" x2="736" y2="231.6" stroke="#e5e7eb"/>
<text x="44.0" y="235.6" font-family="Arial, sans-serif" font-size="11" font-weight="400" text-anchor="end" fill="#1f2937">0.4</text>
<line x1="70" y1="166.4" x2="736" y2="166.4" stroke="#e5e7eb"/>
<text x="44.0" y="170.4" font-family="Arial, sans-serif" font-size="11" font-weight="400" text-anchor="end" fill="#1f2937">0.6</text>
<line x1="70" y1="101.2" x2="736" y2="101.2" stroke="#e5e7eb"/>
<text x="44.0" y="105.2" font-family="Arial, sans-serif" font-size="11" font-weight="400" text-anchor="end" fill="#1f2937">0.8</text>
<line x1="70" y1="36.0" x2="736" y2="36.0" stroke="#e5e7eb"/>
<text x="44.0" y="40.0" font-family="Arial, sans-serif" font-size="11" font-weight="400" text-anchor="end" fill="#1f2937">1.0</text>
<text x="380.0" y="412.0" font-family="Arial, sans-serif" font-size="12" font-weight="400" text-anchor="middle" fill="#1f2937">JCT seconds</text>
<text x="18.0" y="210.0" font-family="Arial, sans-serif" font-size="12" font-weight="400" text-anchor="middle" fill="#1f2937">CDF</text>
<polyline points="168.7,334.8 215.1,307.7 250.5,280.5 301.1,253.3 356.3,226.2 361.8,199.0 380.3,171.8 422.9,144.7 470.4,117.5 655.2,90.3 682.3,63.2 686.7,36.0" fill="none" stroke="#64748b" stroke-width="2.5"/>
<line x1="82" y1="54" x2="106" y2="54" stroke="#64748b" stroke-width="3"/>
<text x="114.0" y="58.0" font-family="Arial, sans-serif" font-size="12" font-weight="400" text-anchor="start" fill="#1f2937">random_same</text>
<polyline points="169.0,334.8 215.0,307.7 251.5,280.5 299.3,253.3 356.1,226.2 362.5,199.0 381.6,171.8 423.0,144.7 470.2,117.5 651.8,90.3 678.4,63.2 684.7,36.0" fill="none" stroke="#0ea5e9" stroke-width="2.5"/>
<line x1="82" y1="74" x2="106" y2="74" stroke="#0ea5e9" stroke-width="3"/>
<text x="114.0" y="78.0" font-family="Arial, sans-serif" font-size="12" font-weight="400" text-anchor="start" fill="#1f2937">random_intensity</text>
<polyline points="140.5,334.8 213.0,307.7 259.9,280.5 260.1,253.3 276.2,226.2 278.1,199.0 347.5,171.8 388.1,144.7 439.0,117.5 530.9,90.3 590.4,63.2 608.2,36.0" fill="none" stroke="#111827" stroke-width="2.5"/>
<line x1="82" y1="94" x2="106" y2="94" stroke="#111827" stroke-width="3"/>
<text x="114.0" y="98.0" font-family="Arial, sans-serif" font-size="12" font-weight="400" text-anchor="start" fill="#1f2937">place_only</text>
<polyline points="169.1,334.8 214.9,307.7 251.5,280.5 298.9,253.3 356.2,226.2 362.8,199.0 380.5,171.8 423.1,144.7 470.4,117.5 652.3,90.3 679.1,63.2 684.9,36.0" fill="none" stroke="#111827" stroke-width="2.5"/>
<line x1="82" y1="114" x2="106" y2="114" stroke="#111827" stroke-width="3"/>
<text x="114.0" y="118.0" font-family="Arial, sans-serif" font-size="12" font-weight="400" text-anchor="start" fill="#1f2937">priority_only</text>
<polyline points="140.5,334.8 213.0,307.7 259.9,280.5 260.1,253.3 276.2,226.2 278.1,199.0 347.5,171.8 388.1,144.7 439.0,117.5 530.9,90.3 590.4,63.2 608.2,36.0" fill="none" stroke="#22c55e" stroke-width="2.5"/>
<line x1="82" y1="134" x2="106" y2="134" stroke="#22c55e" stroke-width="3"/>
<text x="114.0" y="138.0" font-family="Arial, sans-serif" font-size="12" font-weight="400" text-anchor="start" fill="#1f2937">crux_no_compress</text>
<polyline points="142.1,334.8 213.1,307.7 254.2,280.5 259.9,253.3 273.7,226.2 276.9,199.0 343.5,171.8 406.8,144.7 420.3,117.5 533.3,90.3 602.6,63.2 613.4,36.0" fill="none" stroke="#ef4444" stroke-width="2.5"/>
<line x1="82" y1="154" x2="106" y2="154" stroke="#ef4444" stroke-width="3"/>
<text x="114.0" y="158.0" font-family="Arial, sans-serif" font-size="12" font-weight="400" text-anchor="start" fill="#1f2937">crux</text>
</svg>