<?xml version="1.0" encoding="utf-8" standalone="no"?>
<!DOCTYPE svg PUBLIC "-//W3C//DTD SVG 1.1//EN"
  "http://www.w3.org/Graphics/SVG/1.1/DTD/svg11.dtd">
<svg xmlns:xlink="http://www.w3.org/1999/xlink" width="712.922066pt" height="281.1225pt" viewBox="0 0 712.922066 281.1225" xmlns="http://www.w3.org/2000/svg" version="1.1">
 <metadata>
  <rdf:RDF xmlns:dc="http://purl.org/dc/elements/1.1/" xmlns:cc="http://creativecommons.org/ns#" xmlns:rdf="http://www.w3.org/1999/02/22-rdf-syntax-ns#">
   <cc:Work>
    <dc:type rdf:resource="http://purl.org/dc/dcmitype/StillImage"/>
    <dc:date>2026-05-15T12:42:19.868540</dc:date>
    <dc:format>image/svg+xml</dc:format>
    <dc:creator>
     <cc:Agent>
      <dc:title>Matplotlib v3.9.4, https://matplotlib.org/</dc:title>
     </cc:Agent>
    </dc:creator>
   </cc:Work>
  </rdf:RDF>
 </metadata>
 <defs>
  <style type="text/css">*{stroke-linejoin: round; stroke-linecap: butt}</style>
 </defs>
 <g id="figure_1">
  <g id="patch_1">
   <path d="M 0 281.1225 
L 712.922066 281.1225 
L 712.922066 0 
L 0 0 
z
" style="fill: #ffffff"/>
  </g>
  <g id="axes_1">
   <g id="patch_2">
    <path d="M 48.204375 245.2525 
L 705.722066 245.2525 
L 705.722066 23.26875 
L 48.204375 23.26875 
z
" style="fill: #ffffff"/>
   </g>
   <g id="matplotlib.axis_1">
    <g id="xtick_1">
     <g id="line2d_1">
      <defs>
       <path id="m6cdd1013ce" d="M 0 0 
L 0 3.5 
" style="stroke: #000000; stroke-width: 0.8"/>
      </defs>
      <g>
       <use xlink:href="#m6cdd1013ce" x="349.793068" y="245.2525" style="stroke: #000000; stroke-width: 0.8"/>
      </g>
     </g>
     <g id="text_1">
      <!-- 5 -->
      <g transform="translate(347.576818 258.62) scale(0.08 -0.08)">
       <defs>
        <path id="STHeiti-35" d="M 3149 4979 
L 3149 4544 
L 1510 4544 
L 1280 3290 
Q 1587 3379 1856 3379 
Q 2458 3379 2861 2953 
Q 3264 2528 3264 1862 
Q 3264 1197 2825 733 
Q 2387 269 1664 269 
Q 1114 269 726 598 
Q 339 928 262 1498 
L 730 1498 
Q 813 1114 1075 909 
Q 1338 704 1683 704 
Q 2138 704 2467 1043 
Q 2797 1382 2797 1888 
Q 2797 2349 2509 2646 
Q 2221 2944 1757 2944 
Q 1293 2944 730 2701 
L 1158 4979 
L 3149 4979 
z
" transform="scale(0.015625)"/>
       </defs>
       <use xlink:href="#STHeiti-35"/>
      </g>
     </g>
    </g>
    <g id="xtick_2">
     <g id="line2d_2">
      <g>
       <use xlink:href="#m6cdd1013ce" x="186.772153" y="245.2525" style="stroke: #000000; stroke-width: 0.8"/>
      </g>
     </g>
     <g id="text_2">
      <!-- 2 -->
      <g transform="translate(184.555903 258.62) scale(0.08 -0.08)">
       <defs>
        <path id="STHeiti-32" d="M 742 3539 
L 301 3539 
Q 333 4243 768 4668 
Q 1203 5094 1820 5094 
Q 2438 5094 2844 4694 
Q 3251 4294 3251 3718 
Q 3251 3290 3024 2925 
Q 2797 2560 2336 2061 
L 1190 826 
L 3315 826 
L 3315 384 
L 192 384 
L 1946 2278 
Q 2406 2778 2604 3066 
Q 2803 3354 2803 3725 
Q 2803 4096 2512 4377 
Q 2221 4659 1789 4659 
Q 1357 4659 1072 4368 
Q 787 4077 742 3539 
z
" transform="scale(0.015625)"/>
       </defs>
       <use xlink:href="#STHeiti-32"/>
      </g>
     </g>
    </g>
    <g id="xtick_3">
     <g id="line2d_3">
      <g>
       <use xlink:href="#m6cdd1013ce" x="675.834898" y="245.2525" style="stroke: #000000; stroke-width: 0.8"/>
      </g>
     </g>
     <g id="text_3">
      <!-- 11 -->
      <g transform="translate(671.402398 258.62) scale(0.08 -0.08)">
       <defs>
        <path id="STHeiti-31" d="M 1184 4979 
L 2086 4979 
L 2086 384 
L 1632 384 
L 1632 4531 
L 909 4531 
L 1184 4979 
z
" transform="scale(0.015625)"/>
       </defs>
       <use xlink:href="#STHeiti-31"/>
       <use xlink:href="#STHeiti-31" x="55.399994"/>
      </g>
     </g>
    </g>
    <g id="xtick_4">
     <g id="line2d_4">
      <g>
       <use xlink:href="#m6cdd1013ce" x="512.813983" y="245.2525" style="stroke: #000000; stroke-width: 0.8"/>
      </g>
     </g>
     <g id="text_4">
      <!-- 8 -->
      <g transform="translate(510.597733 258.62) scale(0.08 -0.08)">
       <defs>
        <path id="STHeiti-38" d="M 2458 2906 
Q 3328 2477 3328 1702 
Q 3328 1088 2896 678 
Q 2464 269 1763 269 
Q 1062 269 640 678 
Q 218 1088 218 1664 
Q 218 2470 1107 2906 
Q 435 3264 435 3898 
Q 435 4371 828 4732 
Q 1222 5094 1779 5094 
Q 2336 5094 2726 4742 
Q 3117 4390 3117 3885 
Q 3117 3270 2458 2906 
z
M 2656 3904 
Q 2656 4211 2416 4432 
Q 2176 4653 1789 4653 
Q 1402 4653 1152 4432 
Q 902 4211 902 3897 
Q 902 3584 1174 3337 
Q 1446 3091 1792 3091 
Q 2138 3091 2397 3334 
Q 2656 3578 2656 3904 
z
M 2867 1696 
Q 2867 2086 2550 2380 
Q 2234 2675 1782 2675 
Q 1331 2675 1004 2371 
Q 678 2067 678 1654 
Q 678 1242 979 973 
Q 1280 704 1766 704 
Q 2253 704 2560 992 
Q 2867 1280 2867 1696 
z
" transform="scale(0.015625)"/>
       </defs>
       <use xlink:href="#STHeiti-38"/>
      </g>
     </g>
    </g>
    <g id="xtick_5">
     <g id="line2d_5">
      <g>
       <use xlink:href="#m6cdd1013ce" x="132.431848" y="245.2525" style="stroke: #000000; stroke-width: 0.8"/>
      </g>
     </g>
     <g id="text_5">
      <!-- 1 -->
      <g transform="translate(130.215598 258.62) scale(0.08 -0.08)">
       <use xlink:href="#STHeiti-31"/>
      </g>
     </g>
    </g>
    <g id="xtick_6">
     <g id="line2d_6">
      <g>
       <use xlink:href="#m6cdd1013ce" x="458.473678" y="245.2525" style="stroke: #000000; stroke-width: 0.8"/>
      </g>
     </g>
     <g id="text_6">
      <!-- 7 -->
      <g transform="translate(456.257428 258.62) scale(0.08 -0.08)">
       <defs>
        <path id="STHeiti-37" d="M 461 4979 
L 3373 4979 
L 915 269 
L 538 461 
L 2662 4544 
L 461 4544 
L 461 4979 
z
" transform="scale(0.015625)"/>
       </defs>
       <use xlink:href="#STHeiti-37"/>
      </g>
     </g>
    </g>
    <g id="xtick_7">
     <g id="line2d_7">
      <g>
       <use xlink:href="#m6cdd1013ce" x="78.091543" y="245.2525" style="stroke: #000000; stroke-width: 0.8"/>
      </g>
     </g>
     <g id="text_7">
      <!-- 0 -->
      <g transform="translate(75.875293 258.62) scale(0.08 -0.08)">
       <defs>
        <path id="STHeiti-30" d="M 1747 269 
Q 1005 269 605 880 
Q 205 1491 205 2681 
Q 205 3872 605 4483 
Q 1005 5094 1741 5094 
Q 2477 5094 2909 4470 
Q 3341 3846 3341 2681 
Q 3341 1517 2905 893 
Q 2470 269 1747 269 
z
M 1760 4659 
Q 1229 4659 934 4147 
Q 640 3635 640 2669 
Q 640 685 1760 685 
Q 2304 685 2608 1206 
Q 2912 1728 2912 2681 
Q 2912 3635 2598 4147 
Q 2285 4659 1760 4659 
z
" transform="scale(0.015625)"/>
       </defs>
       <use xlink:href="#STHeiti-30"/>
      </g>
     </g>
    </g>
    <g id="xtick_8">
     <g id="line2d_8">
      <g>
       <use xlink:href="#m6cdd1013ce" x="404.133373" y="245.2525" style="stroke: #000000; stroke-width: 0.8"/>
      </g>
     </g>
     <g id="text_8">
      <!-- 6 -->
      <g transform="translate(401.917123 258.62) scale(0.08 -0.08)">
       <defs>
        <path id="STHeiti-36" d="M 2349 5094 
L 2726 4851 
L 1485 2970 
Q 1747 3059 1984 3059 
Q 2496 3059 2880 2652 
Q 3264 2246 3264 1660 
Q 3264 1075 2845 672 
Q 2426 269 1827 269 
Q 1229 269 829 678 
Q 429 1088 429 1677 
Q 429 1958 537 2256 
Q 646 2554 954 3014 
L 2349 5094 
z
M 2810 1683 
Q 2810 2086 2528 2368 
Q 2246 2650 1843 2650 
Q 1440 2650 1158 2368 
Q 877 2086 877 1683 
Q 877 1280 1161 998 
Q 1446 717 1843 717 
Q 2240 717 2525 998 
Q 2810 1280 2810 1683 
z
" transform="scale(0.015625)"/>
       </defs>
       <use xlink:href="#STHeiti-36"/>
      </g>
     </g>
    </g>
    <g id="xtick_9">
     <g id="line2d_9">
      <g>
       <use xlink:href="#m6cdd1013ce" x="241.112458" y="245.2525" style="stroke: #000000; stroke-width: 0.8"/>
      </g>
     </g>
     <g id="text_9">
      <!-- 3 -->
      <g transform="translate(238.896208 258.62) scale(0.08 -0.08)">
       <defs>
        <path id="STHeiti-33" d="M 845 3917 
L 378 3917 
Q 506 4486 867 4790 
Q 1229 5094 1750 5094 
Q 2272 5094 2659 4748 
Q 3046 4403 3046 3910 
Q 3046 3315 2458 2970 
Q 2861 2803 3081 2473 
Q 3302 2144 3302 1754 
Q 3302 1146 2857 707 
Q 2413 269 1734 269 
Q 1133 269 742 611 
Q 352 954 224 1613 
L 672 1613 
Q 794 1158 1046 937 
Q 1299 717 1760 717 
Q 2221 717 2534 1011 
Q 2848 1306 2848 1741 
Q 2848 2176 2502 2441 
Q 2157 2707 1498 2720 
L 1498 3142 
Q 1971 3142 2268 3360 
Q 2566 3578 2566 3901 
Q 2566 4224 2326 4438 
Q 2086 4653 1747 4653 
Q 1408 4653 1200 4470 
Q 992 4288 845 3917 
z
" transform="scale(0.015625)"/>
       </defs>
       <use xlink:href="#STHeiti-33"/>
      </g>
     </g>
    </g>
    <g id="xtick_10">
     <g id="line2d_10">
      <g>
       <use xlink:href="#m6cdd1013ce" x="567.154288" y="245.2525" style="stroke: #000000; stroke-width: 0.8"/>
      </g>
     </g>
     <g id="text_10">
      <!-- 9 -->
      <g transform="translate(564.938038 258.62) scale(0.08 -0.08)">
       <defs>
        <path id="STHeiti-39" d="M 1229 269 
L 851 512 
L 2093 2394 
Q 1850 2310 1613 2310 
Q 1062 2310 688 2707 
Q 314 3104 314 3696 
Q 314 4288 730 4691 
Q 1146 5094 1750 5094 
Q 2355 5094 2748 4681 
Q 3142 4269 3142 3693 
Q 3142 3373 3011 3049 
Q 2880 2726 2624 2349 
L 1229 269 
z
M 762 3680 
Q 762 3277 1043 2995 
Q 1325 2714 1728 2714 
Q 2131 2714 2412 2998 
Q 2694 3283 2694 3680 
Q 2694 4077 2412 4361 
Q 2131 4646 1728 4646 
Q 1325 4646 1043 4364 
Q 762 4083 762 3680 
z
" transform="scale(0.015625)"/>
       </defs>
       <use xlink:href="#STHeiti-39"/>
      </g>
     </g>
    </g>
    <g id="xtick_11">
     <g id="line2d_11">
      <g>
       <use xlink:href="#m6cdd1013ce" x="621.494593" y="245.2525" style="stroke: #000000; stroke-width: 0.8"/>
      </g>
     </g>
     <g id="text_11">
      <!-- 10 -->
      <g transform="translate(617.062093 258.62) scale(0.08 -0.08)">
       <use xlink:href="#STHeiti-31"/>
       <use xlink:href="#STHeiti-30" x="55.399994"/>
      </g>
     </g>
    </g>
    <g id="xtick_12">
     <g id="line2d_12">
      <g>
       <use xlink:href="#m6cdd1013ce" x="295.452763" y="245.2525" style="stroke: #000000; stroke-width: 0.8"/>
      </g>
     </g>
     <g id="text_12">
      <!-- 4 -->
      <g transform="translate(293.236513 258.62) scale(0.08 -0.08)">
       <defs>
        <path id="STHeiti-34" d="M 2726 5094 
L 2816 5094 
L 2816 1894 
L 3373 1894 
L 3373 1453 
L 2816 1453 
L 2816 384 
L 2362 384 
L 2362 1453 
L 160 1453 
L 2726 5094 
z
M 2362 1894 
L 2362 3808 
L 1005 1894 
L 2362 1894 
z
" transform="scale(0.015625)"/>
       </defs>
       <use xlink:href="#STHeiti-34"/>
      </g>
     </g>
    </g>
    <g id="text_13">
     <!-- Job ID -->
     <g transform="translate(360.248377 272.447812) scale(0.11 -0.11)">
      <defs>
       <path id="STHeiti-4a" d="M 2061 4979 
L 2528 4979 
L 2528 1875 
Q 2528 1254 2432 940 
Q 2336 627 2067 448 
Q 1798 269 1434 269 
Q 845 269 269 755 
L 512 1120 
Q 832 902 1037 803 
Q 1242 704 1430 704 
Q 1619 704 1776 819 
Q 1933 934 1997 1136 
Q 2061 1338 2061 1894 
L 2061 4979 
z
" transform="scale(0.015625)"/>
       <path id="STHeiti-6f" d="M 326 2061 
Q 326 2810 841 3341 
Q 1357 3872 2096 3872 
Q 2835 3872 3350 3341 
Q 3866 2810 3866 2067 
Q 3866 1325 3357 797 
Q 2848 269 2099 269 
Q 1350 269 838 797 
Q 326 1325 326 2061 
z
M 3424 2054 
Q 3424 2618 3030 3030 
Q 2637 3443 2096 3443 
Q 1555 3443 1164 3030 
Q 774 2618 774 2048 
Q 774 1478 1152 1081 
Q 1530 685 2090 685 
Q 2650 685 3037 1085 
Q 3424 1485 3424 2054 
z
" transform="scale(0.015625)"/>
       <path id="STHeiti-62" d="M 518 384 
L 518 5094 
L 947 5094 
L 947 3200 
Q 1504 3872 2310 3872 
Q 3040 3872 3549 3344 
Q 4058 2816 4058 2073 
Q 4058 1331 3539 800 
Q 3021 269 2298 269 
Q 1491 269 947 1011 
L 947 384 
L 518 384 
z
M 922 2106 
Q 922 1510 1312 1100 
Q 1702 691 2265 691 
Q 2829 691 3222 1107 
Q 3616 1523 3616 2083 
Q 3616 2643 3232 3059 
Q 2848 3475 2272 3475 
Q 1696 3475 1309 3084 
Q 922 2694 922 2106 
z
" transform="scale(0.015625)"/>
       <path id="STHeiti-20" transform="scale(0.015625)"/>
       <path id="STHeiti-49" d="M 493 4979 
L 954 4979 
L 954 384 
L 493 384 
L 493 4979 
z
" transform="scale(0.015625)"/>
       <path id="STHeiti-44" d="M 557 384 
L 557 4979 
L 1510 4979 
Q 2490 4979 2947 4835 
Q 3405 4691 3737 4380 
Q 4070 4070 4249 3622 
Q 4429 3174 4429 2576 
Q 4429 1978 4150 1450 
Q 3872 922 3395 653 
Q 2918 384 2022 384 
L 557 384 
z
M 998 819 
L 1530 819 
Q 2362 819 2736 902 
Q 3110 986 3392 1232 
Q 3674 1478 3821 1830 
Q 3968 2182 3968 2636 
Q 3968 3091 3798 3475 
Q 3629 3859 3315 4108 
Q 3002 4358 2576 4444 
Q 2150 4531 1325 4531 
L 998 4531 
L 998 819 
z
" transform="scale(0.015625)"/>
      </defs>
      <use xlink:href="#STHeiti-4a"/>
      <use xlink:href="#STHeiti-6f" x="48.199997"/>
      <use xlink:href="#STHeiti-62" x="113.699982"/>
      <use xlink:href="#STHeiti-20" x="181.899963"/>
      <use xlink:href="#STHeiti-49" x="206.899948"/>
      <use xlink:href="#STHeiti-44" x="229.499939"/>
     </g>
    </g>
   </g>
   <g id="matplotlib.axis_2">
    <g id="ytick_1">
     <g id="line2d_13">
      <path d="M 48.204375 203.82048 
L 705.722066 203.82048 
" clip-path="url(#p42da3042bd)" style="fill: none; stroke: #b0b0b0; stroke-opacity: 0.3; stroke-width: 0.8; stroke-linecap: square"/>
     </g>
     <g id="line2d_14">
      <defs>
       <path id="m1795514875" d="M 0 0 
L -3.5 0 
" style="stroke: #000000; stroke-width: 0.8"/>
      </defs>
      <g>
       <use xlink:href="#m1795514875" x="48.204375" y="203.82048" style="stroke: #000000; stroke-width: 0.8"/>
      </g>
     </g>
     <g id="text_14">
      <!-- $\mathdefault{10^{9}}$ -->
      <g transform="translate(25.804375 208.050167) scale(0.1 -0.1)">
       <use xlink:href="#STHeiti-31" transform="translate(0 0.91875)"/>
       <use xlink:href="#STHeiti-30" transform="translate(55.399994 0.91875)"/>
       <use xlink:href="#STHeiti-39" transform="translate(111.834128 42.284375) scale(0.7)"/>
      </g>
     </g>
    </g>
    <g id="ytick_2">
     <g id="line2d_15">
      <path d="M 48.204375 94.716034 
L 705.722066 94.716034 
" clip-path="url(#p42da3042bd)" style="fill: none; stroke: #b0b0b0; stroke-opacity: 0.3; stroke-width: 0.8; stroke-linecap: square"/>
     </g>
     <g id="line2d_16">
      <g>
       <use xlink:href="#m1795514875" x="48.204375" y="94.716034" style="stroke: #000000; stroke-width: 0.8"/>
      </g>
     </g>
     <g id="text_15">
      <!-- $\mathdefault{10^{10}}$ -->
      <g transform="translate(21.904375 98.945722) scale(0.1 -0.1)">
       <use xlink:href="#STHeiti-31" transform="translate(0 0.91875)"/>
       <use xlink:href="#STHeiti-30" transform="translate(55.399994 0.91875)"/>
       <use xlink:href="#STHeiti-31" transform="translate(111.834128 42.284375) scale(0.7)"/>
       <use xlink:href="#STHeiti-30" transform="translate(150.614124 42.284375) scale(0.7)"/>
      </g>
     </g>
    </g>
    <g id="ytick_3">
     <g id="line2d_17">
      <defs>
       <path id="mc859073a01" d="M 0 0 
L -2 0 
" style="stroke: #000000; stroke-width: 0.6"/>
      </defs>
      <g>
       <use xlink:href="#mc859073a01" x="48.204375" y="236.664191" style="stroke: #000000; stroke-width: 0.6"/>
      </g>
     </g>
    </g>
    <g id="ytick_4">
     <g id="line2d_18">
      <g>
       <use xlink:href="#mc859073a01" x="48.204375" y="228.025165" style="stroke: #000000; stroke-width: 0.6"/>
      </g>
     </g>
    </g>
    <g id="ytick_5">
     <g id="line2d_19">
      <g>
       <use xlink:href="#mc859073a01" x="48.204375" y="220.720972" style="stroke: #000000; stroke-width: 0.6"/>
      </g>
     </g>
    </g>
    <g id="ytick_6">
     <g id="line2d_20">
      <g>
       <use xlink:href="#mc859073a01" x="48.204375" y="214.393793" style="stroke: #000000; stroke-width: 0.6"/>
      </g>
     </g>
    </g>
    <g id="ytick_7">
     <g id="line2d_21">
      <g>
       <use xlink:href="#mc859073a01" x="48.204375" y="208.812826" style="stroke: #000000; stroke-width: 0.6"/>
      </g>
     </g>
    </g>
    <g id="ytick_8">
     <g id="line2d_22">
      <g>
       <use xlink:href="#mc859073a01" x="48.204375" y="170.976769" style="stroke: #000000; stroke-width: 0.6"/>
      </g>
     </g>
    </g>
    <g id="ytick_9">
     <g id="line2d_23">
      <g>
       <use xlink:href="#mc859073a01" x="48.204375" y="151.76443" style="stroke: #000000; stroke-width: 0.6"/>
      </g>
     </g>
    </g>
    <g id="ytick_10">
     <g id="line2d_24">
      <g>
       <use xlink:href="#mc859073a01" x="48.204375" y="138.133058" style="stroke: #000000; stroke-width: 0.6"/>
      </g>
     </g>
    </g>
    <g id="ytick_11">
     <g id="line2d_25">
      <g>
       <use xlink:href="#mc859073a01" x="48.204375" y="127.559745" style="stroke: #000000; stroke-width: 0.6"/>
      </g>
     </g>
    </g>
    <g id="ytick_12">
     <g id="line2d_26">
      <g>
       <use xlink:href="#mc859073a01" x="48.204375" y="118.920719" style="stroke: #000000; stroke-width: 0.6"/>
      </g>
     </g>
    </g>
    <g id="ytick_13">
     <g id="line2d_27">
      <g>
       <use xlink:href="#mc859073a01" x="48.204375" y="111.616527" style="stroke: #000000; stroke-width: 0.6"/>
      </g>
     </g>
    </g>
    <g id="ytick_14">
     <g id="line2d_28">
      <g>
       <use xlink:href="#mc859073a01" x="48.204375" y="105.289348" style="stroke: #000000; stroke-width: 0.6"/>
      </g>
     </g>
    </g>
    <g id="ytick_15">
     <g id="line2d_29">
      <g>
       <use xlink:href="#mc859073a01" x="48.204375" y="99.70838" style="stroke: #000000; stroke-width: 0.6"/>
      </g>
     </g>
    </g>
    <g id="ytick_16">
     <g id="line2d_30">
      <g>
       <use xlink:href="#mc859073a01" x="48.204375" y="61.872323" style="stroke: #000000; stroke-width: 0.6"/>
      </g>
     </g>
    </g>
    <g id="ytick_17">
     <g id="line2d_31">
      <g>
       <use xlink:href="#mc859073a01" x="48.204375" y="42.659984" style="stroke: #000000; stroke-width: 0.6"/>
      </g>
     </g>
    </g>
    <g id="ytick_18">
     <g id="line2d_32">
      <g>
       <use xlink:href="#mc859073a01" x="48.204375" y="29.028613" style="stroke: #000000; stroke-width: 0.6"/>
      </g>
     </g>
    </g>
    <g id="text_16">
     <!-- Intensity (log scale) -->
     <g transform="translate(16.429688 185.036797) rotate(-90) scale(0.11 -0.11)">
      <defs>
       <path id="STHeiti-6e" d="M 486 3782 
L 928 3782 
L 928 3174 
Q 1453 3872 2202 3872 
Q 2586 3872 2893 3664 
Q 3200 3456 3328 3120 
Q 3456 2784 3456 2131 
L 3456 384 
L 3021 384 
L 3021 2003 
Q 3021 2598 2966 2809 
Q 2912 3021 2800 3168 
Q 2688 3315 2515 3392 
Q 2342 3469 2096 3469 
Q 1850 3469 1613 3347 
Q 1376 3226 1209 3008 
Q 1043 2790 985 2560 
Q 928 2330 928 1632 
L 928 384 
L 486 384 
L 486 3782 
z
" transform="scale(0.015625)"/>
       <path id="STHeiti-74" d="M 1312 922 
Q 1312 749 1357 717 
Q 1402 685 1587 685 
L 1850 685 
L 1850 314 
Q 1581 269 1427 269 
Q 1139 269 1004 409 
Q 870 550 870 851 
L 870 3411 
L 269 3411 
L 269 3782 
L 870 3782 
L 870 5094 
L 1312 5094 
L 1312 3782 
L 2003 3782 
L 2003 3411 
L 1312 3411 
L 1312 922 
z
" transform="scale(0.015625)"/>
       <path id="STHeiti-65" d="M 3347 1485 
L 3718 1293 
Q 3168 269 2093 269 
Q 1325 269 825 797 
Q 326 1325 326 2067 
Q 326 2810 828 3341 
Q 1331 3872 2070 3872 
Q 2810 3872 3312 3379 
Q 3814 2886 3834 2035 
L 774 2035 
Q 794 1421 1162 1046 
Q 1530 672 2054 672 
Q 2918 672 3347 1485 
z
M 3347 2413 
Q 3258 2899 2899 3174 
Q 2541 3450 2074 3450 
Q 1114 3450 819 2413 
L 3347 2413 
z
" transform="scale(0.015625)"/>
       <path id="STHeiti-73" d="M 2195 3411 
L 1914 3123 
Q 1562 3462 1229 3462 
Q 1011 3462 864 3324 
Q 717 3187 717 2985 
Q 717 2784 873 2640 
Q 1030 2496 1414 2294 
Q 1798 2093 2000 1859 
Q 2202 1626 2202 1286 
Q 2202 858 1904 563 
Q 1606 269 1171 269 
Q 883 269 617 397 
Q 352 525 166 755 
L 442 1062 
Q 781 685 1152 685 
Q 1414 685 1600 857 
Q 1786 1030 1786 1264 
Q 1786 1498 1622 1648 
Q 1459 1798 1078 1990 
Q 698 2182 509 2409 
Q 320 2637 320 2998 
Q 320 3360 585 3616 
Q 851 3872 1289 3872 
Q 1728 3872 2195 3411 
z
" transform="scale(0.015625)"/>
       <path id="STHeiti-69" d="M 282 4730 
Q 282 4877 387 4985 
Q 493 5094 643 5094 
Q 794 5094 899 4988 
Q 1005 4883 1005 4732 
Q 1005 4582 899 4476 
Q 794 4371 643 4371 
Q 493 4371 387 4480 
Q 282 4589 282 4730 
z
M 422 3782 
L 864 3782 
L 864 384 
L 422 384 
L 422 3782 
z
" transform="scale(0.015625)"/>
       <path id="STHeiti-79" d="M 122 3782 
L 582 3782 
L 1754 1165 
L 2886 3782 
L 3354 3782 
L 1325 -858 
L 864 -858 
L 1517 640 
L 122 3782 
z
" transform="scale(0.015625)"/>
       <path id="STHeiti-28" d="M 1466 5370 
L 1978 5370 
Q 1651 4704 1475 3865 
Q 1299 3027 1299 2176 
Q 1299 506 1824 -762 
L 1338 -762 
Q 832 480 832 2118 
Q 832 3891 1466 5370 
z
" transform="scale(0.015625)"/>
       <path id="STHeiti-6c" d="M 422 5094 
L 858 5094 
L 858 384 
L 422 384 
L 422 5094 
z
" transform="scale(0.015625)"/>
       <path id="STHeiti-67" d="M 3462 3782 
L 3904 3782 
L 3904 1158 
Q 3904 461 3782 134 
Q 3661 -192 3430 -409 
Q 3200 -627 2873 -742 
Q 2547 -858 2157 -858 
Q 826 -858 403 205 
L 877 205 
Q 1248 -461 2138 -461 
Q 2566 -461 2883 -294 
Q 3200 -128 3331 131 
Q 3462 390 3462 941 
L 3462 1088 
Q 3200 762 2841 602 
Q 2483 442 2086 442 
Q 1344 442 851 947 
Q 358 1453 358 2138 
Q 358 2848 883 3360 
Q 1408 3872 2153 3872 
Q 2899 3872 3462 3194 
L 3462 3782 
z
M 3482 2138 
Q 3482 2694 3104 3072 
Q 2726 3450 2170 3450 
Q 1581 3450 1190 3043 
Q 800 2637 800 2112 
Q 800 1587 1177 1219 
Q 1555 851 2144 851 
Q 2733 851 3107 1209 
Q 3482 1568 3482 2138 
z
" transform="scale(0.015625)"/>
       <path id="STHeiti-63" d="M 4038 3078 
L 3693 2861 
Q 3245 3456 2464 3456 
Q 1850 3456 1434 3062 
Q 1018 2669 1018 2086 
Q 1018 1504 1427 1088 
Q 1837 672 2464 672 
Q 3213 672 3693 1267 
L 4038 1037 
Q 3782 666 3350 467 
Q 2918 269 2419 269 
Q 1632 269 1104 787 
Q 576 1306 576 2054 
Q 576 2803 1110 3337 
Q 1645 3872 2483 3872 
Q 2976 3872 3395 3661 
Q 3814 3450 4038 3078 
z
" transform="scale(0.015625)"/>
       <path id="STHeiti-61" d="M 3872 3782 
L 3872 384 
L 3443 384 
L 3443 966 
Q 2861 269 2112 269 
Q 1363 269 848 803 
Q 333 1338 333 2077 
Q 333 2816 851 3344 
Q 1370 3872 2093 3872 
Q 2925 3872 3443 3162 
L 3443 3782 
L 3872 3782 
z
M 3469 2067 
Q 3469 2650 3078 3050 
Q 2688 3450 2121 3450 
Q 1555 3450 1164 3037 
Q 774 2624 774 2061 
Q 774 1498 1171 1085 
Q 1568 672 2121 672 
Q 2675 672 3072 1069 
Q 3469 1466 3469 2067 
z
" transform="scale(0.015625)"/>
       <path id="STHeiti-29" d="M 896 5370 
Q 1530 3891 1530 2118 
Q 1530 480 1024 -762 
L 538 -762 
Q 1062 506 1062 2176 
Q 1062 3027 886 3865 
Q 710 4704 384 5370 
L 896 5370 
z
" transform="scale(0.015625)"/>
      </defs>
      <use xlink:href="#STHeiti-49"/>
      <use xlink:href="#STHeiti-6e" x="22.599991"/>
      <use xlink:href="#STHeiti-74" x="83.599976"/>
      <use xlink:href="#STHeiti-65" x="117.499969"/>
      <use xlink:href="#STHeiti-6e" x="182.499954"/>
      <use xlink:href="#STHeiti-73" x="243.499939"/>
      <use xlink:href="#STHeiti-69" x="282.299927"/>
      <use xlink:href="#STHeiti-74" x="302.299911"/>
      <use xlink:href="#STHeiti-79" x="336.199905"/>
      <use xlink:href="#STHeiti-20" x="389.799896"/>
      <use xlink:href="#STHeiti-28" x="414.799881"/>
      <use xlink:href="#STHeiti-6c" x="451.699875"/>
      <use xlink:href="#STHeiti-6f" x="471.69986"/>
      <use xlink:href="#STHeiti-67" x="537.199844"/>
      <use xlink:href="#STHeiti-20" x="604.499832"/>
      <use xlink:href="#STHeiti-73" x="629.499817"/>
      <use xlink:href="#STHeiti-63" x="668.299805"/>
      <use xlink:href="#STHeiti-61" x="732.999802"/>
      <use xlink:href="#STHeiti-6c" x="801.299789"/>
      <use xlink:href="#STHeiti-65" x="821.299774"/>
      <use xlink:href="#STHeiti-29" x="886.299759"/>
     </g>
    </g>
   </g>
   <g id="line2d_33">
    <path d="M 48.204375 47.444935 
L 705.722066 47.444935 
" clip-path="url(#p42da3042bd)" style="fill: none; stroke-dasharray: 4.44,1.92; stroke-dashoffset: 0; stroke: #cc3311; stroke-width: 1.2"/>
   </g>
   <g id="patch_3">
    <path d="M 48.204375 245.2525 
L 48.204375 23.26875 
" style="fill: none; stroke: #000000; stroke-width: 0.8; stroke-linejoin: miter; stroke-linecap: square"/>
   </g>
   <g id="patch_4">
    <path d="M 705.722066 245.2525 
L 705.722066 23.26875 
" style="fill: none; stroke: #000000; stroke-width: 0.8; stroke-linejoin: miter; stroke-linecap: square"/>
   </g>
   <g id="patch_5">
    <path d="M 48.204375 245.2525 
L 705.722066 245.2525 
" style="fill: none; stroke: #000000; stroke-width: 0.8; stroke-linejoin: miter; stroke-linecap: square"/>
   </g>
   <g id="patch_6">
    <path d="M 48.204375 23.26875 
L 705.722066 23.26875 
" style="fill: none; stroke: #000000; stroke-width: 0.8; stroke-linejoin: miter; stroke-linecap: square"/>
   </g>
   <g id="text_17">
    <!-- Job Communication Intensity Distribution (random_same) -->
    <g transform="translate(211.075408 17.26875) scale(0.12 -0.12)">
     <defs>
      <path id="STHeiti-43" d="M 4838 4128 
L 4480 3853 
Q 3840 4646 2835 4646 
Q 2016 4646 1424 4070 
Q 832 3494 832 2659 
Q 832 1824 1411 1264 
Q 1990 704 2861 704 
Q 3834 704 4480 1459 
L 4838 1184 
Q 4499 736 3980 502 
Q 3462 269 2835 269 
Q 1741 269 1043 960 
Q 346 1651 346 2707 
Q 346 3360 669 3913 
Q 992 4467 1565 4780 
Q 2138 5094 2797 5094 
Q 3456 5094 3981 4844 
Q 4506 4595 4838 4128 
z
" transform="scale(0.015625)"/>
      <path id="STHeiti-6d" d="M 486 3782 
L 922 3782 
L 922 3194 
Q 1376 3872 2086 3872 
Q 2464 3872 2761 3657 
Q 3059 3443 3162 3053 
Q 3373 3450 3699 3661 
Q 4026 3872 4451 3872 
Q 4877 3872 5222 3542 
Q 5568 3213 5568 2240 
L 5568 384 
L 5120 384 
L 5120 2240 
Q 5120 2707 5062 2928 
Q 5005 3149 4813 3299 
Q 4621 3450 4304 3450 
Q 3987 3450 3712 3238 
Q 3437 3027 3334 2700 
Q 3232 2374 3232 1715 
L 3232 384 
L 2803 384 
L 2803 2125 
Q 2803 2669 2745 2902 
Q 2688 3136 2489 3293 
Q 2291 3450 2003 3450 
Q 1715 3450 1462 3280 
Q 1210 3110 1066 2816 
Q 922 2522 922 1824 
L 922 384 
L 486 384 
L 486 3782 
z
" transform="scale(0.015625)"/>
      <path id="STHeiti-75" d="M 3405 384 
L 2963 384 
L 2963 992 
Q 2438 294 1690 294 
Q 1306 294 998 502 
Q 691 710 563 1046 
Q 435 1382 435 2035 
L 435 3782 
L 870 3782 
L 870 2163 
Q 870 1568 924 1357 
Q 979 1146 1091 998 
Q 1203 851 1376 774 
Q 1549 698 1795 698 
Q 2042 698 2278 819 
Q 2515 941 2681 1158 
Q 2848 1376 2905 1606 
Q 2963 1837 2963 2534 
L 2963 3782 
L 3405 3782 
L 3405 384 
z
" transform="scale(0.015625)"/>
      <path id="STHeiti-72" d="M 320 3782 
L 768 3782 
L 768 3290 
Q 947 3590 1116 3731 
Q 1286 3872 1494 3872 
Q 1702 3872 1914 3757 
L 1683 3386 
Q 1587 3443 1485 3443 
Q 1286 3443 1110 3238 
Q 934 3034 851 2710 
Q 768 2387 768 1536 
L 768 384 
L 320 384 
L 320 3782 
z
" transform="scale(0.015625)"/>
      <path id="STHeiti-64" d="M 3878 5094 
L 3878 384 
L 3450 384 
L 3450 966 
Q 2867 269 2115 269 
Q 1363 269 851 800 
Q 339 1331 339 2073 
Q 339 2816 857 3344 
Q 1376 3872 2099 3872 
Q 2931 3872 3450 3162 
L 3450 5094 
L 3878 5094 
z
M 3475 2061 
Q 3475 2643 3091 3046 
Q 2707 3450 2131 3450 
Q 1555 3450 1168 3037 
Q 781 2624 781 2064 
Q 781 1504 1177 1088 
Q 1574 672 2115 672 
Q 2656 672 3065 1065 
Q 3475 1459 3475 2061 
z
" transform="scale(0.015625)"/>
      <path id="STHeiti-5f" d="M 0 -96 
L 3200 -96 
L 3200 -416 
L 0 -416 
L 0 -96 
z
" transform="scale(0.015625)"/>
     </defs>
     <use xlink:href="#STHeiti-4a"/>
     <use xlink:href="#STHeiti-6f" x="48.199997"/>
     <use xlink:href="#STHeiti-62" x="113.699982"/>
     <use xlink:href="#STHeiti-20" x="181.899963"/>
     <use xlink:href="#STHeiti-43" x="206.899948"/>
     <use xlink:href="#STHeiti-6f" x="288.199936"/>
     <use xlink:href="#STHeiti-6d" x="353.699921"/>
     <use xlink:href="#STHeiti-6d" x="447.499908"/>
     <use xlink:href="#STHeiti-75" x="541.299896"/>
     <use xlink:href="#STHeiti-6e" x="602.099884"/>
     <use xlink:href="#STHeiti-69" x="663.099869"/>
     <use xlink:href="#STHeiti-63" x="683.099854"/>
     <use xlink:href="#STHeiti-61" x="747.79985"/>
     <use xlink:href="#STHeiti-74" x="816.099838"/>
     <use xlink:href="#STHeiti-69" x="849.999832"/>
     <use xlink:href="#STHeiti-6f" x="869.999817"/>
     <use xlink:href="#STHeiti-6e" x="935.499802"/>
     <use xlink:href="#STHeiti-20" x="996.499786"/>
     <use xlink:href="#STHeiti-49" x="1021.499771"/>
     <use xlink:href="#STHeiti-6e" x="1044.099762"/>
     <use xlink:href="#STHeiti-74" x="1105.099747"/>
     <use xlink:href="#STHeiti-65" x="1138.999741"/>
     <use xlink:href="#STHeiti-6e" x="1203.999725"/>
     <use xlink:href="#STHeiti-73" x="1264.99971"/>
     <use xlink:href="#STHeiti-69" x="1303.799698"/>
     <use xlink:href="#STHeiti-74" x="1323.799683"/>
     <use xlink:href="#STHeiti-79" x="1357.699677"/>
     <use xlink:href="#STHeiti-20" x="1411.299667"/>
     <use xlink:href="#STHeiti-44" x="1436.299652"/>
     <use xlink:href="#STHeiti-69" x="1510.699646"/>
     <use xlink:href="#STHeiti-73" x="1530.699631"/>
     <use xlink:href="#STHeiti-74" x="1569.499619"/>
     <use xlink:href="#STHeiti-72" x="1603.399612"/>
     <use xlink:href="#STHeiti-69" x="1633.499603"/>
     <use xlink:href="#STHeiti-62" x="1653.499588"/>
     <use xlink:href="#STHeiti-75" x="1721.69957"/>
     <use xlink:href="#STHeiti-74" x="1782.499557"/>
     <use xlink:href="#STHeiti-69" x="1816.399551"/>
     <use xlink:href="#STHeiti-6f" x="1836.399536"/>
     <use xlink:href="#STHeiti-6e" x="1901.899521"/>
     <use xlink:href="#STHeiti-20" x="1962.899506"/>
     <use xlink:href="#STHeiti-28" x="1987.89949"/>
     <use xlink:href="#STHeiti-72" x="2024.799484"/>
     <use xlink:href="#STHeiti-61" x="2054.899475"/>
     <use xlink:href="#STHeiti-6e" x="2123.199463"/>
     <use xlink:href="#STHeiti-64" x="2184.199448"/>
     <use xlink:href="#STHeiti-6f" x="2252.699432"/>
     <use xlink:href="#STHeiti-6d" x="2318.199417"/>
     <use xlink:href="#STHeiti-5f" x="2411.999405"/>
     <use xlink:href="#STHeiti-73" x="2461.99939"/>
     <use xlink:href="#STHeiti-61" x="2500.799377"/>
     <use xlink:href="#STHeiti-6d" x="2569.099365"/>
     <use xlink:href="#STHeiti-65" x="2662.899353"/>
     <use xlink:href="#STHeiti-29" x="2727.899338"/>
    </g>
   </g>
   <g id="PathCollection_1">
    <defs>
     <path id="m213ff0d3eb" d="M 0 3.872983 
C 1.027127 3.872983 2.012324 3.464901 2.738613 2.738613 
C 3.464901 2.012324 3.872983 1.027127 3.872983 0 
C 3.872983 -1.027127 3.464901 -2.012324 2.738613 -2.738613 
C 2.012324 -3.464901 1.027127 -3.872983 0 -3.872983 
C -1.027127 -3.872983 -2.012324 -3.464901 -2.738613 -2.738613 
C -3.464901 -2.012324 -3.872983 -1.027127 -3.872983 0 
C -3.872983 1.027127 -3.464901 2.012324 -2.738613 2.738613 
C -2.012324 3.464901 -1.027127 3.872983 0 3.872983 
z
" style="stroke: #ffffff; stroke-width: 0.5"/>
    </defs>
    <g clip-path="url(#p42da3042bd)">
     <use xlink:href="#m213ff0d3eb" x="349.793068" y="235.16233" style="fill: #888888; stroke: #ffffff; stroke-width: 0.5"/>
     <use xlink:href="#m213ff0d3eb" x="186.772153" y="227.397469" style="fill: #888888; stroke: #ffffff; stroke-width: 0.5"/>
     <use xlink:href="#m213ff0d3eb" x="675.834898" y="193.780944" style="fill: #888888; stroke: #ffffff; stroke-width: 0.5"/>
     <use xlink:href="#m213ff0d3eb" x="512.813983" y="192.897655" style="fill: #888888; stroke: #ffffff; stroke-width: 0.5"/>
     <use xlink:href="#m213ff0d3eb" x="132.431848" y="61.596055" style="fill: #888888; stroke: #ffffff; stroke-width: 0.5"/>
     <use xlink:href="#m213ff0d3eb" x="458.473678" y="48.946624" style="fill: #888888; stroke: #ffffff; stroke-width: 0.5"/>
     <use xlink:href="#m213ff0d3eb" x="78.091543" y="45.989379" style="fill: #888888; stroke: #ffffff; stroke-width: 0.5"/>
     <use xlink:href="#m213ff0d3eb" x="404.133373" y="42.04736" style="fill: #888888; stroke: #ffffff; stroke-width: 0.5"/>
     <use xlink:href="#m213ff0d3eb" x="241.112458" y="38.63647" style="fill: #888888; stroke: #ffffff; stroke-width: 0.5"/>
     <use xlink:href="#m213ff0d3eb" x="567.154288" y="36.471355" style="fill: #888888; stroke: #ffffff; stroke-width: 0.5"/>
     <use xlink:href="#m213ff0d3eb" x="621.494593" y="34.068822" style="fill: #888888; stroke: #ffffff; stroke-width: 0.5"/>
     <use xlink:href="#m213ff0d3eb" x="295.452763" y="33.35892" style="fill: #888888; stroke: #ffffff; stroke-width: 0.5"/>
    </g>
   </g>
   <g id="legend_1">
    <g id="patch_7">
     <path d="M 538.104566 41.10875 
L 700.122066 41.10875 
Q 701.722066 41.10875 701.722066 39.50875 
L 701.722066 28.86875 
Q 701.722066 27.26875 700.122066 27.26875 
L 538.104566 27.26875 
Q 536.504566 27.26875 536.504566 28.86875 
L 536.504566 39.50875 
Q 536.504566 41.10875 538.104566 41.10875 
z
" style="fill: #ffffff; opacity: 0.8; stroke: #cccccc; stroke-linejoin: miter"/>
    </g>
    <g id="PathCollection_2">
     <g>
      <use xlink:href="#m213ff0d3eb" x="547.704566" y="34.73625" style="fill: #888888; stroke: #ffffff; stroke-width: 0.5"/>
     </g>
    </g>
    <g id="text_18">
     <!-- synthetic -->
     <g transform="translate(562.104566 36.83625) scale(0.08 -0.08)">
      <defs>
       <path id="STHeiti-68" d="M 486 5094 
L 928 5094 
L 928 3174 
Q 1453 3872 2202 3872 
Q 2586 3872 2893 3664 
Q 3200 3456 3328 3120 
Q 3456 2784 3456 2131 
L 3456 384 
L 3014 384 
L 3014 2003 
Q 3014 2528 2982 2726 
Q 2950 2925 2841 3104 
Q 2733 3283 2550 3376 
Q 2368 3469 2109 3469 
Q 1850 3469 1613 3347 
Q 1376 3226 1209 3008 
Q 1043 2790 985 2560 
Q 928 2330 928 1632 
L 928 384 
L 486 384 
L 486 5094 
z
" transform="scale(0.015625)"/>
      </defs>
      <use xlink:href="#STHeiti-73"/>
      <use xlink:href="#STHeiti-79" x="38.799988"/>
      <use xlink:href="#STHeiti-6e" x="92.399979"/>
      <use xlink:href="#STHeiti-74" x="153.399963"/>
      <use xlink:href="#STHeiti-68" x="187.299957"/>
      <use xlink:href="#STHeiti-65" x="248.299942"/>
      <use xlink:href="#STHeiti-74" x="313.299927"/>
      <use xlink:href="#STHeiti-69" x="347.199921"/>
      <use xlink:href="#STHeiti-63" x="367.199905"/>
     </g>
    </g>
    <g id="line2d_34">
     <path d="M 612.657066 34.03625 
L 620.657066 34.03625 
L 628.657066 34.03625 
" style="fill: none; stroke-dasharray: 4.44,1.92; stroke-dashoffset: 0; stroke: #cc3311; stroke-width: 1.2"/>
    </g>
    <g id="text_19">
     <!-- median = 27.1 G -->
     <g transform="translate(635.057066 36.83625) scale(0.08 -0.08)">
      <defs>
       <path id="STHeiti-3d" d="M 3520 3584 
L 3520 3155 
L 358 3155 
L 358 3584 
L 3520 3584 
z
M 3520 2208 
L 3520 1779 
L 358 1779 
L 358 2208 
L 3520 2208 
z
" transform="scale(0.015625)"/>
       <path id="STHeiti-2e" d="M 582 685 
Q 582 845 697 957 
Q 813 1069 969 1069 
Q 1126 1069 1238 957 
Q 1350 845 1350 681 
Q 1350 518 1238 406 
Q 1126 294 969 294 
Q 813 294 697 409 
Q 582 525 582 685 
z
" transform="scale(0.015625)"/>
       <path id="STHeiti-47" d="M 5318 4211 
L 4966 3872 
Q 4582 4243 4124 4441 
Q 3667 4640 3180 4640 
Q 2694 4640 2208 4377 
Q 1722 4115 1450 3670 
Q 1178 3226 1178 2707 
Q 1178 1901 1782 1302 
Q 2387 704 3296 704 
Q 3987 704 4483 1091 
Q 4979 1478 5075 2144 
L 3610 2144 
L 3610 2586 
L 5594 2586 
Q 5574 1491 4940 880 
Q 4307 269 3283 269 
Q 2106 269 1398 992 
Q 691 1715 691 2691 
Q 691 3667 1395 4380 
Q 2099 5094 3244 5094 
Q 4390 5094 5318 4211 
z
" transform="scale(0.015625)"/>
      </defs>
      <use xlink:href="#STHeiti-6d"/>
      <use xlink:href="#STHeiti-65" x="93.799988"/>
      <use xlink:href="#STHeiti-64" x="158.799973"/>
      <use xlink:href="#STHeiti-69" x="227.299957"/>
      <use xlink:href="#STHeiti-61" x="247.299942"/>
      <use xlink:href="#STHeiti-6e" x="315.59993"/>
      <use xlink:href="#STHeiti-20" x="376.599915"/>
      <use xlink:href="#STHeiti-3d" x="401.599899"/>
      <use xlink:href="#STHeiti-20" x="462.19989"/>
      <use xlink:href="#STHeiti-32" x="487.199875"/>
      <use xlink:href="#STHeiti-37" x="542.599869"/>
      <use xlink:href="#STHeiti-2e" x="597.999863"/>
      <use xlink:href="#STHeiti-31" x="625.69986"/>
      <use xlink:href="#STHeiti-20" x="681.099854"/>
      <use xlink:href="#STHeiti-47" x="706.099838"/>
     </g>
    </g>
   </g>
  </g>
 </g>
 <defs>
  <clipPath id="p42da3042bd">
   <rect x="48.204375" y="23.26875" width="657.517691" height="221.98375"/>
  </clipPath>
 </defs>
</svg>
