<?xml version="1.0" encoding="utf-8" standalone="no"?>
<!DOCTYPE svg PUBLIC "-//W3C//DTD SVG 1.1//EN"
  "http://www.w3.org/Graphics/SVG/1.1/DTD/svg11.dtd">
<svg xmlns:xlink="http://www.w3.org/1999/xlink" width="932.9568pt" height="498.415218pt" viewBox="0 0 932.9568 498.415218" xmlns="http://www.w3.org/2000/svg" version="1.1">
 <metadata>
  <rdf:RDF xmlns:dc="http://purl.org/dc/elements/1.1/" xmlns:cc="http://creativecommons.org/ns#" xmlns:rdf="http://www.w3.org/1999/02/22-rdf-syntax-ns#">
   <cc:Work>
    <dc:type rdf:resource="http://purl.org/dc/dcmitype/StillImage"/>
    <dc:date>2026-05-15T12:42:20.338310</dc:date>
    <dc:format>image/svg+xml</dc:format>
    <dc:creator>
     <cc:Agent>
      <dc:title>Matplotlib v3.9.4, https://matplotlib.org/</dc:title>
     </cc:Agent>
    </dc:creator>
   </cc:Work>
  </rdf:RDF>
 </metadata>
 <defs>
  <style type="text/css">*{stroke-linejoin: round; stroke-linecap: butt}</style>
 </defs>
 <g id="figure_1">
  <g id="patch_1">
   <path d="M 0 498.415218 
L 932.9568 498.415218 
L 932.9568 0 
L 0 0 
z
" style="fill: #ffffff"/>
  </g>
  <g id="axes_1">
   <g id="patch_2">
    <path d="M 78.643307 414.668818 
L 139.880427 414.668818 
L 139.880427 312.606951 
L 78.643307 312.606951 
z
" clip-path="url(#p8d38780f54)" style="fill: #dddddd; stroke: #333333; stroke-width: 1.2; stroke-linejoin: miter"/>
   </g>
   <g id="patch_3">
    <path d="M 180.705173 414.668818 
L 241.942293 414.668818 
L 241.942293 312.606951 
L 180.705173 312.606951 
z
" clip-path="url(#p8d38780f54)" style="fill: #dddddd; stroke: #333333; stroke-width: 1.2; stroke-linejoin: miter"/>
   </g>
   <g id="patch_4">
    <path d="M 282.76704 414.668818 
L 344.00416 414.668818 
L 344.00416 312.606951 
L 282.76704 312.606951 
z
" clip-path="url(#p8d38780f54)" style="fill: #dddddd; stroke: #333333; stroke-width: 1.2; stroke-linejoin: miter"/>
   </g>
   <g id="patch_5">
    <path d="M 384.828907 414.668818 
L 446.066027 414.668818 
L 446.066027 312.606951 
L 384.828907 312.606951 
z
" clip-path="url(#p8d38780f54)" style="fill: #dddddd; stroke: #333333; stroke-width: 1.2; stroke-linejoin: miter"/>
   </g>
   <g id="patch_6">
    <path d="M 486.890773 414.668818 
L 548.127893 414.668818 
L 548.127893 312.606951 
L 486.890773 312.606951 
z
" clip-path="url(#p8d38780f54)" style="fill: #dddddd; stroke: #333333; stroke-width: 1.2; stroke-linejoin: miter"/>
   </g>
   <g id="patch_7">
    <path d="M 588.95264 414.668818 
L 650.18976 414.668818 
L 650.18976 312.606951 
L 588.95264 312.606951 
z
" clip-path="url(#p8d38780f54)" style="fill: #dddddd; stroke: #333333; stroke-width: 1.2; stroke-linejoin: miter"/>
   </g>
   <g id="patch_8">
    <path d="M 691.014507 414.668818 
L 752.251627 414.668818 
L 752.251627 312.606951 
L 691.014507 312.606951 
z
" clip-path="url(#p8d38780f54)" style="fill: #dddddd; stroke: #333333; stroke-width: 1.2; stroke-linejoin: miter"/>
   </g>
   <g id="patch_9">
    <path d="M 793.076373 414.668818 
L 854.313493 414.668818 
L 854.313493 312.606951 
L 793.076373 312.606951 
z
" clip-path="url(#p8d38780f54)" style="fill: #dddddd; stroke: #333333; stroke-width: 1.2; stroke-linejoin: miter"/>
   </g>
   <g id="line2d_1">
    <path d="M 109.261867 363.637885 
L 109.261867 317.710045 
" clip-path="url(#p8d38780f54)" style="fill: none; stroke: #999999; stroke-linecap: square"/>
   </g>
   <g id="line2d_2">
    <path d="M 211.323733 363.637885 
L 211.323733 317.710045 
" clip-path="url(#p8d38780f54)" style="fill: none; stroke: #999999; stroke-linecap: square"/>
   </g>
   <g id="line2d_3">
    <path d="M 313.3856 363.637885 
L 313.3856 317.710045 
" clip-path="url(#p8d38780f54)" style="fill: none; stroke: #999999; stroke-linecap: square"/>
   </g>
   <g id="line2d_4">
    <path d="M 415.447467 363.637885 
L 415.447467 317.710045 
" clip-path="url(#p8d38780f54)" style="fill: none; stroke: #999999; stroke-linecap: square"/>
   </g>
   <g id="line2d_5">
    <path d="M 517.509333 363.637885 
L 517.509333 317.710045 
" clip-path="url(#p8d38780f54)" style="fill: none; stroke: #999999; stroke-linecap: square"/>
   </g>
   <g id="line2d_6">
    <path d="M 619.5712 363.637885 
L 619.5712 317.710045 
" clip-path="url(#p8d38780f54)" style="fill: none; stroke: #999999; stroke-linecap: square"/>
   </g>
   <g id="line2d_7">
    <path d="M 721.633067 363.637885 
L 721.633067 317.710045 
" clip-path="url(#p8d38780f54)" style="fill: none; stroke: #999999; stroke-linecap: square"/>
   </g>
   <g id="line2d_8">
    <path d="M 823.694933 363.637885 
L 823.694933 317.710045 
" clip-path="url(#p8d38780f54)" style="fill: none; stroke: #999999; stroke-linecap: square"/>
   </g>
   <g id="line2d_9">
    <path d="M 109.261867 297.297671 
L 109.261867 236.060551 
" clip-path="url(#p8d38780f54)" style="fill: none; stroke: #aaaaaa; stroke-opacity: 0.5; stroke-width: 0.6; stroke-linecap: square"/>
   </g>
   <g id="line2d_10">
    <path d="M 211.323733 297.297671 
L 109.261867 236.060551 
" clip-path="url(#p8d38780f54)" style="fill: none; stroke: #aaaaaa; stroke-opacity: 0.5; stroke-width: 0.6; stroke-linecap: square"/>
   </g>
   <g id="line2d_11">
    <path d="M 313.3856 297.297671 
L 109.261867 236.060551 
" clip-path="url(#p8d38780f54)" style="fill: none; stroke: #aaaaaa; stroke-opacity: 0.5; stroke-width: 0.6; stroke-linecap: square"/>
   </g>
   <g id="line2d_12">
    <path d="M 415.447467 297.297671 
L 109.261867 236.060551 
" clip-path="url(#p8d38780f54)" style="fill: none; stroke: #aaaaaa; stroke-opacity: 0.5; stroke-width: 0.6; stroke-linecap: square"/>
   </g>
   <g id="line2d_13">
    <path d="M 517.509333 297.297671 
L 109.261867 236.060551 
" clip-path="url(#p8d38780f54)" style="fill: none; stroke: #aaaaaa; stroke-opacity: 0.5; stroke-width: 0.6; stroke-linecap: square"/>
   </g>
   <g id="line2d_14">
    <path d="M 619.5712 297.297671 
L 109.261867 236.060551 
" clip-path="url(#p8d38780f54)" style="fill: none; stroke: #aaaaaa; stroke-opacity: 0.5; stroke-width: 0.6; stroke-linecap: square"/>
   </g>
   <g id="line2d_15">
    <path d="M 721.633067 297.297671 
L 109.261867 236.060551 
" clip-path="url(#p8d38780f54)" style="fill: none; stroke: #aaaaaa; stroke-opacity: 0.5; stroke-width: 0.6; stroke-linecap: square"/>
   </g>
   <g id="line2d_16">
    <path d="M 823.694933 297.297671 
L 109.261867 236.060551 
" clip-path="url(#p8d38780f54)" style="fill: none; stroke: #aaaaaa; stroke-opacity: 0.5; stroke-width: 0.6; stroke-linecap: square"/>
   </g>
   <g id="line2d_17">
    <path d="M 109.261867 236.060551 
L 109.261867 159.514151 
" clip-path="url(#p8d38780f54)" style="fill: none; stroke: #aaaaaa; stroke-opacity: 0.3; stroke-width: 0.5; stroke-linecap: square"/>
   </g>
   <g id="line2d_18">
    <path d="M 109.261867 236.060551 
L 347.406222 159.514151 
" clip-path="url(#p8d38780f54)" style="fill: none; stroke: #aaaaaa; stroke-opacity: 0.3; stroke-width: 0.5; stroke-linecap: square"/>
   </g>
   <g id="line2d_19">
    <path d="M 109.261867 236.060551 
L 585.550578 159.514151 
" clip-path="url(#p8d38780f54)" style="fill: none; stroke: #aaaaaa; stroke-opacity: 0.3; stroke-width: 0.5; stroke-linecap: square"/>
   </g>
   <g id="line2d_20">
    <path d="M 109.261867 236.060551 
L 823.694933 159.514151 
" clip-path="url(#p8d38780f54)" style="fill: none; stroke: #aaaaaa; stroke-opacity: 0.3; stroke-width: 0.5; stroke-linecap: square"/>
   </g>
   <g id="line2d_21">
    <path d="M 517.509333 236.060551 
L 109.261867 159.514151 
" clip-path="url(#p8d38780f54)" style="fill: none; stroke: #aaaaaa; stroke-opacity: 0.3; stroke-width: 0.5; stroke-linecap: square"/>
   </g>
   <g id="line2d_22">
    <path d="M 517.509333 236.060551 
L 347.406222 159.514151 
" clip-path="url(#p8d38780f54)" style="fill: none; stroke: #aaaaaa; stroke-opacity: 0.3; stroke-width: 0.5; stroke-linecap: square"/>
   </g>
   <g id="line2d_23">
    <path d="M 517.509333 236.060551 
L 585.550578 159.514151 
" clip-path="url(#p8d38780f54)" style="fill: none; stroke: #aaaaaa; stroke-opacity: 0.3; stroke-width: 0.5; stroke-linecap: square"/>
   </g>
   <g id="line2d_24">
    <path d="M 517.509333 236.060551 
L 823.694933 159.514151 
" clip-path="url(#p8d38780f54)" style="fill: none; stroke: #aaaaaa; stroke-opacity: 0.3; stroke-width: 0.5; stroke-linecap: square"/>
   </g>
   <g id="text_1">
    <!-- H0 -->
    <g transform="translate(104.313742 366.285385) scale(0.08 -0.08)">
     <defs>
      <path id="STHeiti-48" d="M 550 4979 
L 1018 4979 
L 1018 3053 
L 3354 3053 
L 3354 4979 
L 3814 4979 
L 3814 384 
L 3354 384 
L 3354 2605 
L 1018 2605 
L 1018 384 
L 550 384 
L 550 4979 
z
" transform="scale(0.015625)"/>
      <path id="STHeiti-30" d="M 1747 269 
Q 1005 269 605 880 
Q 205 1491 205 2681 
Q 205 3872 605 4483 
Q 1005 5094 1741 5094 
Q 2477 5094 2909 4470 
Q 3341 3846 3341 2681 
Q 3341 1517 2905 893 
Q 2470 269 1747 269 
z
M 1760 4659 
Q 1229 4659 934 4147 
Q 640 3635 640 2669 
Q 640 685 1760 685 
Q 2304 685 2608 1206 
Q 2912 1728 2912 2681 
Q 2912 3635 2598 4147 
Q 2285 4659 1760 4659 
z
" transform="scale(0.015625)"/>
     </defs>
     <use xlink:href="#STHeiti-48"/>
     <use xlink:href="#STHeiti-30" x="68.299988"/>
    </g>
   </g>
   <g id="text_2">
    <!-- H1 -->
    <g transform="translate(206.375608 366.285385) scale(0.08 -0.08)">
     <defs>
      <path id="STHeiti-31" d="M 1184 4979 
L 2086 4979 
L 2086 384 
L 1632 384 
L 1632 4531 
L 909 4531 
L 1184 4979 
z
" transform="scale(0.015625)"/>
     </defs>
     <use xlink:href="#STHeiti-48"/>
     <use xlink:href="#STHeiti-31" x="68.299988"/>
    </g>
   </g>
   <g id="text_3">
    <!-- H2 -->
    <g transform="translate(308.437475 366.285385) scale(0.08 -0.08)">
     <defs>
      <path id="STHeiti-32" d="M 742 3539 
L 301 3539 
Q 333 4243 768 4668 
Q 1203 5094 1820 5094 
Q 2438 5094 2844 4694 
Q 3251 4294 3251 3718 
Q 3251 3290 3024 2925 
Q 2797 2560 2336 2061 
L 1190 826 
L 3315 826 
L 3315 384 
L 192 384 
L 1946 2278 
Q 2406 2778 2604 3066 
Q 2803 3354 2803 3725 
Q 2803 4096 2512 4377 
Q 2221 4659 1789 4659 
Q 1357 4659 1072 4368 
Q 787 4077 742 3539 
z
" transform="scale(0.015625)"/>
     </defs>
     <use xlink:href="#STHeiti-48"/>
     <use xlink:href="#STHeiti-32" x="68.299988"/>
    </g>
   </g>
   <g id="text_4">
    <!-- H3 -->
    <g transform="translate(410.499342 366.285385) scale(0.08 -0.08)">
     <defs>
      <path id="STHeiti-33" d="M 845 3917 
L 378 3917 
Q 506 4486 867 4790 
Q 1229 5094 1750 5094 
Q 2272 5094 2659 4748 
Q 3046 4403 3046 3910 
Q 3046 3315 2458 2970 
Q 2861 2803 3081 2473 
Q 3302 2144 3302 1754 
Q 3302 1146 2857 707 
Q 2413 269 1734 269 
Q 1133 269 742 611 
Q 352 954 224 1613 
L 672 1613 
Q 794 1158 1046 937 
Q 1299 717 1760 717 
Q 2221 717 2534 1011 
Q 2848 1306 2848 1741 
Q 2848 2176 2502 2441 
Q 2157 2707 1498 2720 
L 1498 3142 
Q 1971 3142 2268 3360 
Q 2566 3578 2566 3901 
Q 2566 4224 2326 4438 
Q 2086 4653 1747 4653 
Q 1408 4653 1200 4470 
Q 992 4288 845 3917 
z
" transform="scale(0.015625)"/>
     </defs>
     <use xlink:href="#STHeiti-48"/>
     <use xlink:href="#STHeiti-33" x="68.299988"/>
    </g>
   </g>
   <g id="text_5">
    <!-- H4 -->
    <g transform="translate(512.561208 366.285385) scale(0.08 -0.08)">
     <defs>
      <path id="STHeiti-34" d="M 2726 5094 
L 2816 5094 
L 2816 1894 
L 3373 1894 
L 3373 1453 
L 2816 1453 
L 2816 384 
L 2362 384 
L 2362 1453 
L 160 1453 
L 2726 5094 
z
M 2362 1894 
L 2362 3808 
L 1005 1894 
L 2362 1894 
z
" transform="scale(0.015625)"/>
     </defs>
     <use xlink:href="#STHeiti-48"/>
     <use xlink:href="#STHeiti-34" x="68.299988"/>
    </g>
   </g>
   <g id="text_6">
    <!-- H5 -->
    <g transform="translate(614.623075 366.285385) scale(0.08 -0.08)">
     <defs>
      <path id="STHeiti-35" d="M 3149 4979 
L 3149 4544 
L 1510 4544 
L 1280 3290 
Q 1587 3379 1856 3379 
Q 2458 3379 2861 2953 
Q 3264 2528 3264 1862 
Q 3264 1197 2825 733 
Q 2387 269 1664 269 
Q 1114 269 726 598 
Q 339 928 262 1498 
L 730 1498 
Q 813 1114 1075 909 
Q 1338 704 1683 704 
Q 2138 704 2467 1043 
Q 2797 1382 2797 1888 
Q 2797 2349 2509 2646 
Q 2221 2944 1757 2944 
Q 1293 2944 730 2701 
L 1158 4979 
L 3149 4979 
z
" transform="scale(0.015625)"/>
     </defs>
     <use xlink:href="#STHeiti-48"/>
     <use xlink:href="#STHeiti-35" x="68.299988"/>
    </g>
   </g>
   <g id="text_7">
    <!-- H6 -->
    <g transform="translate(716.684942 366.285385) scale(0.08 -0.08)">
     <defs>
      <path id="STHeiti-36" d="M 2349 5094 
L 2726 4851 
L 1485 2970 
Q 1747 3059 1984 3059 
Q 2496 3059 2880 2652 
Q 3264 2246 3264 1660 
Q 3264 1075 2845 672 
Q 2426 269 1827 269 
Q 1229 269 829 678 
Q 429 1088 429 1677 
Q 429 1958 537 2256 
Q 646 2554 954 3014 
L 2349 5094 
z
M 2810 1683 
Q 2810 2086 2528 2368 
Q 2246 2650 1843 2650 
Q 1440 2650 1158 2368 
Q 877 2086 877 1683 
Q 877 1280 1161 998 
Q 1446 717 1843 717 
Q 2240 717 2525 998 
Q 2810 1280 2810 1683 
z
" transform="scale(0.015625)"/>
     </defs>
     <use xlink:href="#STHeiti-48"/>
     <use xlink:href="#STHeiti-36" x="68.299988"/>
    </g>
   </g>
   <g id="text_8">
    <!-- H7 -->
    <g transform="translate(818.746808 366.285385) scale(0.08 -0.08)">
     <defs>
      <path id="STHeiti-37" d="M 461 4979 
L 3373 4979 
L 915 269 
L 538 461 
L 2662 4544 
L 461 4544 
L 461 4979 
z
" transform="scale(0.015625)"/>
     </defs>
     <use xlink:href="#STHeiti-48"/>
     <use xlink:href="#STHeiti-37" x="68.299988"/>
    </g>
   </g>
   <g id="text_9">
    <!-- NIC0 -->
    <g style="fill: #885500" transform="translate(102.26296 296.493296) scale(0.06 -0.06)">
     <defs>
      <path id="STHeiti-4e" d="M 563 384 
L 563 4979 
L 666 4979 
L 3718 1459 
L 3718 4979 
L 4173 4979 
L 4173 384 
L 4070 384 
L 1037 3859 
L 1037 384 
L 563 384 
z
" transform="scale(0.015625)"/>
      <path id="STHeiti-49" d="M 493 4979 
L 954 4979 
L 954 384 
L 493 384 
L 493 4979 
z
" transform="scale(0.015625)"/>
      <path id="STHeiti-43" d="M 4838 4128 
L 4480 3853 
Q 3840 4646 2835 4646 
Q 2016 4646 1424 4070 
Q 832 3494 832 2659 
Q 832 1824 1411 1264 
Q 1990 704 2861 704 
Q 3834 704 4480 1459 
L 4838 1184 
Q 4499 736 3980 502 
Q 3462 269 2835 269 
Q 1741 269 1043 960 
Q 346 1651 346 2707 
Q 346 3360 669 3913 
Q 992 4467 1565 4780 
Q 2138 5094 2797 5094 
Q 3456 5094 3981 4844 
Q 4506 4595 4838 4128 
z
" transform="scale(0.015625)"/>
     </defs>
     <use xlink:href="#STHeiti-4e"/>
     <use xlink:href="#STHeiti-49" x="73.999985"/>
     <use xlink:href="#STHeiti-43" x="96.599976"/>
     <use xlink:href="#STHeiti-30" x="177.899963"/>
    </g>
   </g>
   <g id="text_10">
    <!-- NIC1 -->
    <g style="fill: #885500" transform="translate(204.324827 296.493296) scale(0.06 -0.06)">
     <use xlink:href="#STHeiti-4e"/>
     <use xlink:href="#STHeiti-49" x="73.999985"/>
     <use xlink:href="#STHeiti-43" x="96.599976"/>
     <use xlink:href="#STHeiti-31" x="177.899963"/>
    </g>
   </g>
   <g id="text_11">
    <!-- NIC2 -->
    <g style="fill: #885500" transform="translate(306.386694 296.493296) scale(0.06 -0.06)">
     <use xlink:href="#STHeiti-4e"/>
     <use xlink:href="#STHeiti-49" x="73.999985"/>
     <use xlink:href="#STHeiti-43" x="96.599976"/>
     <use xlink:href="#STHeiti-32" x="177.899963"/>
    </g>
   </g>
   <g id="text_12">
    <!-- NIC3 -->
    <g style="fill: #885500" transform="translate(408.44856 296.493296) scale(0.06 -0.06)">
     <use xlink:href="#STHeiti-4e"/>
     <use xlink:href="#STHeiti-49" x="73.999985"/>
     <use xlink:href="#STHeiti-43" x="96.599976"/>
     <use xlink:href="#STHeiti-33" x="177.899963"/>
    </g>
   </g>
   <g id="text_13">
    <!-- NIC4 -->
    <g style="fill: #885500" transform="translate(510.510427 296.493296) scale(0.06 -0.06)">
     <use xlink:href="#STHeiti-4e"/>
     <use xlink:href="#STHeiti-49" x="73.999985"/>
     <use xlink:href="#STHeiti-43" x="96.599976"/>
     <use xlink:href="#STHeiti-34" x="177.899963"/>
    </g>
   </g>
   <g id="text_14">
    <!-- NIC5 -->
    <g style="fill: #885500" transform="translate(612.572294 296.493296) scale(0.06 -0.06)">
     <use xlink:href="#STHeiti-4e"/>
     <use xlink:href="#STHeiti-49" x="73.999985"/>
     <use xlink:href="#STHeiti-43" x="96.599976"/>
     <use xlink:href="#STHeiti-35" x="177.899963"/>
    </g>
   </g>
   <g id="text_15">
    <!-- NIC6 -->
    <g style="fill: #885500" transform="translate(714.63416 296.493296) scale(0.06 -0.06)">
     <use xlink:href="#STHeiti-4e"/>
     <use xlink:href="#STHeiti-49" x="73.999985"/>
     <use xlink:href="#STHeiti-43" x="96.599976"/>
     <use xlink:href="#STHeiti-36" x="177.899963"/>
    </g>
   </g>
   <g id="text_16">
    <!-- NIC7 -->
    <g style="fill: #885500" transform="translate(816.696027 296.493296) scale(0.06 -0.06)">
     <use xlink:href="#STHeiti-4e"/>
     <use xlink:href="#STHeiti-49" x="73.999985"/>
     <use xlink:href="#STHeiti-43" x="96.599976"/>
     <use xlink:href="#STHeiti-37" x="177.899963"/>
    </g>
   </g>
   <g id="text_17">
    <!-- SW0 -->
    <g style="fill: #880000" transform="translate(103.225773 228.721051) scale(0.06 -0.06)">
     <defs>
      <path id="STHeiti-53" d="M 83 1242 
L 474 1472 
Q 883 717 1427 717 
Q 1779 717 2028 941 
Q 2278 1165 2278 1498 
Q 2278 1760 2067 2029 
Q 1856 2298 1366 2666 
Q 877 3034 707 3216 
Q 538 3398 458 3606 
Q 378 3814 378 4026 
Q 378 4474 694 4784 
Q 1011 5094 1491 5094 
Q 1869 5094 2150 4905 
Q 2432 4717 2694 4346 
L 2323 4058 
Q 2144 4301 1952 4461 
Q 1760 4621 1481 4621 
Q 1203 4621 1027 4454 
Q 851 4288 851 4032 
Q 851 3776 1008 3587 
Q 1165 3398 1718 2988 
Q 2272 2579 2525 2233 
Q 2778 1888 2778 1504 
Q 2778 1005 2390 637 
Q 2003 269 1491 269 
Q 589 269 83 1242 
z
" transform="scale(0.015625)"/>
      <path id="STHeiti-57" d="M 301 4979 
L 774 4979 
L 1709 1555 
L 3027 4979 
L 3117 4979 
L 4422 1555 
L 5376 4979 
L 5843 4979 
L 4525 269 
L 4435 269 
L 3072 3859 
L 1683 269 
L 1600 269 
L 301 4979 
z
" transform="scale(0.015625)"/>
     </defs>
     <use xlink:href="#STHeiti-53"/>
     <use xlink:href="#STHeiti-57" x="49.799988"/>
     <use xlink:href="#STHeiti-30" x="145.799973"/>
    </g>
    <!-- 0 -->
    <g style="fill: #880000" transform="translate(107.599679 235.256176) scale(0.06 -0.06)">
     <use xlink:href="#STHeiti-30"/>
    </g>
   </g>
   <g id="text_18">
    <!-- 400G -->
    <g style="fill: #666666" transform="translate(102.92632 210.545085) scale(0.05 -0.05)">
     <defs>
      <path id="STHeiti-47" d="M 5318 4211 
L 4966 3872 
Q 4582 4243 4124 4441 
Q 3667 4640 3180 4640 
Q 2694 4640 2208 4377 
Q 1722 4115 1450 3670 
Q 1178 3226 1178 2707 
Q 1178 1901 1782 1302 
Q 2387 704 3296 704 
Q 3987 704 4483 1091 
Q 4979 1478 5075 2144 
L 3610 2144 
L 3610 2586 
L 5594 2586 
Q 5574 1491 4940 880 
Q 4307 269 3283 269 
Q 2106 269 1398 992 
Q 691 1715 691 2691 
Q 691 3667 1395 4380 
Q 2099 5094 3244 5094 
Q 4390 5094 5318 4211 
z
" transform="scale(0.015625)"/>
     </defs>
     <use xlink:href="#STHeiti-34"/>
     <use xlink:href="#STHeiti-30" x="55.399994"/>
     <use xlink:href="#STHeiti-30" x="110.799988"/>
     <use xlink:href="#STHeiti-47" x="166.199982"/>
    </g>
   </g>
   <g id="text_19">
    <!-- SW0 -->
    <g style="fill: #880000" transform="translate(205.28764 228.721051) scale(0.06 -0.06)">
     <use xlink:href="#STHeiti-53"/>
     <use xlink:href="#STHeiti-57" x="49.799988"/>
     <use xlink:href="#STHeiti-30" x="145.799973"/>
    </g>
    <!-- 1 -->
    <g style="fill: #880000" transform="translate(209.661546 235.256176) scale(0.06 -0.06)">
     <use xlink:href="#STHeiti-31"/>
    </g>
   </g>
   <g id="text_20">
    <!-- 400G -->
    <g style="fill: #666666" transform="translate(204.988186 210.545085) scale(0.05 -0.05)">
     <use xlink:href="#STHeiti-34"/>
     <use xlink:href="#STHeiti-30" x="55.399994"/>
     <use xlink:href="#STHeiti-30" x="110.799988"/>
     <use xlink:href="#STHeiti-47" x="166.199982"/>
    </g>
   </g>
   <g id="text_21">
    <!-- SW0 -->
    <g style="fill: #880000" transform="translate(307.349506 228.721051) scale(0.06 -0.06)">
     <use xlink:href="#STHeiti-53"/>
     <use xlink:href="#STHeiti-57" x="49.799988"/>
     <use xlink:href="#STHeiti-30" x="145.799973"/>
    </g>
    <!-- 2 -->
    <g style="fill: #880000" transform="translate(311.723412 235.256176) scale(0.06 -0.06)">
     <use xlink:href="#STHeiti-32"/>
    </g>
   </g>
   <g id="text_22">
    <!-- 400G -->
    <g style="fill: #666666" transform="translate(307.050053 210.545085) scale(0.05 -0.05)">
     <use xlink:href="#STHeiti-34"/>
     <use xlink:href="#STHeiti-30" x="55.399994"/>
     <use xlink:href="#STHeiti-30" x="110.799988"/>
     <use xlink:href="#STHeiti-47" x="166.199982"/>
    </g>
   </g>
   <g id="text_23">
    <!-- SW0 -->
    <g style="fill: #880000" transform="translate(409.411373 228.721051) scale(0.06 -0.06)">
     <use xlink:href="#STHeiti-53"/>
     <use xlink:href="#STHeiti-57" x="49.799988"/>
     <use xlink:href="#STHeiti-30" x="145.799973"/>
    </g>
    <!-- 3 -->
    <g style="fill: #880000" transform="translate(413.785279 235.256176) scale(0.06 -0.06)">
     <use xlink:href="#STHeiti-33"/>
    </g>
   </g>
   <g id="text_24">
    <!-- 400G -->
    <g style="fill: #666666" transform="translate(409.11192 210.545085) scale(0.05 -0.05)">
     <use xlink:href="#STHeiti-34"/>
     <use xlink:href="#STHeiti-30" x="55.399994"/>
     <use xlink:href="#STHeiti-30" x="110.799988"/>
     <use xlink:href="#STHeiti-47" x="166.199982"/>
    </g>
   </g>
   <g id="text_25">
    <!-- SW0 -->
    <g style="fill: #880000" transform="translate(511.47324 228.721051) scale(0.06 -0.06)">
     <use xlink:href="#STHeiti-53"/>
     <use xlink:href="#STHeiti-57" x="49.799988"/>
     <use xlink:href="#STHeiti-30" x="145.799973"/>
    </g>
    <!-- 4 -->
    <g style="fill: #880000" transform="translate(515.847146 235.256176) scale(0.06 -0.06)">
     <use xlink:href="#STHeiti-34"/>
    </g>
   </g>
   <g id="text_26">
    <!-- 400G -->
    <g style="fill: #666666" transform="translate(511.173786 210.545085) scale(0.05 -0.05)">
     <use xlink:href="#STHeiti-34"/>
     <use xlink:href="#STHeiti-30" x="55.399994"/>
     <use xlink:href="#STHeiti-30" x="110.799988"/>
     <use xlink:href="#STHeiti-47" x="166.199982"/>
    </g>
   </g>
   <g id="text_27">
    <!-- SW0 -->
    <g style="fill: #880000" transform="translate(613.535106 228.721051) scale(0.06 -0.06)">
     <use xlink:href="#STHeiti-53"/>
     <use xlink:href="#STHeiti-57" x="49.799988"/>
     <use xlink:href="#STHeiti-30" x="145.799973"/>
    </g>
    <!-- 5 -->
    <g style="fill: #880000" transform="translate(617.909012 235.256176) scale(0.06 -0.06)">
     <use xlink:href="#STHeiti-35"/>
    </g>
   </g>
   <g id="text_28">
    <!-- 400G -->
    <g style="fill: #666666" transform="translate(613.235653 210.545085) scale(0.05 -0.05)">
     <use xlink:href="#STHeiti-34"/>
     <use xlink:href="#STHeiti-30" x="55.399994"/>
     <use xlink:href="#STHeiti-30" x="110.799988"/>
     <use xlink:href="#STHeiti-47" x="166.199982"/>
    </g>
   </g>
   <g id="text_29">
    <!-- SW0 -->
    <g style="fill: #880000" transform="translate(715.596973 228.721051) scale(0.06 -0.06)">
     <use xlink:href="#STHeiti-53"/>
     <use xlink:href="#STHeiti-57" x="49.799988"/>
     <use xlink:href="#STHeiti-30" x="145.799973"/>
    </g>
    <!-- 6 -->
    <g style="fill: #880000" transform="translate(719.970879 235.256176) scale(0.06 -0.06)">
     <use xlink:href="#STHeiti-36"/>
    </g>
   </g>
   <g id="text_30">
    <!-- 400G -->
    <g style="fill: #666666" transform="translate(715.29752 210.545085) scale(0.05 -0.05)">
     <use xlink:href="#STHeiti-34"/>
     <use xlink:href="#STHeiti-30" x="55.399994"/>
     <use xlink:href="#STHeiti-30" x="110.799988"/>
     <use xlink:href="#STHeiti-47" x="166.199982"/>
    </g>
   </g>
   <g id="text_31">
    <!-- SW0 -->
    <g style="fill: #880000" transform="translate(817.65884 228.721051) scale(0.06 -0.06)">
     <use xlink:href="#STHeiti-53"/>
     <use xlink:href="#STHeiti-57" x="49.799988"/>
     <use xlink:href="#STHeiti-30" x="145.799973"/>
    </g>
    <!-- 7 -->
    <g style="fill: #880000" transform="translate(822.032746 235.256176) scale(0.06 -0.06)">
     <use xlink:href="#STHeiti-37"/>
    </g>
   </g>
   <g id="text_32">
    <!-- 400G -->
    <g style="fill: #666666" transform="translate(817.359386 210.545085) scale(0.05 -0.05)">
     <use xlink:href="#STHeiti-34"/>
     <use xlink:href="#STHeiti-30" x="55.399994"/>
     <use xlink:href="#STHeiti-30" x="110.799988"/>
     <use xlink:href="#STHeiti-47" x="166.199982"/>
    </g>
   </g>
   <g id="text_33">
    <!-- SW1 -->
    <g style="fill: #880000" transform="translate(103.225773 152.174651) scale(0.06 -0.06)">
     <use xlink:href="#STHeiti-53"/>
     <use xlink:href="#STHeiti-57" x="49.799988"/>
     <use xlink:href="#STHeiti-31" x="145.799973"/>
    </g>
    <!-- 0 -->
    <g style="fill: #880000" transform="translate(107.599679 158.709776) scale(0.06 -0.06)">
     <use xlink:href="#STHeiti-30"/>
    </g>
   </g>
   <g id="text_34">
    <!-- 800G -->
    <g style="fill: #666666" transform="translate(102.92632 133.998685) scale(0.05 -0.05)">
     <defs>
      <path id="STHeiti-38" d="M 2458 2906 
Q 3328 2477 3328 1702 
Q 3328 1088 2896 678 
Q 2464 269 1763 269 
Q 1062 269 640 678 
Q 218 1088 218 1664 
Q 218 2470 1107 2906 
Q 435 3264 435 3898 
Q 435 4371 828 4732 
Q 1222 5094 1779 5094 
Q 2336 5094 2726 4742 
Q 3117 4390 3117 3885 
Q 3117 3270 2458 2906 
z
M 2656 3904 
Q 2656 4211 2416 4432 
Q 2176 4653 1789 4653 
Q 1402 4653 1152 4432 
Q 902 4211 902 3897 
Q 902 3584 1174 3337 
Q 1446 3091 1792 3091 
Q 2138 3091 2397 3334 
Q 2656 3578 2656 3904 
z
M 2867 1696 
Q 2867 2086 2550 2380 
Q 2234 2675 1782 2675 
Q 1331 2675 1004 2371 
Q 678 2067 678 1654 
Q 678 1242 979 973 
Q 1280 704 1766 704 
Q 2253 704 2560 992 
Q 2867 1280 2867 1696 
z
" transform="scale(0.015625)"/>
     </defs>
     <use xlink:href="#STHeiti-38"/>
     <use xlink:href="#STHeiti-30" x="55.399994"/>
     <use xlink:href="#STHeiti-30" x="110.799988"/>
     <use xlink:href="#STHeiti-47" x="166.199982"/>
    </g>
   </g>
   <g id="text_35">
    <!-- SW1 -->
    <g style="fill: #880000" transform="translate(341.370128 152.174651) scale(0.06 -0.06)">
     <use xlink:href="#STHeiti-53"/>
     <use xlink:href="#STHeiti-57" x="49.799988"/>
     <use xlink:href="#STHeiti-31" x="145.799973"/>
    </g>
    <!-- 1 -->
    <g style="fill: #880000" transform="translate(345.744035 158.709776) scale(0.06 -0.06)">
     <use xlink:href="#STHeiti-31"/>
    </g>
   </g>
   <g id="text_36">
    <!-- 800G -->
    <g style="fill: #666666" transform="translate(341.070675 133.998685) scale(0.05 -0.05)">
     <use xlink:href="#STHeiti-38"/>
     <use xlink:href="#STHeiti-30" x="55.399994"/>
     <use xlink:href="#STHeiti-30" x="110.799988"/>
     <use xlink:href="#STHeiti-47" x="166.199982"/>
    </g>
   </g>
   <g id="text_37">
    <!-- SW1 -->
    <g style="fill: #880000" transform="translate(579.514484 152.174651) scale(0.06 -0.06)">
     <use xlink:href="#STHeiti-53"/>
     <use xlink:href="#STHeiti-57" x="49.799988"/>
     <use xlink:href="#STHeiti-31" x="145.799973"/>
    </g>
    <!-- 2 -->
    <g style="fill: #880000" transform="translate(583.88839 158.709776) scale(0.06 -0.06)">
     <use xlink:href="#STHeiti-32"/>
    </g>
   </g>
   <g id="text_38">
    <!-- 800G -->
    <g style="fill: #666666" transform="translate(579.215031 133.998685) scale(0.05 -0.05)">
     <use xlink:href="#STHeiti-38"/>
     <use xlink:href="#STHeiti-30" x="55.399994"/>
     <use xlink:href="#STHeiti-30" x="110.799988"/>
     <use xlink:href="#STHeiti-47" x="166.199982"/>
    </g>
   </g>
   <g id="text_39">
    <!-- SW1 -->
    <g style="fill: #880000" transform="translate(817.65884 152.174651) scale(0.06 -0.06)">
     <use xlink:href="#STHeiti-53"/>
     <use xlink:href="#STHeiti-57" x="49.799988"/>
     <use xlink:href="#STHeiti-31" x="145.799973"/>
    </g>
    <!-- 3 -->
    <g style="fill: #880000" transform="translate(822.032746 158.709776) scale(0.06 -0.06)">
     <use xlink:href="#STHeiti-33"/>
    </g>
   </g>
   <g id="text_40">
    <!-- 800G -->
    <g style="fill: #666666" transform="translate(817.359386 133.998685) scale(0.05 -0.05)">
     <use xlink:href="#STHeiti-38"/>
     <use xlink:href="#STHeiti-30" x="55.399994"/>
     <use xlink:href="#STHeiti-30" x="110.799988"/>
     <use xlink:href="#STHeiti-47" x="166.199982"/>
    </g>
   </g>
   <g id="text_41">
    <g id="patch_10">
     <path d="M 25.571136 83.224761 
L 160.426136 83.224761 
Q 163.926136 83.224761 163.926136 79.724761 
L 163.926136 41.081917 
Q 163.926136 37.581917 160.426136 37.581917 
L 25.571136 37.581917 
Q 22.071136 37.581917 22.071136 41.081917 
L 22.071136 79.724761 
Q 22.071136 83.224761 25.571136 83.224761 
z
" style="fill: #f5f5f5; opacity: 0.9; stroke: #cccccc; stroke-linejoin: miter"/>
    </g>
    <!-- Topology: ascend -->
    <g transform="translate(25.571136 46.47848) scale(0.07 -0.07)">
     <defs>
      <path id="DejaVuSansMono-54" d="M 147 4666 
L 3706 4666 
L 3706 4134 
L 2247 4134 
L 2247 0 
L 1613 0 
L 1613 4134 
L 147 4134 
L 147 4666 
z
" transform="scale(0.015625)"/>
      <path id="DejaVuSansMono-6f" d="M 1925 3097 
Q 1488 3097 1263 2756 
Q 1038 2416 1038 1747 
Q 1038 1081 1263 739 
Q 1488 397 1925 397 
Q 2366 397 2591 739 
Q 2816 1081 2816 1747 
Q 2816 2416 2591 2756 
Q 2366 3097 1925 3097 
z
M 1925 3584 
Q 2653 3584 3039 3112 
Q 3425 2641 3425 1747 
Q 3425 850 3040 379 
Q 2656 -91 1925 -91 
Q 1197 -91 812 379 
Q 428 850 428 1747 
Q 428 2641 812 3112 
Q 1197 3584 1925 3584 
z
" transform="scale(0.015625)"/>
      <path id="DejaVuSansMono-70" d="M 1172 441 
L 1172 -1331 
L 594 -1331 
L 594 3500 
L 1172 3500 
L 1172 3053 
Q 1316 3313 1555 3448 
Q 1794 3584 2106 3584 
Q 2741 3584 3102 3093 
Q 3463 2603 3463 1734 
Q 3463 881 3100 395 
Q 2738 -91 2106 -91 
Q 1788 -91 1548 45 
Q 1309 181 1172 441 
z
M 2859 1747 
Q 2859 2416 2648 2756 
Q 2438 3097 2022 3097 
Q 1603 3097 1387 2755 
Q 1172 2413 1172 1747 
Q 1172 1084 1387 740 
Q 1603 397 2022 397 
Q 2438 397 2648 737 
Q 2859 1078 2859 1747 
z
" transform="scale(0.015625)"/>
      <path id="DejaVuSansMono-6c" d="M 1997 1269 
Q 1997 881 2139 684 
Q 2281 488 2559 488 
L 3231 488 
L 3231 0 
L 2503 0 
Q 1988 0 1705 331 
Q 1422 663 1422 1269 
L 1422 4447 
L 500 4447 
L 500 4897 
L 1997 4897 
L 1997 1269 
z
" transform="scale(0.015625)"/>
      <path id="DejaVuSansMono-67" d="M 2681 1778 
Q 2681 2425 2470 2761 
Q 2259 3097 1856 3097 
Q 1434 3097 1212 2761 
Q 991 2425 991 1778 
Q 991 1131 1214 792 
Q 1438 453 1863 453 
Q 2259 453 2470 793 
Q 2681 1134 2681 1778 
z
M 3256 225 
Q 3256 -563 2884 -969 
Q 2513 -1375 1791 -1375 
Q 1553 -1375 1293 -1331 
Q 1034 -1288 775 -1203 
L 775 -634 
Q 1081 -778 1331 -847 
Q 1581 -916 1791 -916 
Q 2256 -916 2468 -662 
Q 2681 -409 2681 141 
L 2681 166 
L 2681 556 
Q 2544 263 2306 119 
Q 2069 -25 1728 -25 
Q 1116 -25 750 465 
Q 384 956 384 1778 
Q 384 2603 750 3093 
Q 1116 3584 1728 3584 
Q 2066 3584 2300 3450 
Q 2534 3316 2681 3034 
L 2681 3488 
L 3256 3488 
L 3256 225 
z
" transform="scale(0.015625)"/>
      <path id="DejaVuSansMono-79" d="M 2681 1125 
Q 2538 759 2316 163 
Q 2006 -663 1900 -844 
Q 1756 -1088 1540 -1209 
Q 1325 -1331 1038 -1331 
L 575 -1331 
L 575 -850 
L 916 -850 
Q 1169 -850 1312 -703 
Q 1456 -556 1678 56 
L 325 3500 
L 934 3500 
L 1972 763 
L 2994 3500 
L 3603 3500 
L 2681 1125 
z
" transform="scale(0.015625)"/>
      <path id="DejaVuSansMono-3a" d="M 1528 3322 
L 2316 3322 
L 2316 2375 
L 1528 2375 
L 1528 3322 
z
M 1528 953 
L 2316 953 
L 2316 0 
L 1528 0 
L 1528 953 
z
" transform="scale(0.015625)"/>
      <path id="DejaVuSansMono-20" transform="scale(0.015625)"/>
      <path id="DejaVuSansMono-61" d="M 2194 1759 
L 2003 1759 
Q 1500 1759 1245 1582 
Q 991 1406 991 1056 
Q 991 741 1181 566 
Q 1372 391 1709 391 
Q 2184 391 2456 720 
Q 2728 1050 2731 1631 
L 2731 1759 
L 2194 1759 
z
M 3309 1997 
L 3309 0 
L 2731 0 
L 2731 519 
Q 2547 206 2267 57 
Q 1988 -91 1588 -91 
Q 1053 -91 734 211 
Q 416 513 416 1019 
Q 416 1603 808 1906 
Q 1200 2209 1959 2209 
L 2731 2209 
L 2731 2300 
Q 2728 2719 2518 2908 
Q 2309 3097 1850 3097 
Q 1556 3097 1256 3012 
Q 956 2928 672 2766 
L 672 3341 
Q 991 3463 1283 3523 
Q 1575 3584 1850 3584 
Q 2284 3584 2592 3456 
Q 2900 3328 3091 3072 
Q 3209 2916 3259 2686 
Q 3309 2456 3309 1997 
z
" transform="scale(0.015625)"/>
      <path id="DejaVuSansMono-73" d="M 3041 3378 
L 3041 2816 
Q 2794 2959 2544 3031 
Q 2294 3103 2034 3103 
Q 1644 3103 1451 2976 
Q 1259 2850 1259 2591 
Q 1259 2356 1403 2240 
Q 1547 2125 2119 2016 
L 2350 1972 
Q 2778 1891 2998 1647 
Q 3219 1403 3219 1013 
Q 3219 494 2850 201 
Q 2481 -91 1825 -91 
Q 1566 -91 1281 -36 
Q 997 19 666 128 
L 666 722 
Q 988 556 1281 473 
Q 1575 391 1838 391 
Q 2219 391 2428 545 
Q 2638 700 2638 978 
Q 2638 1378 1872 1531 
L 1847 1538 
L 1631 1581 
Q 1134 1678 906 1908 
Q 678 2138 678 2534 
Q 678 3038 1018 3311 
Q 1359 3584 1991 3584 
Q 2272 3584 2531 3532 
Q 2791 3481 3041 3378 
z
" transform="scale(0.015625)"/>
      <path id="DejaVuSansMono-63" d="M 3316 178 
Q 3084 44 2839 -23 
Q 2594 -91 2338 -91 
Q 1525 -91 1067 396 
Q 609 884 609 1747 
Q 609 2609 1067 3096 
Q 1525 3584 2338 3584 
Q 2591 3584 2831 3518 
Q 3072 3453 3316 3316 
L 3316 2713 
Q 3088 2916 2858 3006 
Q 2628 3097 2338 3097 
Q 1797 3097 1506 2747 
Q 1216 2397 1216 1747 
Q 1216 1100 1508 748 
Q 1800 397 2338 397 
Q 2638 397 2875 489 
Q 3113 581 3316 775 
L 3316 178 
z
" transform="scale(0.015625)"/>
      <path id="DejaVuSansMono-65" d="M 3475 1894 
L 3475 1613 
L 984 1613 
L 984 1594 
Q 984 1022 1282 709 
Q 1581 397 2125 397 
Q 2400 397 2700 484 
Q 3000 572 3341 750 
L 3341 178 
Q 3013 44 2708 -23 
Q 2403 -91 2119 -91 
Q 1303 -91 843 398 
Q 384 888 384 1747 
Q 384 2584 834 3084 
Q 1284 3584 2034 3584 
Q 2703 3584 3089 3131 
Q 3475 2678 3475 1894 
z
M 2900 2063 
Q 2888 2569 2661 2833 
Q 2434 3097 2009 3097 
Q 1594 3097 1325 2822 
Q 1056 2547 1006 2059 
L 2900 2063 
z
" transform="scale(0.015625)"/>
      <path id="DejaVuSansMono-6e" d="M 3284 2169 
L 3284 0 
L 2706 0 
L 2706 2169 
Q 2706 2641 2540 2862 
Q 2375 3084 2022 3084 
Q 1619 3084 1401 2798 
Q 1184 2513 1184 1978 
L 1184 0 
L 609 0 
L 609 3500 
L 1184 3500 
L 1184 2975 
Q 1338 3275 1600 3429 
Q 1863 3584 2222 3584 
Q 2756 3584 3020 3232 
Q 3284 2881 3284 2169 
z
" transform="scale(0.015625)"/>
      <path id="DejaVuSansMono-64" d="M 2681 3053 
L 2681 4863 
L 3256 4863 
L 3256 0 
L 2681 0 
L 2681 441 
Q 2538 181 2298 45 
Q 2059 -91 1747 -91 
Q 1113 -91 748 401 
Q 384 894 384 1759 
Q 384 2613 750 3098 
Q 1116 3584 1747 3584 
Q 2063 3584 2303 3448 
Q 2544 3313 2681 3053 
z
M 991 1747 
Q 991 1078 1203 737 
Q 1416 397 1831 397 
Q 2247 397 2464 740 
Q 2681 1084 2681 1747 
Q 2681 2413 2464 2755 
Q 2247 3097 1831 3097 
Q 1416 3097 1203 2756 
Q 991 2416 991 1747 
z
" transform="scale(0.015625)"/>
     </defs>
     <use xlink:href="#DejaVuSansMono-54"/>
     <use xlink:href="#DejaVuSansMono-6f" x="60.205078"/>
     <use xlink:href="#DejaVuSansMono-70" x="120.410156"/>
     <use xlink:href="#DejaVuSansMono-6f" x="180.615234"/>
     <use xlink:href="#DejaVuSansMono-6c" x="240.820312"/>
     <use xlink:href="#DejaVuSansMono-6f" x="301.025391"/>
     <use xlink:href="#DejaVuSansMono-67" x="361.230469"/>
     <use xlink:href="#DejaVuSansMono-79" x="421.435547"/>
     <use xlink:href="#DejaVuSansMono-3a" x="481.640625"/>
     <use xlink:href="#DejaVuSansMono-20" x="541.845703"/>
     <use xlink:href="#DejaVuSansMono-61" x="602.050781"/>
     <use xlink:href="#DejaVuSansMono-73" x="662.255859"/>
     <use xlink:href="#DejaVuSansMono-63" x="722.460938"/>
     <use xlink:href="#DejaVuSansMono-65" x="782.666016"/>
     <use xlink:href="#DejaVuSansMono-6e" x="842.871094"/>
     <use xlink:href="#DejaVuSansMono-64" x="903.076172"/>
    </g>
    <!-- Hosts: 8 × 8 GPUs -->
    <g transform="translate(25.571136 54.409698) scale(0.07 -0.07)">
     <defs>
      <path id="DejaVuSansMono-48" d="M 428 4666 
L 1063 4666 
L 1063 2753 
L 2791 2753 
L 2791 4666 
L 3425 4666 
L 3425 0 
L 2791 0 
L 2791 2222 
L 1063 2222 
L 1063 0 
L 428 0 
L 428 4666 
z
" transform="scale(0.015625)"/>
      <path id="DejaVuSansMono-74" d="M 1919 4494 
L 1919 3500 
L 3225 3500 
L 3225 3053 
L 1919 3053 
L 1919 1153 
Q 1919 766 2066 612 
Q 2213 459 2578 459 
L 3225 459 
L 3225 0 
L 2522 0 
Q 1875 0 1609 259 
Q 1344 519 1344 1153 
L 1344 3053 
L 409 3053 
L 409 3500 
L 1344 3500 
L 1344 4494 
L 1919 4494 
z
" transform="scale(0.015625)"/>
      <path id="DejaVuSansMono-38" d="M 1925 2216 
Q 1503 2216 1273 1980 
Q 1044 1744 1044 1313 
Q 1044 881 1276 642 
Q 1509 403 1925 403 
Q 2350 403 2579 639 
Q 2809 875 2809 1313 
Q 2809 1741 2576 1978 
Q 2344 2216 1925 2216 
z
M 1375 2478 
Q 972 2581 745 2862 
Q 519 3144 519 3541 
Q 519 4097 897 4423 
Q 1275 4750 1925 4750 
Q 2578 4750 2956 4423 
Q 3334 4097 3334 3541 
Q 3334 3144 3107 2862 
Q 2881 2581 2478 2478 
Q 2947 2375 3195 2062 
Q 3444 1750 3444 1253 
Q 3444 622 3041 265 
Q 2638 -91 1925 -91 
Q 1213 -91 811 264 
Q 409 619 409 1247 
Q 409 1747 657 2061 
Q 906 2375 1375 2478 
z
M 1147 3481 
Q 1147 3106 1347 2909 
Q 1547 2713 1925 2713 
Q 2306 2713 2506 2909 
Q 2706 3106 2706 3481 
Q 2706 3863 2507 4063 
Q 2309 4263 1925 4263 
Q 1547 4263 1347 4061 
Q 1147 3859 1147 3481 
z
" transform="scale(0.015625)"/>
      <path id="DejaVuSansMono-d7" d="M 469 916 
L 1563 2003 
L 469 3097 
L 831 3463 
L 1925 2369 
L 3022 3463 
L 3384 3097 
L 2291 2003 
L 3378 916 
L 3016 544 
L 1925 1638 
L 838 544 
L 469 916 
z
" transform="scale(0.015625)"/>
      <path id="DejaVuSansMono-47" d="M 3450 384 
Q 3197 150 2880 29 
Q 2563 -91 2194 -91 
Q 1306 -91 812 545 
Q 319 1181 319 2328 
Q 319 3472 819 4111 
Q 1319 4750 2209 4750 
Q 2503 4750 2772 4667 
Q 3041 4584 3291 4416 
L 3291 3769 
Q 3038 4009 2772 4123 
Q 2506 4238 2209 4238 
Q 1594 4238 1286 3761 
Q 978 3284 978 2328 
Q 978 1356 1276 889 
Q 1575 422 2194 422 
Q 2403 422 2561 470 
Q 2719 519 2847 622 
L 2847 1875 
L 2169 1875 
L 2169 2394 
L 3450 2394 
L 3450 384 
z
" transform="scale(0.015625)"/>
      <path id="DejaVuSansMono-50" d="M 1247 4147 
L 1247 2394 
L 1978 2394 
Q 2416 2394 2661 2625 
Q 2906 2856 2906 3272 
Q 2906 3688 2662 3917 
Q 2419 4147 1978 4147 
L 1247 4147 
z
M 616 4666 
L 1978 4666 
Q 2759 4666 3162 4311 
Q 3566 3956 3566 3272 
Q 3566 2581 3164 2228 
Q 2763 1875 1978 1875 
L 1247 1875 
L 1247 0 
L 616 0 
L 616 4666 
z
" transform="scale(0.015625)"/>
      <path id="DejaVuSansMono-55" d="M 459 1791 
L 459 4666 
L 1094 4666 
L 1094 1503 
Q 1094 1163 1112 1017 
Q 1131 872 1178 794 
Q 1278 609 1467 515 
Q 1656 422 1925 422 
Q 2197 422 2384 515 
Q 2572 609 2675 794 
Q 2722 872 2740 1015 
Q 2759 1159 2759 1497 
L 2759 4666 
L 3391 4666 
L 3391 1791 
Q 3391 1075 3302 773 
Q 3213 472 2994 275 
Q 2788 91 2522 0 
Q 2256 -91 1925 -91 
Q 1597 -91 1331 0 
Q 1066 91 856 275 
Q 641 469 550 776 
Q 459 1084 459 1791 
z
" transform="scale(0.015625)"/>
     </defs>
     <use xlink:href="#DejaVuSansMono-48"/>
     <use xlink:href="#DejaVuSansMono-6f" x="60.205078"/>
     <use xlink:href="#DejaVuSansMono-73" x="120.410156"/>
     <use xlink:href="#DejaVuSansMono-74" x="180.615234"/>
     <use xlink:href="#DejaVuSansMono-73" x="240.820312"/>
     <use xlink:href="#DejaVuSansMono-3a" x="301.025391"/>
     <use xlink:href="#DejaVuSansMono-20" x="361.230469"/>
     <use xlink:href="#DejaVuSansMono-38" x="421.435547"/>
     <use xlink:href="#DejaVuSansMono-20" x="481.640625"/>
     <use xlink:href="#DejaVuSansMono-d7" x="541.845703"/>
     <use xlink:href="#DejaVuSansMono-20" x="602.050781"/>
     <use xlink:href="#DejaVuSansMono-38" x="662.255859"/>
     <use xlink:href="#DejaVuSansMono-20" x="722.460938"/>
     <use xlink:href="#DejaVuSansMono-47" x="782.666016"/>
     <use xlink:href="#DejaVuSansMono-50" x="842.871094"/>
     <use xlink:href="#DejaVuSansMono-55" x="903.076172"/>
     <use xlink:href="#DejaVuSansMono-73" x="963.28125"/>
    </g>
    <!-- Local: 3200 Gbps | NIC: 200 Gbps -->
    <g transform="translate(25.571136 62.292792) scale(0.07 -0.07)">
     <defs>
      <path id="DejaVuSansMono-4c" d="M 672 4666 
L 1306 4666 
L 1306 531 
L 3559 531 
L 3559 0 
L 672 0 
L 672 4666 
z
" transform="scale(0.015625)"/>
      <path id="DejaVuSansMono-33" d="M 2425 2497 
Q 2884 2375 3128 2064 
Q 3372 1753 3372 1288 
Q 3372 644 2939 276 
Q 2506 -91 1741 -91 
Q 1419 -91 1084 -31 
Q 750 28 428 141 
L 428 769 
Q 747 603 1056 522 
Q 1366 441 1672 441 
Q 2191 441 2469 675 
Q 2747 909 2747 1350 
Q 2747 1756 2469 1995 
Q 2191 2234 1716 2234 
L 1234 2234 
L 1234 2753 
L 1716 2753 
Q 2150 2753 2394 2943 
Q 2638 3134 2638 3475 
Q 2638 3834 2411 4026 
Q 2184 4219 1766 4219 
Q 1488 4219 1191 4156 
Q 894 4094 569 3969 
L 569 4550 
Q 947 4650 1242 4700 
Q 1538 4750 1766 4750 
Q 2447 4750 2855 4408 
Q 3263 4066 3263 3500 
Q 3263 3116 3048 2859 
Q 2834 2603 2425 2497 
z
" transform="scale(0.015625)"/>
      <path id="DejaVuSansMono-32" d="M 1166 531 
L 3309 531 
L 3309 0 
L 475 0 
L 475 531 
Q 1059 1147 1496 1619 
Q 1934 2091 2100 2284 
Q 2413 2666 2522 2902 
Q 2631 3138 2631 3384 
Q 2631 3775 2401 3997 
Q 2172 4219 1772 4219 
Q 1488 4219 1175 4116 
Q 863 4013 513 3803 
L 513 4441 
Q 834 4594 1145 4672 
Q 1456 4750 1759 4750 
Q 2444 4750 2861 4386 
Q 3278 4022 3278 3431 
Q 3278 3131 3139 2831 
Q 3000 2531 2688 2169 
Q 2513 1966 2180 1606 
Q 1847 1247 1166 531 
z
" transform="scale(0.015625)"/>
      <path id="DejaVuSansMono-30" d="M 1509 2344 
Q 1509 2516 1629 2641 
Q 1750 2766 1919 2766 
Q 2094 2766 2219 2641 
Q 2344 2516 2344 2344 
Q 2344 2169 2220 2047 
Q 2097 1925 1919 1925 
Q 1744 1925 1626 2044 
Q 1509 2163 1509 2344 
z
M 1925 4250 
Q 1484 4250 1267 3775 
Q 1050 3300 1050 2328 
Q 1050 1359 1267 884 
Q 1484 409 1925 409 
Q 2369 409 2586 884 
Q 2803 1359 2803 2328 
Q 2803 3300 2586 3775 
Q 2369 4250 1925 4250 
z
M 1925 4750 
Q 2672 4750 3055 4137 
Q 3438 3525 3438 2328 
Q 3438 1134 3055 521 
Q 2672 -91 1925 -91 
Q 1178 -91 797 521 
Q 416 1134 416 2328 
Q 416 3525 797 4137 
Q 1178 4750 1925 4750 
z
" transform="scale(0.015625)"/>
      <path id="DejaVuSansMono-62" d="M 2869 1747 
Q 2869 2416 2656 2756 
Q 2444 3097 2028 3097 
Q 1609 3097 1393 2755 
Q 1178 2413 1178 1747 
Q 1178 1084 1393 740 
Q 1609 397 2028 397 
Q 2444 397 2656 737 
Q 2869 1078 2869 1747 
z
M 1178 3053 
Q 1316 3309 1558 3446 
Q 1800 3584 2119 3584 
Q 2750 3584 3112 3098 
Q 3475 2613 3475 1759 
Q 3475 894 3111 401 
Q 2747 -91 2113 -91 
Q 1800 -91 1561 45 
Q 1322 181 1178 441 
L 1178 0 
L 603 0 
L 603 4863 
L 1178 4863 
L 1178 3053 
z
" transform="scale(0.015625)"/>
      <path id="DejaVuSansMono-7c" d="M 2194 4891 
L 2194 -1509 
L 1656 -1509 
L 1656 4891 
L 2194 4891 
z
" transform="scale(0.015625)"/>
      <path id="DejaVuSansMono-4e" d="M 434 4666 
L 1234 4666 
L 2809 825 
L 2809 4666 
L 3419 4666 
L 3419 0 
L 2619 0 
L 1044 3841 
L 1044 0 
L 434 0 
L 434 4666 
z
" transform="scale(0.015625)"/>
      <path id="DejaVuSansMono-49" d="M 628 4666 
L 3219 4666 
L 3219 4134 
L 2241 4134 
L 2241 531 
L 3219 531 
L 3219 0 
L 628 0 
L 628 531 
L 1606 531 
L 1606 4134 
L 628 4134 
L 628 4666 
z
" transform="scale(0.015625)"/>
      <path id="DejaVuSansMono-43" d="M 3353 166 
Q 3113 38 2859 -26 
Q 2606 -91 2322 -91 
Q 1425 -91 929 543 
Q 434 1178 434 2328 
Q 434 3472 932 4111 
Q 1431 4750 2322 4750 
Q 2606 4750 2859 4686 
Q 3113 4622 3353 4494 
L 3353 3847 
Q 3122 4038 2856 4138 
Q 2591 4238 2322 4238 
Q 1706 4238 1400 3763 
Q 1094 3288 1094 2328 
Q 1094 1372 1400 897 
Q 1706 422 2322 422 
Q 2597 422 2861 522 
Q 3125 622 3353 813 
L 3353 166 
z
" transform="scale(0.015625)"/>
     </defs>
     <use xlink:href="#DejaVuSansMono-4c"/>
     <use xlink:href="#DejaVuSansMono-6f" x="60.205078"/>
     <use xlink:href="#DejaVuSansMono-63" x="120.410156"/>
     <use xlink:href="#DejaVuSansMono-61" x="180.615234"/>
     <use xlink:href="#DejaVuSansMono-6c" x="240.820312"/>
     <use xlink:href="#DejaVuSansMono-3a" x="301.025391"/>
     <use xlink:href="#DejaVuSansMono-20" x="361.230469"/>
     <use xlink:href="#DejaVuSansMono-33" x="421.435547"/>
     <use xlink:href="#DejaVuSansMono-32" x="481.640625"/>
     <use xlink:href="#DejaVuSansMono-30" x="541.845703"/>
     <use xlink:href="#DejaVuSansMono-30" x="602.050781"/>
     <use xlink:href="#DejaVuSansMono-20" x="662.255859"/>
     <use xlink:href="#DejaVuSansMono-47" x="722.460938"/>
     <use xlink:href="#DejaVuSansMono-62" x="782.666016"/>
     <use xlink:href="#DejaVuSansMono-70" x="842.871094"/>
     <use xlink:href="#DejaVuSansMono-73" x="903.076172"/>
     <use xlink:href="#DejaVuSansMono-20" x="963.28125"/>
     <use xlink:href="#DejaVuSansMono-7c" x="1023.486328"/>
     <use xlink:href="#DejaVuSansMono-20" x="1083.691406"/>
     <use xlink:href="#DejaVuSansMono-4e" x="1143.896484"/>
     <use xlink:href="#DejaVuSansMono-49" x="1204.101562"/>
     <use xlink:href="#DejaVuSansMono-43" x="1264.306641"/>
     <use xlink:href="#DejaVuSansMono-3a" x="1324.511719"/>
     <use xlink:href="#DejaVuSansMono-20" x="1384.716797"/>
     <use xlink:href="#DejaVuSansMono-32" x="1444.921875"/>
     <use xlink:href="#DejaVuSansMono-30" x="1505.126953"/>
     <use xlink:href="#DejaVuSansMono-30" x="1565.332031"/>
     <use xlink:href="#DejaVuSansMono-20" x="1625.537109"/>
     <use xlink:href="#DejaVuSansMono-47" x="1685.742188"/>
     <use xlink:href="#DejaVuSansMono-62" x="1745.947266"/>
     <use xlink:href="#DejaVuSansMono-70" x="1806.152344"/>
     <use xlink:href="#DejaVuSansMono-73" x="1866.357422"/>
    </g>
    <!-- SW L0: ×8 @ 400 Gbps (3μs) -->
    <g transform="translate(25.571136 70.370573) scale(0.07 -0.07)">
     <defs>
      <path id="DejaVuSansMono-53" d="M 3163 4506 
L 3163 3866 
Q 2875 4050 2586 4144 
Q 2297 4238 2003 4238 
Q 1556 4238 1297 4030 
Q 1038 3822 1038 3469 
Q 1038 3159 1208 2996 
Q 1378 2834 1844 2725 
L 2175 2650 
Q 2831 2497 3131 2169 
Q 3431 1841 3431 1275 
Q 3431 609 3018 259 
Q 2606 -91 1819 -91 
Q 1491 -91 1159 -20 
Q 828 50 494 191 
L 494 863 
Q 853 634 1173 528 
Q 1494 422 1819 422 
Q 2297 422 2562 636 
Q 2828 850 2828 1234 
Q 2828 1584 2645 1768 
Q 2463 1953 2009 2053 
L 1672 2131 
Q 1022 2278 728 2575 
Q 434 2872 434 3372 
Q 434 3997 854 4373 
Q 1275 4750 1972 4750 
Q 2241 4750 2537 4689 
Q 2834 4628 3163 4506 
z
" transform="scale(0.015625)"/>
      <path id="DejaVuSansMono-57" d="M 0 4666 
L 616 4666 
L 1063 878 
L 1594 3384 
L 2253 3384 
L 2791 872 
L 3238 4666 
L 3853 4666 
L 3156 0 
L 2559 0 
L 1925 2772 
L 1294 0 
L 697 0 
L 0 4666 
z
" transform="scale(0.015625)"/>
      <path id="DejaVuSansMono-40" d="M 3244 1703 
Q 3244 2106 3044 2348 
Q 2844 2591 2509 2591 
Q 2175 2591 1973 2348 
Q 1772 2106 1772 1703 
Q 1772 1297 1973 1055 
Q 2175 813 2509 813 
Q 2844 813 3044 1055 
Q 3244 1297 3244 1703 
z
M 3681 422 
L 3231 422 
L 3231 769 
Q 3116 572 2911 465 
Q 2706 359 2450 359 
Q 1947 359 1617 737 
Q 1288 1116 1288 1703 
Q 1288 2291 1617 2669 
Q 1947 3047 2450 3047 
Q 2700 3047 2909 2937 
Q 3119 2828 3231 2638 
L 3231 2834 
Q 3231 3322 2956 3619 
Q 2681 3916 2228 3916 
Q 1459 3916 1004 3317 
Q 550 2719 550 1697 
Q 550 669 1065 59 
Q 1581 -550 2438 -550 
Q 2606 -550 2775 -519 
Q 2944 -488 3122 -422 
L 3272 -844 
Q 3075 -922 2883 -959 
Q 2691 -997 2509 -997 
Q 1394 -997 739 -269 
Q 84 459 84 1697 
Q 84 2916 671 3637 
Q 1259 4359 2247 4359 
Q 2900 4359 3290 3943 
Q 3681 3528 3681 2828 
L 3681 422 
z
" transform="scale(0.015625)"/>
      <path id="DejaVuSansMono-34" d="M 2297 4091 
L 825 1625 
L 2297 1625 
L 2297 4091 
z
M 2194 4666 
L 2925 4666 
L 2925 1625 
L 3547 1625 
L 3547 1113 
L 2925 1113 
L 2925 0 
L 2297 0 
L 2297 1113 
L 319 1113 
L 319 1709 
L 2194 4666 
z
" transform="scale(0.015625)"/>
      <path id="DejaVuSansMono-28" d="M 2766 4856 
Q 2350 4144 2145 3436 
Q 1941 2728 1941 2009 
Q 1941 1294 2145 584 
Q 2350 -125 2766 -844 
L 2266 -844 
Q 1794 -100 1562 604 
Q 1331 1309 1331 2009 
Q 1331 2706 1562 3412 
Q 1794 4119 2266 4856 
L 2766 4856 
z
" transform="scale(0.015625)"/>
      <path id="DejaVuSansMono-3bc" d="M 609 -1338 
L 609 3500 
L 1184 3500 
L 1184 1325 
Q 1184 881 1371 645 
Q 1559 409 1906 409 
Q 2303 409 2504 675 
Q 2706 941 2706 1459 
L 2706 3500 
L 3284 3500 
L 3284 800 
Q 3284 616 3334 528 
Q 3384 441 3488 441 
Q 3516 441 3561 456 
Q 3606 472 3694 513 
L 3694 50 
Q 3575 -22 3469 -56 
Q 3363 -91 3256 -91 
Q 3063 -91 2945 32 
Q 2828 156 2791 403 
Q 2647 153 2439 31 
Q 2231 -91 1953 -91 
Q 1666 -91 1467 28 
Q 1269 147 1131 397 
L 1131 -1338 
L 609 -1338 
z
" transform="scale(0.015625)"/>
      <path id="DejaVuSansMono-29" d="M 1088 4856 
L 1588 4856 
Q 2059 4119 2290 3412 
Q 2522 2706 2522 2009 
Q 2522 1306 2290 600 
Q 2059 -106 1588 -844 
L 1088 -844 
Q 1503 -119 1708 590 
Q 1913 1300 1913 2009 
Q 1913 2722 1708 3431 
Q 1503 4141 1088 4856 
z
" transform="scale(0.015625)"/>
     </defs>
     <use xlink:href="#DejaVuSansMono-53"/>
     <use xlink:href="#DejaVuSansMono-57" x="60.205078"/>
     <use xlink:href="#DejaVuSansMono-20" x="120.410156"/>
     <use xlink:href="#DejaVuSansMono-4c" x="180.615234"/>
     <use xlink:href="#DejaVuSansMono-30" x="240.820312"/>
     <use xlink:href="#DejaVuSansMono-3a" x="301.025391"/>
     <use xlink:href="#DejaVuSansMono-20" x="361.230469"/>
     <use xlink:href="#DejaVuSansMono-d7" x="421.435547"/>
     <use xlink:href="#DejaVuSansMono-38" x="481.640625"/>
     <use xlink:href="#DejaVuSansMono-20" x="541.845703"/>
     <use xlink:href="#DejaVuSansMono-40" x="602.050781"/>
     <use xlink:href="#DejaVuSansMono-20" x="662.255859"/>
     <use xlink:href="#DejaVuSansMono-34" x="722.460938"/>
     <use xlink:href="#DejaVuSansMono-30" x="782.666016"/>
     <use xlink:href="#DejaVuSansMono-30" x="842.871094"/>
     <use xlink:href="#DejaVuSansMono-20" x="903.076172"/>
     <use xlink:href="#DejaVuSansMono-47" x="963.28125"/>
     <use xlink:href="#DejaVuSansMono-62" x="1023.486328"/>
     <use xlink:href="#DejaVuSansMono-70" x="1083.691406"/>
     <use xlink:href="#DejaVuSansMono-73" x="1143.896484"/>
     <use xlink:href="#DejaVuSansMono-20" x="1204.101562"/>
     <use xlink:href="#DejaVuSansMono-28" x="1264.306641"/>
     <use xlink:href="#DejaVuSansMono-33" x="1324.511719"/>
     <use xlink:href="#DejaVuSansMono-3bc" x="1384.716797"/>
     <use xlink:href="#DejaVuSansMono-73" x="1444.921875"/>
     <use xlink:href="#DejaVuSansMono-29" x="1505.126953"/>
    </g>
    <!-- SW L1: ×4 @ 800 Gbps (5μs) -->
    <g transform="translate(25.571136 78.261323) scale(0.07 -0.07)">
     <defs>
      <path id="DejaVuSansMono-31" d="M 844 531 
L 1825 531 
L 1825 4097 
L 769 3859 
L 769 4434 
L 1819 4666 
L 2450 4666 
L 2450 531 
L 3419 531 
L 3419 0 
L 844 0 
L 844 531 
z
" transform="scale(0.015625)"/>
      <path id="DejaVuSansMono-35" d="M 647 4666 
L 3009 4666 
L 3009 4134 
L 1222 4134 
L 1222 2988 
Q 1356 3038 1492 3061 
Q 1628 3084 1766 3084 
Q 2491 3084 2916 2656 
Q 3341 2228 3341 1497 
Q 3341 759 2895 334 
Q 2450 -91 1678 -91 
Q 1306 -91 998 -41 
Q 691 9 447 109 
L 447 750 
Q 734 594 1025 517 
Q 1316 441 1619 441 
Q 2141 441 2423 716 
Q 2706 991 2706 1497 
Q 2706 1997 2414 2275 
Q 2122 2553 1600 2553 
Q 1347 2553 1106 2495 
Q 866 2438 647 2322 
L 647 4666 
z
" transform="scale(0.015625)"/>
     </defs>
     <use xlink:href="#DejaVuSansMono-53"/>
     <use xlink:href="#DejaVuSansMono-57" x="60.205078"/>
     <use xlink:href="#DejaVuSansMono-20" x="120.410156"/>
     <use xlink:href="#DejaVuSansMono-4c" x="180.615234"/>
     <use xlink:href="#DejaVuSansMono-31" x="240.820312"/>
     <use xlink:href="#DejaVuSansMono-3a" x="301.025391"/>
     <use xlink:href="#DejaVuSansMono-20" x="361.230469"/>
     <use xlink:href="#DejaVuSansMono-d7" x="421.435547"/>
     <use xlink:href="#DejaVuSansMono-34" x="481.640625"/>
     <use xlink:href="#DejaVuSansMono-20" x="541.845703"/>
     <use xlink:href="#DejaVuSansMono-40" x="602.050781"/>
     <use xlink:href="#DejaVuSansMono-20" x="662.255859"/>
     <use xlink:href="#DejaVuSansMono-38" x="722.460938"/>
     <use xlink:href="#DejaVuSansMono-30" x="782.666016"/>
     <use xlink:href="#DejaVuSansMono-30" x="842.871094"/>
     <use xlink:href="#DejaVuSansMono-20" x="903.076172"/>
     <use xlink:href="#DejaVuSansMono-47" x="963.28125"/>
     <use xlink:href="#DejaVuSansMono-62" x="1023.486328"/>
     <use xlink:href="#DejaVuSansMono-70" x="1083.691406"/>
     <use xlink:href="#DejaVuSansMono-73" x="1143.896484"/>
     <use xlink:href="#DejaVuSansMono-20" x="1204.101562"/>
     <use xlink:href="#DejaVuSansMono-28" x="1264.306641"/>
     <use xlink:href="#DejaVuSansMono-35" x="1324.511719"/>
     <use xlink:href="#DejaVuSansMono-3bc" x="1384.716797"/>
     <use xlink:href="#DejaVuSansMono-73" x="1444.921875"/>
     <use xlink:href="#DejaVuSansMono-29" x="1505.126953"/>
    </g>
   </g>
   <g id="text_42">
    <!-- Network Topology — ascend -->
    <g transform="translate(383.001525 16.75125) scale(0.12 -0.12)">
     <defs>
      <path id="STHeiti-65" d="M 3347 1485 
L 3718 1293 
Q 3168 269 2093 269 
Q 1325 269 825 797 
Q 326 1325 326 2067 
Q 326 2810 828 3341 
Q 1331 3872 2070 3872 
Q 2810 3872 3312 3379 
Q 3814 2886 3834 2035 
L 774 2035 
Q 794 1421 1162 1046 
Q 1530 672 2054 672 
Q 2918 672 3347 1485 
z
M 3347 2413 
Q 3258 2899 2899 3174 
Q 2541 3450 2074 3450 
Q 1114 3450 819 2413 
L 3347 2413 
z
" transform="scale(0.015625)"/>
      <path id="STHeiti-74" d="M 1312 922 
Q 1312 749 1357 717 
Q 1402 685 1587 685 
L 1850 685 
L 1850 314 
Q 1581 269 1427 269 
Q 1139 269 1004 409 
Q 870 550 870 851 
L 870 3411 
L 269 3411 
L 269 3782 
L 870 3782 
L 870 5094 
L 1312 5094 
L 1312 3782 
L 2003 3782 
L 2003 3411 
L 1312 3411 
L 1312 922 
z
" transform="scale(0.015625)"/>
      <path id="STHeiti-77" d="M 26 3782 
L 480 3782 
L 1517 1203 
L 2611 3782 
L 2688 3782 
L 3776 1203 
L 4832 3782 
L 5293 3782 
L 3814 269 
L 3731 269 
L 2650 2816 
L 1562 269 
L 1478 269 
L 26 3782 
z
" transform="scale(0.015625)"/>
      <path id="STHeiti-6f" d="M 326 2061 
Q 326 2810 841 3341 
Q 1357 3872 2096 3872 
Q 2835 3872 3350 3341 
Q 3866 2810 3866 2067 
Q 3866 1325 3357 797 
Q 2848 269 2099 269 
Q 1350 269 838 797 
Q 326 1325 326 2061 
z
M 3424 2054 
Q 3424 2618 3030 3030 
Q 2637 3443 2096 3443 
Q 1555 3443 1164 3030 
Q 774 2618 774 2048 
Q 774 1478 1152 1081 
Q 1530 685 2090 685 
Q 2650 685 3037 1085 
Q 3424 1485 3424 2054 
z
" transform="scale(0.015625)"/>
      <path id="STHeiti-72" d="M 320 3782 
L 768 3782 
L 768 3290 
Q 947 3590 1116 3731 
Q 1286 3872 1494 3872 
Q 1702 3872 1914 3757 
L 1683 3386 
Q 1587 3443 1485 3443 
Q 1286 3443 1110 3238 
Q 934 3034 851 2710 
Q 768 2387 768 1536 
L 768 384 
L 320 384 
L 320 3782 
z
" transform="scale(0.015625)"/>
      <path id="STHeiti-6b" d="M 422 5094 
L 864 5094 
L 864 2413 
L 2432 3782 
L 3078 3782 
L 1210 2163 
L 3187 384 
L 2566 384 
L 864 1914 
L 864 384 
L 422 384 
L 422 5094 
z
" transform="scale(0.015625)"/>
      <path id="STHeiti-20" transform="scale(0.015625)"/>
      <path id="STHeiti-54" d="M 102 4531 
L 102 4979 
L 2624 4979 
L 2624 4531 
L 1600 4531 
L 1600 384 
L 1133 384 
L 1133 4531 
L 102 4531 
z
" transform="scale(0.015625)"/>
      <path id="STHeiti-70" d="M 493 3782 
L 928 3782 
L 928 3162 
Q 1446 3872 2278 3872 
Q 2995 3872 3513 3344 
Q 4032 2816 4032 2073 
Q 4032 1331 3520 800 
Q 3008 269 2291 269 
Q 1510 269 928 966 
L 928 -858 
L 493 -858 
L 493 3782 
z
M 3597 2067 
Q 3597 2637 3203 3043 
Q 2810 3450 2240 3450 
Q 1670 3450 1283 3050 
Q 896 2650 896 2061 
Q 896 1472 1293 1072 
Q 1690 672 2243 672 
Q 2797 672 3197 1078 
Q 3597 1485 3597 2067 
z
" transform="scale(0.015625)"/>
      <path id="STHeiti-6c" d="M 422 5094 
L 858 5094 
L 858 384 
L 422 384 
L 422 5094 
z
" transform="scale(0.015625)"/>
      <path id="STHeiti-67" d="M 3462 3782 
L 3904 3782 
L 3904 1158 
Q 3904 461 3782 134 
Q 3661 -192 3430 -409 
Q 3200 -627 2873 -742 
Q 2547 -858 2157 -858 
Q 826 -858 403 205 
L 877 205 
Q 1248 -461 2138 -461 
Q 2566 -461 2883 -294 
Q 3200 -128 3331 131 
Q 3462 390 3462 941 
L 3462 1088 
Q 3200 762 2841 602 
Q 2483 442 2086 442 
Q 1344 442 851 947 
Q 358 1453 358 2138 
Q 358 2848 883 3360 
Q 1408 3872 2153 3872 
Q 2899 3872 3462 3194 
L 3462 3782 
z
M 3482 2138 
Q 3482 2694 3104 3072 
Q 2726 3450 2170 3450 
Q 1581 3450 1190 3043 
Q 800 2637 800 2112 
Q 800 1587 1177 1219 
Q 1555 851 2144 851 
Q 2733 851 3107 1209 
Q 3482 1568 3482 2138 
z
" transform="scale(0.015625)"/>
      <path id="STHeiti-79" d="M 122 3782 
L 582 3782 
L 1754 1165 
L 2886 3782 
L 3354 3782 
L 1325 -858 
L 864 -858 
L 1517 640 
L 122 3782 
z
" transform="scale(0.015625)"/>
      <path id="STHeiti-2014" d="M 6400 2112 
L 0 2112 
L 0 2458 
L 6400 2458 
L 6400 2112 
z
" transform="scale(0.015625)"/>
      <path id="STHeiti-61" d="M 3872 3782 
L 3872 384 
L 3443 384 
L 3443 966 
Q 2861 269 2112 269 
Q 1363 269 848 803 
Q 333 1338 333 2077 
Q 333 2816 851 3344 
Q 1370 3872 2093 3872 
Q 2925 3872 3443 3162 
L 3443 3782 
L 3872 3782 
z
M 3469 2067 
Q 3469 2650 3078 3050 
Q 2688 3450 2121 3450 
Q 1555 3450 1164 3037 
Q 774 2624 774 2061 
Q 774 1498 1171 1085 
Q 1568 672 2121 672 
Q 2675 672 3072 1069 
Q 3469 1466 3469 2067 
z
" transform="scale(0.015625)"/>
      <path id="STHeiti-73" d="M 2195 3411 
L 1914 3123 
Q 1562 3462 1229 3462 
Q 1011 3462 864 3324 
Q 717 3187 717 2985 
Q 717 2784 873 2640 
Q 1030 2496 1414 2294 
Q 1798 2093 2000 1859 
Q 2202 1626 2202 1286 
Q 2202 858 1904 563 
Q 1606 269 1171 269 
Q 883 269 617 397 
Q 352 525 166 755 
L 442 1062 
Q 781 685 1152 685 
Q 1414 685 1600 857 
Q 1786 1030 1786 1264 
Q 1786 1498 1622 1648 
Q 1459 1798 1078 1990 
Q 698 2182 509 2409 
Q 320 2637 320 2998 
Q 320 3360 585 3616 
Q 851 3872 1289 3872 
Q 1728 3872 2195 3411 
z
" transform="scale(0.015625)"/>
      <path id="STHeiti-63" d="M 4038 3078 
L 3693 2861 
Q 3245 3456 2464 3456 
Q 1850 3456 1434 3062 
Q 1018 2669 1018 2086 
Q 1018 1504 1427 1088 
Q 1837 672 2464 672 
Q 3213 672 3693 1267 
L 4038 1037 
Q 3782 666 3350 467 
Q 2918 269 2419 269 
Q 1632 269 1104 787 
Q 576 1306 576 2054 
Q 576 2803 1110 3337 
Q 1645 3872 2483 3872 
Q 2976 3872 3395 3661 
Q 3814 3450 4038 3078 
z
" transform="scale(0.015625)"/>
      <path id="STHeiti-6e" d="M 486 3782 
L 928 3782 
L 928 3174 
Q 1453 3872 2202 3872 
Q 2586 3872 2893 3664 
Q 3200 3456 3328 3120 
Q 3456 2784 3456 2131 
L 3456 384 
L 3021 384 
L 3021 2003 
Q 3021 2598 2966 2809 
Q 2912 3021 2800 3168 
Q 2688 3315 2515 3392 
Q 2342 3469 2096 3469 
Q 1850 3469 1613 3347 
Q 1376 3226 1209 3008 
Q 1043 2790 985 2560 
Q 928 2330 928 1632 
L 928 384 
L 486 384 
L 486 3782 
z
" transform="scale(0.015625)"/>
      <path id="STHeiti-64" d="M 3878 5094 
L 3878 384 
L 3450 384 
L 3450 966 
Q 2867 269 2115 269 
Q 1363 269 851 800 
Q 339 1331 339 2073 
Q 339 2816 857 3344 
Q 1376 3872 2099 3872 
Q 2931 3872 3450 3162 
L 3450 5094 
L 3878 5094 
z
M 3475 2061 
Q 3475 2643 3091 3046 
Q 2707 3450 2131 3450 
Q 1555 3450 1168 3037 
Q 781 2624 781 2064 
Q 781 1504 1177 1088 
Q 1574 672 2115 672 
Q 2656 672 3065 1065 
Q 3475 1459 3475 2061 
z
" transform="scale(0.015625)"/>
     </defs>
     <use xlink:href="#STHeiti-4e"/>
     <use xlink:href="#STHeiti-65" x="73.999985"/>
     <use xlink:href="#STHeiti-74" x="138.999969"/>
     <use xlink:href="#STHeiti-77" x="172.899963"/>
     <use xlink:href="#STHeiti-6f" x="255.999954"/>
     <use xlink:href="#STHeiti-72" x="321.499939"/>
     <use xlink:href="#STHeiti-6b" x="351.59993"/>
     <use xlink:href="#STHeiti-20" x="401.799927"/>
     <use xlink:href="#STHeiti-54" x="426.799911"/>
     <use xlink:href="#STHeiti-6f" x="469.399902"/>
     <use xlink:href="#STHeiti-70" x="534.899887"/>
     <use xlink:href="#STHeiti-6f" x="603.099869"/>
     <use xlink:href="#STHeiti-6c" x="668.599854"/>
     <use xlink:href="#STHeiti-6f" x="688.599838"/>
     <use xlink:href="#STHeiti-67" x="754.099823"/>
     <use xlink:href="#STHeiti-79" x="821.399811"/>
     <use xlink:href="#STHeiti-20" x="874.999802"/>
     <use xlink:href="#STHeiti-2014" x="899.999786"/>
     <use xlink:href="#STHeiti-20" x="999.999771"/>
     <use xlink:href="#STHeiti-61" x="1024.999756"/>
     <use xlink:href="#STHeiti-73" x="1093.299744"/>
     <use xlink:href="#STHeiti-63" x="1132.099731"/>
     <use xlink:href="#STHeiti-65" x="1196.799728"/>
     <use xlink:href="#STHeiti-6e" x="1261.799713"/>
     <use xlink:href="#STHeiti-64" x="1322.799698"/>
    </g>
   </g>
   <g id="line2d_25">
    <defs>
     <path id="mf36706edbf" d="M -2.5 2.5 
L 2.5 2.5 
L 2.5 -2.5 
L -2.5 -2.5 
z
" style="stroke: #4477aa; stroke-linejoin: miter"/>
    </defs>
    <g clip-path="url(#p8d38780f54)">
     <use xlink:href="#mf36706edbf" x="91.40104" y="404.462631" style="fill: #4477aa; stroke: #4477aa; stroke-linejoin: miter"/>
    </g>
   </g>
   <g id="line2d_26">
    <g clip-path="url(#p8d38780f54)">
     <use xlink:href="#mf36706edbf" x="103.138155" y="404.462631" style="fill: #4477aa; stroke: #4477aa; stroke-linejoin: miter"/>
    </g>
   </g>
   <g id="line2d_27">
    <g clip-path="url(#p8d38780f54)">
     <use xlink:href="#mf36706edbf" x="114.875269" y="404.462631" style="fill: #4477aa; stroke: #4477aa; stroke-linejoin: miter"/>
    </g>
   </g>
   <g id="line2d_28">
    <g clip-path="url(#p8d38780f54)">
     <use xlink:href="#mf36706edbf" x="126.612384" y="404.462631" style="fill: #4477aa; stroke: #4477aa; stroke-linejoin: miter"/>
    </g>
   </g>
   <g id="line2d_29">
    <g clip-path="url(#p8d38780f54)">
     <use xlink:href="#mf36706edbf" x="193.462907" y="404.462631" style="fill: #4477aa; stroke: #4477aa; stroke-linejoin: miter"/>
    </g>
   </g>
   <g id="line2d_30">
    <g clip-path="url(#p8d38780f54)">
     <use xlink:href="#mf36706edbf" x="205.200021" y="404.462631" style="fill: #4477aa; stroke: #4477aa; stroke-linejoin: miter"/>
    </g>
   </g>
   <g id="line2d_31">
    <g clip-path="url(#p8d38780f54)">
     <use xlink:href="#mf36706edbf" x="216.937136" y="404.462631" style="fill: #4477aa; stroke: #4477aa; stroke-linejoin: miter"/>
    </g>
   </g>
   <g id="line2d_32">
    <g clip-path="url(#p8d38780f54)">
     <use xlink:href="#mf36706edbf" x="228.674251" y="404.462631" style="fill: #4477aa; stroke: #4477aa; stroke-linejoin: miter"/>
    </g>
   </g>
   <g id="line2d_33">
    <g clip-path="url(#p8d38780f54)">
     <use xlink:href="#mf36706edbf" x="295.524773" y="404.462631" style="fill: #4477aa; stroke: #4477aa; stroke-linejoin: miter"/>
    </g>
   </g>
   <g id="line2d_34">
    <g clip-path="url(#p8d38780f54)">
     <use xlink:href="#mf36706edbf" x="307.261888" y="404.462631" style="fill: #4477aa; stroke: #4477aa; stroke-linejoin: miter"/>
    </g>
   </g>
   <g id="line2d_35">
    <g clip-path="url(#p8d38780f54)">
     <use xlink:href="#mf36706edbf" x="318.999003" y="404.462631" style="fill: #4477aa; stroke: #4477aa; stroke-linejoin: miter"/>
    </g>
   </g>
   <g id="line2d_36">
    <g clip-path="url(#p8d38780f54)">
     <use xlink:href="#mf36706edbf" x="330.736117" y="404.462631" style="fill: #4477aa; stroke: #4477aa; stroke-linejoin: miter"/>
    </g>
   </g>
   <g id="line2d_37">
    <g clip-path="url(#p8d38780f54)">
     <use xlink:href="#mf36706edbf" x="397.58664" y="404.462631" style="fill: #4477aa; stroke: #4477aa; stroke-linejoin: miter"/>
    </g>
   </g>
   <g id="line2d_38">
    <g clip-path="url(#p8d38780f54)">
     <use xlink:href="#mf36706edbf" x="409.323755" y="404.462631" style="fill: #4477aa; stroke: #4477aa; stroke-linejoin: miter"/>
    </g>
   </g>
   <g id="line2d_39">
    <g clip-path="url(#p8d38780f54)">
     <use xlink:href="#mf36706edbf" x="421.060869" y="404.462631" style="fill: #4477aa; stroke: #4477aa; stroke-linejoin: miter"/>
    </g>
   </g>
   <g id="line2d_40">
    <g clip-path="url(#p8d38780f54)">
     <use xlink:href="#mf36706edbf" x="432.797984" y="404.462631" style="fill: #4477aa; stroke: #4477aa; stroke-linejoin: miter"/>
    </g>
   </g>
   <g id="line2d_41">
    <g clip-path="url(#p8d38780f54)">
     <use xlink:href="#mf36706edbf" x="499.648507" y="404.462631" style="fill: #4477aa; stroke: #4477aa; stroke-linejoin: miter"/>
    </g>
   </g>
   <g id="line2d_42">
    <g clip-path="url(#p8d38780f54)">
     <use xlink:href="#mf36706edbf" x="511.385621" y="404.462631" style="fill: #4477aa; stroke: #4477aa; stroke-linejoin: miter"/>
    </g>
   </g>
   <g id="line2d_43">
    <g clip-path="url(#p8d38780f54)">
     <use xlink:href="#mf36706edbf" x="523.122736" y="404.462631" style="fill: #4477aa; stroke: #4477aa; stroke-linejoin: miter"/>
    </g>
   </g>
   <g id="line2d_44">
    <g clip-path="url(#p8d38780f54)">
     <use xlink:href="#mf36706edbf" x="534.859851" y="404.462631" style="fill: #4477aa; stroke: #4477aa; stroke-linejoin: miter"/>
    </g>
   </g>
   <g id="line2d_45">
    <g clip-path="url(#p8d38780f54)">
     <use xlink:href="#mf36706edbf" x="601.710373" y="404.462631" style="fill: #4477aa; stroke: #4477aa; stroke-linejoin: miter"/>
    </g>
   </g>
   <g id="line2d_46">
    <g clip-path="url(#p8d38780f54)">
     <use xlink:href="#mf36706edbf" x="613.447488" y="404.462631" style="fill: #4477aa; stroke: #4477aa; stroke-linejoin: miter"/>
    </g>
   </g>
   <g id="line2d_47">
    <g clip-path="url(#p8d38780f54)">
     <use xlink:href="#mf36706edbf" x="625.184603" y="404.462631" style="fill: #4477aa; stroke: #4477aa; stroke-linejoin: miter"/>
    </g>
   </g>
   <g id="line2d_48">
    <g clip-path="url(#p8d38780f54)">
     <use xlink:href="#mf36706edbf" x="636.921717" y="404.462631" style="fill: #4477aa; stroke: #4477aa; stroke-linejoin: miter"/>
    </g>
   </g>
   <g id="line2d_49">
    <g clip-path="url(#p8d38780f54)">
     <use xlink:href="#mf36706edbf" x="703.77224" y="404.462631" style="fill: #4477aa; stroke: #4477aa; stroke-linejoin: miter"/>
    </g>
   </g>
   <g id="line2d_50">
    <g clip-path="url(#p8d38780f54)">
     <use xlink:href="#mf36706edbf" x="715.509355" y="404.462631" style="fill: #4477aa; stroke: #4477aa; stroke-linejoin: miter"/>
    </g>
   </g>
   <g id="line2d_51">
    <g clip-path="url(#p8d38780f54)">
     <use xlink:href="#mf36706edbf" x="727.246469" y="404.462631" style="fill: #4477aa; stroke: #4477aa; stroke-linejoin: miter"/>
    </g>
   </g>
   <g id="line2d_52">
    <g clip-path="url(#p8d38780f54)">
     <use xlink:href="#mf36706edbf" x="738.983584" y="404.462631" style="fill: #4477aa; stroke: #4477aa; stroke-linejoin: miter"/>
    </g>
   </g>
   <g id="line2d_53">
    <g clip-path="url(#p8d38780f54)">
     <use xlink:href="#mf36706edbf" x="805.834107" y="404.462631" style="fill: #4477aa; stroke: #4477aa; stroke-linejoin: miter"/>
    </g>
   </g>
   <g id="line2d_54">
    <g clip-path="url(#p8d38780f54)">
     <use xlink:href="#mf36706edbf" x="817.571221" y="404.462631" style="fill: #4477aa; stroke: #4477aa; stroke-linejoin: miter"/>
    </g>
   </g>
   <g id="line2d_55">
    <g clip-path="url(#p8d38780f54)">
     <use xlink:href="#mf36706edbf" x="829.308336" y="404.462631" style="fill: #4477aa; stroke: #4477aa; stroke-linejoin: miter"/>
    </g>
   </g>
   <g id="line2d_56">
    <g clip-path="url(#p8d38780f54)">
     <use xlink:href="#mf36706edbf" x="841.045451" y="404.462631" style="fill: #4477aa; stroke: #4477aa; stroke-linejoin: miter"/>
    </g>
   </g>
   <g id="line2d_57">
    <defs>
     <path id="mba0417370e" d="M -0 5.656854 
L 5.656854 0 
L 0 -5.656854 
L -5.656854 -0 
z
" style="stroke: #333333; stroke-width: 0.8; stroke-linejoin: miter"/>
    </defs>
    <g clip-path="url(#p8d38780f54)">
     <use xlink:href="#mba0417370e" x="109.261867" y="297.297671" style="fill: #ddaa33; stroke: #333333; stroke-width: 0.8; stroke-linejoin: miter"/>
    </g>
   </g>
   <g id="line2d_58">
    <g clip-path="url(#p8d38780f54)">
     <use xlink:href="#mba0417370e" x="211.323733" y="297.297671" style="fill: #ddaa33; stroke: #333333; stroke-width: 0.8; stroke-linejoin: miter"/>
    </g>
   </g>
   <g id="line2d_59">
    <g clip-path="url(#p8d38780f54)">
     <use xlink:href="#mba0417370e" x="313.3856" y="297.297671" style="fill: #ddaa33; stroke: #333333; stroke-width: 0.8; stroke-linejoin: miter"/>
    </g>
   </g>
   <g id="line2d_60">
    <g clip-path="url(#p8d38780f54)">
     <use xlink:href="#mba0417370e" x="415.447467" y="297.297671" style="fill: #ddaa33; stroke: #333333; stroke-width: 0.8; stroke-linejoin: miter"/>
    </g>
   </g>
   <g id="line2d_61">
    <g clip-path="url(#p8d38780f54)">
     <use xlink:href="#mba0417370e" x="517.509333" y="297.297671" style="fill: #ddaa33; stroke: #333333; stroke-width: 0.8; stroke-linejoin: miter"/>
    </g>
   </g>
   <g id="line2d_62">
    <g clip-path="url(#p8d38780f54)">
     <use xlink:href="#mba0417370e" x="619.5712" y="297.297671" style="fill: #ddaa33; stroke: #333333; stroke-width: 0.8; stroke-linejoin: miter"/>
    </g>
   </g>
   <g id="line2d_63">
    <g clip-path="url(#p8d38780f54)">
     <use xlink:href="#mba0417370e" x="721.633067" y="297.297671" style="fill: #ddaa33; stroke: #333333; stroke-width: 0.8; stroke-linejoin: miter"/>
    </g>
   </g>
   <g id="line2d_64">
    <g clip-path="url(#p8d38780f54)">
     <use xlink:href="#mba0417370e" x="823.694933" y="297.297671" style="fill: #ddaa33; stroke: #333333; stroke-width: 0.8; stroke-linejoin: miter"/>
    </g>
   </g>
   <g id="line2d_65">
    <defs>
     <path id="m3918c5f952" d="M -5 5 
L 5 5 
L 5 -5 
L -5 -5 
z
" style="stroke: #333333; stroke-width: 0.8; stroke-linejoin: miter"/>
    </defs>
    <g clip-path="url(#p8d38780f54)">
     <use xlink:href="#m3918c5f952" x="109.261867" y="236.060551" style="fill: #cc3311; stroke: #333333; stroke-width: 0.8; stroke-linejoin: miter"/>
    </g>
   </g>
   <g id="line2d_66">
    <g clip-path="url(#p8d38780f54)">
     <use xlink:href="#m3918c5f952" x="211.323733" y="236.060551" style="fill: #cc3311; stroke: #333333; stroke-width: 0.8; stroke-linejoin: miter"/>
    </g>
   </g>
   <g id="line2d_67">
    <g clip-path="url(#p8d38780f54)">
     <use xlink:href="#m3918c5f952" x="313.3856" y="236.060551" style="fill: #cc3311; stroke: #333333; stroke-width: 0.8; stroke-linejoin: miter"/>
    </g>
   </g>
   <g id="line2d_68">
    <g clip-path="url(#p8d38780f54)">
     <use xlink:href="#m3918c5f952" x="415.447467" y="236.060551" style="fill: #cc3311; stroke: #333333; stroke-width: 0.8; stroke-linejoin: miter"/>
    </g>
   </g>
   <g id="line2d_69">
    <g clip-path="url(#p8d38780f54)">
     <use xlink:href="#m3918c5f952" x="517.509333" y="236.060551" style="fill: #cc3311; stroke: #333333; stroke-width: 0.8; stroke-linejoin: miter"/>
    </g>
   </g>
   <g id="line2d_70">
    <g clip-path="url(#p8d38780f54)">
     <use xlink:href="#m3918c5f952" x="619.5712" y="236.060551" style="fill: #cc3311; stroke: #333333; stroke-width: 0.8; stroke-linejoin: miter"/>
    </g>
   </g>
   <g id="line2d_71">
    <g clip-path="url(#p8d38780f54)">
     <use xlink:href="#m3918c5f952" x="721.633067" y="236.060551" style="fill: #cc3311; stroke: #333333; stroke-width: 0.8; stroke-linejoin: miter"/>
    </g>
   </g>
   <g id="line2d_72">
    <g clip-path="url(#p8d38780f54)">
     <use xlink:href="#m3918c5f952" x="823.694933" y="236.060551" style="fill: #cc3311; stroke: #333333; stroke-width: 0.8; stroke-linejoin: miter"/>
    </g>
   </g>
   <g id="line2d_73">
    <g clip-path="url(#p8d38780f54)">
     <use xlink:href="#m3918c5f952" x="109.261867" y="159.514151" style="fill: #cc3311; stroke: #333333; stroke-width: 0.8; stroke-linejoin: miter"/>
    </g>
   </g>
   <g id="line2d_74">
    <g clip-path="url(#p8d38780f54)">
     <use xlink:href="#m3918c5f952" x="347.406222" y="159.514151" style="fill: #cc3311; stroke: #333333; stroke-width: 0.8; stroke-linejoin: miter"/>
    </g>
   </g>
   <g id="line2d_75">
    <g clip-path="url(#p8d38780f54)">
     <use xlink:href="#m3918c5f952" x="585.550578" y="159.514151" style="fill: #cc3311; stroke: #333333; stroke-width: 0.8; stroke-linejoin: miter"/>
    </g>
   </g>
   <g id="line2d_76">
    <g clip-path="url(#p8d38780f54)">
     <use xlink:href="#m3918c5f952" x="823.694933" y="159.514151" style="fill: #cc3311; stroke: #333333; stroke-width: 0.8; stroke-linejoin: miter"/>
    </g>
   </g>
  </g>
 </g>
 <defs>
  <clipPath id="p8d38780f54">
   <rect x="7.2" y="31.936818" width="918.5568" height="459.2784"/>
  </clipPath>
 </defs>
</svg>
