<svg xmlns="http://www.w3.org/2000/svg" width="1200" height="528" viewBox="0 0 1200 528">
<rect width="100%" height="100%" fill="#ffffff"/>
<text x="600.0" y="22.0" font-family="Arial,Helvetica,sans-serif" font-size="15" font-weight="700" text-anchor="middle" fill="#1f2937">GPU Occupancy Timeline — random_same (random_same)</text>
<text x="6.0" y="60.0" font-family="Arial,Helvetica,sans-serif" font-size="7" font-weight="400" text-anchor="start" fill="#6b7280">h0g0</text>
<rect x="90.0" y="50.0" width="484.1" height="10.0" fill="#ef4444" rx="1" stroke="none" opacity="1.00"/>
<rect x="90.0" y="50.0" width="961.9" height="10.0" fill="#22c55e" rx="1" stroke="none" opacity="1.00"/>
<rect x="90.0" y="50.0" width="455.2" height="10.0" fill="#f97316" rx="1" stroke="none" opacity="1.00"/>
<text x="6.0" y="72.0" font-family="Arial,Helvetica,sans-serif" font-size="7" font-weight="400" text-anchor="start" fill="#6b7280">h0g1</text>
<rect x="90.0" y="62.0" width="360.5" height="10.0" fill="#3b82f6" rx="1" stroke="none" opacity="1.00"/>
<rect x="90.0" y="62.0" width="281.6" height="10.0" fill="#06b6d4" rx="1" stroke="none" opacity="1.00"/>
<text x="6.0" y="84.0" font-family="Arial,Helvetica,sans-serif" font-size="7" font-weight="400" text-anchor="start" fill="#6b7280">h0g2</text>
<rect x="90.0" y="74.0" width="955.1" height="10.0" fill="#8b5cf6" rx="1" stroke="none" opacity="1.00"/>
<rect x="90.0" y="74.0" width="550.5" height="10.0" fill="#a855f7" rx="1" stroke="none" opacity="1.00"/>
<rect x="90.0" y="74.0" width="154.0" height="10.0" fill="#e11d48" rx="1" stroke="none" opacity="1.00"/>
<text x="6.0" y="96.0" font-family="Arial,Helvetica,sans-serif" font-size="7" font-weight="400" text-anchor="start" fill="#6b7280">h0g3</text>
<rect x="90.0" y="86.0" width="484.1" height="10.0" fill="#ef4444" rx="1" stroke="none" opacity="1.00"/>
<rect x="90.0" y="86.0" width="961.9" height="10.0" fill="#22c55e" rx="1" stroke="none" opacity="1.00"/>
<rect x="90.0" y="86.0" width="226.4" height="10.0" fill="#ec4899" rx="1" stroke="none" opacity="1.00"/>
<rect x="90.0" y="86.0" width="455.2" height="10.0" fill="#f97316" rx="1" stroke="none" opacity="1.00"/>
<text x="6.0" y="114.0" font-family="Arial,Helvetica,sans-serif" font-size="7" font-weight="400" text-anchor="start" fill="#6b7280">h1g0</text>
<rect x="90.0" y="104.0" width="360.5" height="10.0" fill="#3b82f6" rx="1" stroke="none" opacity="1.00"/>
<rect x="90.0" y="104.0" width="281.6" height="10.0" fill="#06b6d4" rx="1" stroke="none" opacity="1.00"/>
<text x="6.0" y="126.0" font-family="Arial,Helvetica,sans-serif" font-size="7" font-weight="400" text-anchor="start" fill="#6b7280">h1g1</text>
<rect x="90.0" y="116.0" width="955.1" height="10.0" fill="#8b5cf6" rx="1" stroke="none" opacity="1.00"/>
<rect x="90.0" y="116.0" width="550.5" height="10.0" fill="#a855f7" rx="1" stroke="none" opacity="1.00"/>
<text x="6.0" y="138.0" font-family="Arial,Helvetica,sans-serif" font-size="7" font-weight="400" text-anchor="start" fill="#6b7280">h1g2</text>
<rect x="90.0" y="128.0" width="484.1" height="10.0" fill="#ef4444" rx="1" stroke="none" opacity="1.00"/>
<rect x="90.0" y="128.0" width="226.4" height="10.0" fill="#ec4899" rx="1" stroke="none" opacity="1.00"/>
<rect x="90.0" y="128.0" width="455.2" height="10.0" fill="#f97316" rx="1" stroke="none" opacity="1.00"/>
<rect x="90.0" y="128.0" width="624.6" height="10.0" fill="#84cc16" rx="1" stroke="none" opacity="1.00"/>
<text x="6.0" y="150.0" font-family="Arial,Helvetica,sans-serif" font-size="7" font-weight="400" text-anchor="start" fill="#6b7280">h1g3</text>
<rect x="90.0" y="140.0" width="912.8" height="10.0" fill="#f59e0b" rx="1" stroke="none" opacity="1.00"/>
<rect x="90.0" y="140.0" width="360.5" height="10.0" fill="#3b82f6" rx="1" stroke="none" opacity="1.00"/>
<rect x="90.0" y="140.0" width="281.6" height="10.0" fill="#06b6d4" rx="1" stroke="none" opacity="1.00"/>
<text x="6.0" y="168.0" font-family="Arial,Helvetica,sans-serif" font-size="7" font-weight="400" text-anchor="start" fill="#6b7280">h2g0</text>
<rect x="90.0" y="158.0" width="955.1" height="10.0" fill="#8b5cf6" rx="1" stroke="none" opacity="1.00"/>
<rect x="90.0" y="158.0" width="550.5" height="10.0" fill="#a855f7" rx="1" stroke="none" opacity="1.00"/>
<text x="6.0" y="180.0" font-family="Arial,Helvetica,sans-serif" font-size="7" font-weight="400" text-anchor="start" fill="#6b7280">h2g1</text>
<rect x="90.0" y="170.0" width="484.1" height="10.0" fill="#ef4444" rx="1" stroke="none" opacity="1.00"/>
<rect x="90.0" y="170.0" width="624.6" height="10.0" fill="#84cc16" rx="1" stroke="none" opacity="1.00"/>
<text x="6.0" y="192.0" font-family="Arial,Helvetica,sans-serif" font-size="7" font-weight="400" text-anchor="start" fill="#6b7280">h2g2</text>
<rect x="90.0" y="182.0" width="912.8" height="10.0" fill="#f59e0b" rx="1" stroke="none" opacity="1.00"/>
<rect x="90.0" y="182.0" width="360.5" height="10.0" fill="#3b82f6" rx="1" stroke="none" opacity="1.00"/>
<rect x="90.0" y="182.0" width="446.5" height="10.0" fill="#14b8a6" rx="1" stroke="none" opacity="1.00"/>
<rect x="90.0" y="182.0" width="281.6" height="10.0" fill="#06b6d4" rx="1" stroke="none" opacity="1.00"/>
<text x="6.0" y="204.0" font-family="Arial,Helvetica,sans-serif" font-size="7" font-weight="400" text-anchor="start" fill="#6b7280">h2g3</text>
<rect x="90.0" y="194.0" width="955.1" height="10.0" fill="#8b5cf6" rx="1" stroke="none" opacity="1.00"/>
<rect x="90.0" y="194.0" width="550.5" height="10.0" fill="#a855f7" rx="1" stroke="none" opacity="1.00"/>
<text x="6.0" y="222.0" font-family="Arial,Helvetica,sans-serif" font-size="7" font-weight="400" text-anchor="start" fill="#6b7280">h3g0</text>
<rect x="90.0" y="212.0" width="484.1" height="10.0" fill="#ef4444" rx="1" stroke="none" opacity="1.00"/>
<rect x="90.0" y="212.0" width="624.6" height="10.0" fill="#84cc16" rx="1" stroke="none" opacity="1.00"/>
<text x="6.0" y="234.0" font-family="Arial,Helvetica,sans-serif" font-size="7" font-weight="400" text-anchor="start" fill="#6b7280">h3g1</text>
<rect x="90.0" y="224.0" width="912.8" height="10.0" fill="#f59e0b" rx="1" stroke="none" opacity="1.00"/>
<rect x="90.0" y="224.0" width="446.5" height="10.0" fill="#14b8a6" rx="1" stroke="none" opacity="1.00"/>
<rect x="90.0" y="224.0" width="281.6" height="10.0" fill="#06b6d4" rx="1" stroke="none" opacity="1.00"/>
<rect x="90.0" y="224.0" width="154.0" height="10.0" fill="#e11d48" rx="1" stroke="none" opacity="1.00"/>
<text x="6.0" y="246.0" font-family="Arial,Helvetica,sans-serif" font-size="7" font-weight="400" text-anchor="start" fill="#6b7280">h3g2</text>
<rect x="90.0" y="236.0" width="961.9" height="10.0" fill="#22c55e" rx="1" stroke="none" opacity="1.00"/>
<rect x="90.0" y="236.0" width="955.1" height="10.0" fill="#8b5cf6" rx="1" stroke="none" opacity="1.00"/>
<rect x="90.0" y="236.0" width="550.5" height="10.0" fill="#a855f7" rx="1" stroke="none" opacity="1.00"/>
<text x="6.0" y="258.0" font-family="Arial,Helvetica,sans-serif" font-size="7" font-weight="400" text-anchor="start" fill="#6b7280">h3g3</text>
<rect x="90.0" y="248.0" width="484.1" height="10.0" fill="#ef4444" rx="1" stroke="none" opacity="1.00"/>
<rect x="90.0" y="248.0" width="624.6" height="10.0" fill="#84cc16" rx="1" stroke="none" opacity="1.00"/>
<text x="6.0" y="276.0" font-family="Arial,Helvetica,sans-serif" font-size="7" font-weight="400" text-anchor="start" fill="#6b7280">h4g0</text>
<rect x="90.0" y="266.0" width="912.8" height="10.0" fill="#f59e0b" rx="1" stroke="none" opacity="1.00"/>
<rect x="90.0" y="266.0" width="446.5" height="10.0" fill="#14b8a6" rx="1" stroke="none" opacity="1.00"/>
<rect x="90.0" y="266.0" width="154.0" height="10.0" fill="#e11d48" rx="1" stroke="none" opacity="1.00"/>
<text x="6.0" y="288.0" font-family="Arial,Helvetica,sans-serif" font-size="7" font-weight="400" text-anchor="start" fill="#6b7280">h4g1</text>
<rect x="90.0" y="278.0" width="961.9" height="10.0" fill="#22c55e" rx="1" stroke="none" opacity="1.00"/>
<rect x="90.0" y="278.0" width="955.1" height="10.0" fill="#8b5cf6" rx="1" stroke="none" opacity="1.00"/>
<rect x="90.0" y="278.0" width="455.2" height="10.0" fill="#f97316" rx="1" stroke="none" opacity="1.00"/>
<rect x="90.0" y="278.0" width="550.5" height="10.0" fill="#a855f7" rx="1" stroke="none" opacity="1.00"/>
<text x="6.0" y="300.0" font-family="Arial,Helvetica,sans-serif" font-size="7" font-weight="400" text-anchor="start" fill="#6b7280">h4g2</text>
<rect x="90.0" y="290.0" width="484.1" height="10.0" fill="#ef4444" rx="1" stroke="none" opacity="1.00"/>
<rect x="90.0" y="290.0" width="624.6" height="10.0" fill="#84cc16" rx="1" stroke="none" opacity="1.00"/>
<text x="6.0" y="312.0" font-family="Arial,Helvetica,sans-serif" font-size="7" font-weight="400" text-anchor="start" fill="#6b7280">h4g3</text>
<rect x="90.0" y="302.0" width="912.8" height="10.0" fill="#f59e0b" rx="1" stroke="none" opacity="1.00"/>
<rect x="90.0" y="302.0" width="446.5" height="10.0" fill="#14b8a6" rx="1" stroke="none" opacity="1.00"/>
<rect x="90.0" y="302.0" width="154.0" height="10.0" fill="#e11d48" rx="1" stroke="none" opacity="1.00"/>
<text x="6.0" y="330.0" font-family="Arial,Helvetica,sans-serif" font-size="7" font-weight="400" text-anchor="start" fill="#6b7280">h5g0</text>
<rect x="90.0" y="320.0" width="961.9" height="10.0" fill="#22c55e" rx="1" stroke="none" opacity="1.00"/>
<rect x="90.0" y="320.0" width="455.2" height="10.0" fill="#f97316" rx="1" stroke="none" opacity="1.00"/>
<rect x="90.0" y="320.0" width="550.5" height="10.0" fill="#a855f7" rx="1" stroke="none" opacity="1.00"/>
<text x="6.0" y="342.0" font-family="Arial,Helvetica,sans-serif" font-size="7" font-weight="400" text-anchor="start" fill="#6b7280">h5g1</text>
<rect x="90.0" y="332.0" width="484.1" height="10.0" fill="#ef4444" rx="1" stroke="none" opacity="1.00"/>
<rect x="90.0" y="332.0" width="360.5" height="10.0" fill="#3b82f6" rx="1" stroke="none" opacity="1.00"/>
<rect x="90.0" y="332.0" width="624.6" height="10.0" fill="#84cc16" rx="1" stroke="none" opacity="1.00"/>
<text x="6.0" y="354.0" font-family="Arial,Helvetica,sans-serif" font-size="7" font-weight="400" text-anchor="start" fill="#6b7280">h5g2</text>
<rect x="90.0" y="344.0" width="912.8" height="10.0" fill="#f59e0b" rx="1" stroke="none" opacity="1.00"/>
<rect x="90.0" y="344.0" width="446.5" height="10.0" fill="#14b8a6" rx="1" stroke="none" opacity="1.00"/>
<rect x="90.0" y="344.0" width="154.0" height="10.0" fill="#e11d48" rx="1" stroke="none" opacity="1.00"/>
<text x="6.0" y="366.0" font-family="Arial,Helvetica,sans-serif" font-size="7" font-weight="400" text-anchor="start" fill="#6b7280">h5g3</text>
<rect x="90.0" y="356.0" width="961.9" height="10.0" fill="#22c55e" rx="1" stroke="none" opacity="1.00"/>
<rect x="90.0" y="356.0" width="455.2" height="10.0" fill="#f97316" rx="1" stroke="none" opacity="1.00"/>
<text x="6.0" y="384.0" font-family="Arial,Helvetica,sans-serif" font-size="7" font-weight="400" text-anchor="start" fill="#6b7280">h6g0</text>
<rect x="90.0" y="374.0" width="360.5" height="10.0" fill="#3b82f6" rx="1" stroke="none" opacity="1.00"/>
<rect x="90.0" y="374.0" width="281.6" height="10.0" fill="#06b6d4" rx="1" stroke="none" opacity="1.00"/>
<rect x="90.0" y="374.0" width="624.6" height="10.0" fill="#84cc16" rx="1" stroke="none" opacity="1.00"/>
<text x="6.0" y="396.0" font-family="Arial,Helvetica,sans-serif" font-size="7" font-weight="400" text-anchor="start" fill="#6b7280">h6g1</text>
<rect x="90.0" y="386.0" width="912.8" height="10.0" fill="#f59e0b" rx="1" stroke="none" opacity="1.00"/>
<rect x="90.0" y="386.0" width="446.5" height="10.0" fill="#14b8a6" rx="1" stroke="none" opacity="1.00"/>
<rect x="90.0" y="386.0" width="154.0" height="10.0" fill="#e11d48" rx="1" stroke="none" opacity="1.00"/>
<text x="6.0" y="408.0" font-family="Arial,Helvetica,sans-serif" font-size="7" font-weight="400" text-anchor="start" fill="#6b7280">h6g2</text>
<rect x="90.0" y="398.0" width="961.9" height="10.0" fill="#22c55e" rx="1" stroke="none" opacity="1.00"/>
<rect x="90.0" y="398.0" width="455.2" height="10.0" fill="#f97316" rx="1" stroke="none" opacity="1.00"/>
<text x="6.0" y="420.0" font-family="Arial,Helvetica,sans-serif" font-size="7" font-weight="400" text-anchor="start" fill="#6b7280">h6g3</text>
<rect x="90.0" y="410.0" width="360.5" height="10.0" fill="#3b82f6" rx="1" stroke="none" opacity="1.00"/>
<rect x="90.0" y="410.0" width="281.6" height="10.0" fill="#06b6d4" rx="1" stroke="none" opacity="1.00"/>
<rect x="90.0" y="410.0" width="624.6" height="10.0" fill="#84cc16" rx="1" stroke="none" opacity="1.00"/>
<text x="6.0" y="438.0" font-family="Arial,Helvetica,sans-serif" font-size="7" font-weight="400" text-anchor="start" fill="#6b7280">h7g0</text>
<rect x="90.0" y="428.0" width="912.8" height="10.0" fill="#f59e0b" rx="1" stroke="none" opacity="1.00"/>
<rect x="90.0" y="428.0" width="955.1" height="10.0" fill="#8b5cf6" rx="1" stroke="none" opacity="1.00"/>
<rect x="90.0" y="428.0" width="446.5" height="10.0" fill="#14b8a6" rx="1" stroke="none" opacity="1.00"/>
<rect x="90.0" y="428.0" width="154.0" height="10.0" fill="#e11d48" rx="1" stroke="none" opacity="1.00"/>
<text x="6.0" y="450.0" font-family="Arial,Helvetica,sans-serif" font-size="7" font-weight="400" text-anchor="start" fill="#6b7280">h7g1</text>
<rect x="90.0" y="440.0" width="961.9" height="10.0" fill="#22c55e" rx="1" stroke="none" opacity="1.00"/>
<rect x="90.0" y="440.0" width="455.2" height="10.0" fill="#f97316" rx="1" stroke="none" opacity="1.00"/>
<text x="6.0" y="462.0" font-family="Arial,Helvetica,sans-serif" font-size="7" font-weight="400" text-anchor="start" fill="#6b7280">h7g2</text>
<rect x="90.0" y="452.0" width="360.5" height="10.0" fill="#3b82f6" rx="1" stroke="none" opacity="1.00"/>
<rect x="90.0" y="452.0" width="281.6" height="10.0" fill="#06b6d4" rx="1" stroke="none" opacity="1.00"/>
<text x="6.0" y="474.0" font-family="Arial,Helvetica,sans-serif" font-size="7" font-weight="400" text-anchor="start" fill="#6b7280">h7g3</text>
<rect x="90.0" y="464.0" width="955.1" height="10.0" fill="#8b5cf6" rx="1" stroke="none" opacity="1.00"/>
<rect x="90.0" y="464.0" width="446.5" height="10.0" fill="#14b8a6" rx="1" stroke="none" opacity="1.00"/>
<rect x="90.0" y="464.0" width="550.5" height="10.0" fill="#a855f7" rx="1" stroke="none" opacity="1.00"/>
<rect x="90.0" y="464.0" width="154.0" height="10.0" fill="#e11d48" rx="1" stroke="none" opacity="1.00"/>
<text x="90.0" y="492.0" font-family="Arial,Helvetica,sans-serif" font-size="9" font-weight="400" text-anchor="middle" fill="#64748b">0s</text>
<text x="292.0" y="492.0" font-family="Arial,Helvetica,sans-serif" font-size="9" font-weight="400" text-anchor="middle" fill="#64748b">20s</text>
<text x="494.0" y="492.0" font-family="Arial,Helvetica,sans-serif" font-size="9" font-weight="400" text-anchor="middle" fill="#64748b">40s</text>
<text x="696.0" y="492.0" font-family="Arial,Helvetica,sans-serif" font-size="9" font-weight="400" text-anchor="middle" fill="#64748b">60s</text>
<text x="898.0" y="492.0" font-family="Arial,Helvetica,sans-serif" font-size="9" font-weight="400" text-anchor="middle" fill="#64748b">80s</text>
<text x="1100.0" y="492.0" font-family="Arial,Helvetica,sans-serif" font-size="9" font-weight="400" text-anchor="middle" fill="#64748b">100s</text>
<text x="1040.0" y="45.0" font-family="Arial,Helvetica,sans-serif" font-size="10" font-weight="700" text-anchor="start" fill="#1f2937">Jobs</text>
<rect x="1040.0" y="50.0" width="12.0" height="10.0" fill="#ef4444" rx="2" stroke="none" opacity="1.00"/>
<text x="1058.0" y="59.0" font-family="Arial,Helvetica,sans-serif" font-size="8" font-weight="400" text-anchor="start" fill="#475569">Job 0</text>
<rect x="1040.0" y="66.0" width="12.0" height="10.0" fill="#f59e0b" rx="2" stroke="none" opacity="1.00"/>
<text x="1058.0" y="75.0" font-family="Arial,Helvetica,sans-serif" font-size="8" font-weight="400" text-anchor="start" fill="#475569">Job 1</text>
<rect x="1040.0" y="82.0" width="12.0" height="10.0" fill="#22c55e" rx="2" stroke="none" opacity="1.00"/>
<text x="1058.0" y="91.0" font-family="Arial,Helvetica,sans-serif" font-size="8" font-weight="400" text-anchor="start" fill="#475569">Job 2</text>
<rect x="1040.0" y="98.0" width="12.0" height="10.0" fill="#3b82f6" rx="2" stroke="none" opacity="1.00"/>
<text x="1058.0" y="107.0" font-family="Arial,Helvetica,sans-serif" font-size="8" font-weight="400" text-anchor="start" fill="#475569">Job 3</text>
<rect x="1040.0" y="114.0" width="12.0" height="10.0" fill="#8b5cf6" rx="2" stroke="none" opacity="1.00"/>
<text x="1058.0" y="123.0" font-family="Arial,Helvetica,sans-serif" font-size="8" font-weight="400" text-anchor="start" fill="#475569">Job 4</text>
<rect x="1040.0" y="130.0" width="12.0" height="10.0" fill="#ec4899" rx="2" stroke="none" opacity="1.00"/>
<text x="1058.0" y="139.0" font-family="Arial,Helvetica,sans-serif" font-size="8" font-weight="400" text-anchor="start" fill="#475569">Job 5</text>
<rect x="1040.0" y="146.0" width="12.0" height="10.0" fill="#14b8a6" rx="2" stroke="none" opacity="1.00"/>
<text x="1058.0" y="155.0" font-family="Arial,Helvetica,sans-serif" font-size="8" font-weight="400" text-anchor="start" fill="#475569">Job 6</text>
<rect x="1040.0" y="162.0" width="12.0" height="10.0" fill="#f97316" rx="2" stroke="none" opacity="1.00"/>
<text x="1058.0" y="171.0" font-family="Arial,Helvetica,sans-serif" font-size="8" font-weight="400" text-anchor="start" fill="#475569">Job 7</text>
<rect x="1040.0" y="178.0" width="12.0" height="10.0" fill="#06b6d4" rx="2" stroke="none" opacity="1.00"/>
<text x="1058.0" y="187.0" font-family="Arial,Helvetica,sans-serif" font-size="8" font-weight="400" text-anchor="start" fill="#475569">Job 8</text>
<rect x="1040.0" y="194.0" width="12.0" height="10.0" fill="#a855f7" rx="2" stroke="none" opacity="1.00"/>
<text x="1058.0" y="203.0" font-family="Arial,Helvetica,sans-serif" font-size="8" font-weight="400" text-anchor="start" fill="#475569">Job 9</text>
<rect x="1040.0" y="210.0" width="12.0" height="10.0" fill="#84cc16" rx="2" stroke="none" opacity="1.00"/>
<text x="1058.0" y="219.0" font-family="Arial,Helvetica,sans-serif" font-size="8" font-weight="400" text-anchor="start" fill="#475569">Job 10</text>
<rect x="1040.0" y="226.0" width="12.0" height="10.0" fill="#e11d48" rx="2" stroke="none" opacity="1.00"/>
<text x="1058.0" y="235.0" font-family="Arial,Helvetica,sans-serif" font-size="8" font-weight="400" text-anchor="start" fill="#475569">Job 11</text>
</svg>