<svg xmlns="http://www.w3.org/2000/svg" width="1400" height="950" viewBox="0 0 1400 950">
<rect width="100%" height="100%" fill="#f8fafc"/>
<text x="700.0" y="24.0" font-family="Arial,Helvetica,sans-serif" font-size="16" font-weight="700" text-anchor="middle" fill="#1f2937">Topology & Job Placement — random_same</text>
<line x1="266.0" y1="128.0" x2="328.0" y2="333.3" stroke="#ef4444" stroke-width="5.8" opacity="0.60"/>
<line x1="266.0" y1="128.0" x2="576.0" y2="333.3" stroke="#ef4444" stroke-width="5.8" opacity="0.60"/>
<line x1="266.0" y1="128.0" x2="824.0" y2="333.3" stroke="#ef4444" stroke-width="5.8" opacity="0.60"/>
<line x1="266.0" y1="128.0" x2="1072.0" y2="333.3" stroke="#ef4444" stroke-width="5.8" opacity="0.60"/>
<line x1="390.0" y1="128.0" x2="328.0" y2="333.3" stroke="#cbd5e1" stroke-width="1.0" opacity="0.60"/>
<line x1="390.0" y1="128.0" x2="576.0" y2="333.3" stroke="#cbd5e1" stroke-width="1.0" opacity="0.60"/>
<line x1="390.0" y1="128.0" x2="824.0" y2="333.3" stroke="#cbd5e1" stroke-width="1.0" opacity="0.60"/>
<line x1="390.0" y1="128.0" x2="1072.0" y2="333.3" stroke="#cbd5e1" stroke-width="1.0" opacity="0.60"/>
<line x1="514.0" y1="128.0" x2="328.0" y2="333.3" stroke="#cbd5e1" stroke-width="1.0" opacity="0.60"/>
<line x1="514.0" y1="128.0" x2="576.0" y2="333.3" stroke="#cbd5e1" stroke-width="1.0" opacity="0.60"/>
<line x1="514.0" y1="128.0" x2="824.0" y2="333.3" stroke="#cbd5e1" stroke-width="1.0" opacity="0.60"/>
<line x1="514.0" y1="128.0" x2="1072.0" y2="333.3" stroke="#cbd5e1" stroke-width="1.0" opacity="0.60"/>
<line x1="638.0" y1="128.0" x2="328.0" y2="333.3" stroke="#cbd5e1" stroke-width="1.0" opacity="0.60"/>
<line x1="638.0" y1="128.0" x2="576.0" y2="333.3" stroke="#cbd5e1" stroke-width="1.0" opacity="0.60"/>
<line x1="638.0" y1="128.0" x2="824.0" y2="333.3" stroke="#cbd5e1" stroke-width="1.0" opacity="0.60"/>
<line x1="638.0" y1="128.0" x2="1072.0" y2="333.3" stroke="#cbd5e1" stroke-width="1.0" opacity="0.60"/>
<line x1="762.0" y1="128.0" x2="328.0" y2="333.3" stroke="#cbd5e1" stroke-width="1.0" opacity="0.60"/>
<line x1="762.0" y1="128.0" x2="576.0" y2="333.3" stroke="#cbd5e1" stroke-width="1.0" opacity="0.60"/>
<line x1="762.0" y1="128.0" x2="824.0" y2="333.3" stroke="#cbd5e1" stroke-width="1.0" opacity="0.60"/>
<line x1="762.0" y1="128.0" x2="1072.0" y2="333.3" stroke="#cbd5e1" stroke-width="1.0" opacity="0.60"/>
<line x1="886.0" y1="128.0" x2="328.0" y2="333.3" stroke="#cbd5e1" stroke-width="1.0" opacity="0.60"/>
<line x1="886.0" y1="128.0" x2="576.0" y2="333.3" stroke="#cbd5e1" stroke-width="1.0" opacity="0.60"/>
<line x1="886.0" y1="128.0" x2="824.0" y2="333.3" stroke="#cbd5e1" stroke-width="1.0" opacity="0.60"/>
<line x1="886.0" y1="128.0" x2="1072.0" y2="333.3" stroke="#cbd5e1" stroke-width="1.0" opacity="0.60"/>
<line x1="1010.0" y1="128.0" x2="328.0" y2="333.3" stroke="#cbd5e1" stroke-width="1.0" opacity="0.60"/>
<line x1="1010.0" y1="128.0" x2="576.0" y2="333.3" stroke="#cbd5e1" stroke-width="1.0" opacity="0.60"/>
<line x1="1010.0" y1="128.0" x2="824.0" y2="333.3" stroke="#cbd5e1" stroke-width="1.0" opacity="0.60"/>
<line x1="1010.0" y1="128.0" x2="1072.0" y2="333.3" stroke="#cbd5e1" stroke-width="1.0" opacity="0.60"/>
<line x1="1134.0" y1="128.0" x2="328.0" y2="333.3" stroke="#cbd5e1" stroke-width="1.0" opacity="0.60"/>
<line x1="1134.0" y1="128.0" x2="576.0" y2="333.3" stroke="#cbd5e1" stroke-width="1.0" opacity="0.60"/>
<line x1="1134.0" y1="128.0" x2="824.0" y2="333.3" stroke="#cbd5e1" stroke-width="1.0" opacity="0.60"/>
<line x1="1134.0" y1="128.0" x2="1072.0" y2="333.3" stroke="#cbd5e1" stroke-width="1.0" opacity="0.60"/>
<line x1="328.0" y1="333.3" x2="452.0" y2="538.7" stroke="#cbd5e1" stroke-width="1.0" opacity="0.60"/>
<line x1="328.0" y1="333.3" x2="948.0" y2="538.7" stroke="#cbd5e1" stroke-width="1.0" opacity="0.60"/>
<line x1="576.0" y1="333.3" x2="452.0" y2="538.7" stroke="#cbd5e1" stroke-width="1.0" opacity="0.60"/>
<line x1="576.0" y1="333.3" x2="948.0" y2="538.7" stroke="#cbd5e1" stroke-width="1.0" opacity="0.60"/>
<line x1="824.0" y1="333.3" x2="452.0" y2="538.7" stroke="#cbd5e1" stroke-width="1.0" opacity="0.60"/>
<line x1="824.0" y1="333.3" x2="948.0" y2="538.7" stroke="#cbd5e1" stroke-width="1.0" opacity="0.60"/>
<line x1="1072.0" y1="333.3" x2="452.0" y2="538.7" stroke="#cbd5e1" stroke-width="1.0" opacity="0.60"/>
<line x1="1072.0" y1="333.3" x2="948.0" y2="538.7" stroke="#cbd5e1" stroke-width="1.0" opacity="0.60"/>
<line x1="305.5" y1="811.0" x2="266.0" y2="128.0" stroke="#f59e0b" stroke-width="5.0" opacity="0.60"/>
<line x1="305.5" y1="811.0" x2="390.0" y2="128.0" stroke="#f59e0b" stroke-width="5.0" opacity="0.60"/>
<line x1="305.5" y1="811.0" x2="514.0" y2="128.0" stroke="#f59e0b" stroke-width="5.0" opacity="0.60"/>
<line x1="305.5" y1="811.0" x2="638.0" y2="128.0" stroke="#f59e0b" stroke-width="5.0" opacity="0.60"/>
<line x1="305.5" y1="811.0" x2="762.0" y2="128.0" stroke="#f59e0b" stroke-width="5.0" opacity="0.60"/>
<line x1="305.5" y1="811.0" x2="886.0" y2="128.0" stroke="#f59e0b" stroke-width="5.0" opacity="0.60"/>
<line x1="305.5" y1="811.0" x2="1010.0" y2="128.0" stroke="#f59e0b" stroke-width="5.0" opacity="0.60"/>
<line x1="305.5" y1="811.0" x2="1134.0" y2="128.0" stroke="#f59e0b" stroke-width="5.0" opacity="0.60"/>
<line x1="420.5" y1="811.0" x2="266.0" y2="128.0" stroke="#f59e0b" stroke-width="5.0" opacity="0.60"/>
<line x1="420.5" y1="811.0" x2="390.0" y2="128.0" stroke="#f59e0b" stroke-width="5.0" opacity="0.60"/>
<line x1="420.5" y1="811.0" x2="514.0" y2="128.0" stroke="#f59e0b" stroke-width="5.0" opacity="0.60"/>
<line x1="420.5" y1="811.0" x2="638.0" y2="128.0" stroke="#f59e0b" stroke-width="5.0" opacity="0.60"/>
<line x1="420.5" y1="811.0" x2="762.0" y2="128.0" stroke="#f59e0b" stroke-width="5.0" opacity="0.60"/>
<line x1="420.5" y1="811.0" x2="886.0" y2="128.0" stroke="#f59e0b" stroke-width="5.0" opacity="0.60"/>
<line x1="420.5" y1="811.0" x2="1010.0" y2="128.0" stroke="#f59e0b" stroke-width="5.0" opacity="0.60"/>
<line x1="420.5" y1="811.0" x2="1134.0" y2="128.0" stroke="#f59e0b" stroke-width="5.0" opacity="0.60"/>
<line x1="535.5" y1="811.0" x2="266.0" y2="128.0" stroke="#f59e0b" stroke-width="4.9" opacity="0.60"/>
<line x1="535.5" y1="811.0" x2="390.0" y2="128.0" stroke="#f59e0b" stroke-width="4.9" opacity="0.60"/>
<line x1="535.5" y1="811.0" x2="514.0" y2="128.0" stroke="#f59e0b" stroke-width="4.9" opacity="0.60"/>
<line x1="535.5" y1="811.0" x2="638.0" y2="128.0" stroke="#f59e0b" stroke-width="4.9" opacity="0.60"/>
<line x1="535.5" y1="811.0" x2="762.0" y2="128.0" stroke="#f59e0b" stroke-width="4.9" opacity="0.60"/>
<line x1="535.5" y1="811.0" x2="886.0" y2="128.0" stroke="#f59e0b" stroke-width="4.9" opacity="0.60"/>
<line x1="535.5" y1="811.0" x2="1010.0" y2="128.0" stroke="#f59e0b" stroke-width="4.9" opacity="0.60"/>
<line x1="535.5" y1="811.0" x2="1134.0" y2="128.0" stroke="#f59e0b" stroke-width="4.9" opacity="0.60"/>
<line x1="650.5" y1="811.0" x2="266.0" y2="128.0" stroke="#f59e0b" stroke-width="4.9" opacity="0.60"/>
<line x1="650.5" y1="811.0" x2="390.0" y2="128.0" stroke="#f59e0b" stroke-width="4.9" opacity="0.60"/>
<line x1="650.5" y1="811.0" x2="514.0" y2="128.0" stroke="#f59e0b" stroke-width="4.9" opacity="0.60"/>
<line x1="650.5" y1="811.0" x2="638.0" y2="128.0" stroke="#f59e0b" stroke-width="4.9" opacity="0.60"/>
<line x1="650.5" y1="811.0" x2="762.0" y2="128.0" stroke="#f59e0b" stroke-width="4.9" opacity="0.60"/>
<line x1="650.5" y1="811.0" x2="886.0" y2="128.0" stroke="#f59e0b" stroke-width="4.9" opacity="0.60"/>
<line x1="650.5" y1="811.0" x2="1010.0" y2="128.0" stroke="#f59e0b" stroke-width="4.9" opacity="0.60"/>
<line x1="650.5" y1="811.0" x2="1134.0" y2="128.0" stroke="#f59e0b" stroke-width="4.9" opacity="0.60"/>
<line x1="765.5" y1="811.0" x2="266.0" y2="128.0" stroke="#f59e0b" stroke-width="5.0" opacity="0.60"/>
<line x1="765.5" y1="811.0" x2="390.0" y2="128.0" stroke="#f59e0b" stroke-width="5.0" opacity="0.60"/>
<line x1="765.5" y1="811.0" x2="514.0" y2="128.0" stroke="#f59e0b" stroke-width="5.0" opacity="0.60"/>
<line x1="765.5" y1="811.0" x2="638.0" y2="128.0" stroke="#f59e0b" stroke-width="5.0" opacity="0.60"/>
<line x1="765.5" y1="811.0" x2="762.0" y2="128.0" stroke="#f59e0b" stroke-width="5.0" opacity="0.60"/>
<line x1="765.5" y1="811.0" x2="886.0" y2="128.0" stroke="#f59e0b" stroke-width="5.0" opacity="0.60"/>
<line x1="765.5" y1="811.0" x2="1010.0" y2="128.0" stroke="#f59e0b" stroke-width="5.0" opacity="0.60"/>
<line x1="765.5" y1="811.0" x2="1134.0" y2="128.0" stroke="#f59e0b" stroke-width="5.0" opacity="0.60"/>
<line x1="880.5" y1="811.0" x2="266.0" y2="128.0" stroke="#f59e0b" stroke-width="5.0" opacity="0.60"/>
<line x1="880.5" y1="811.0" x2="390.0" y2="128.0" stroke="#f59e0b" stroke-width="5.0" opacity="0.60"/>
<line x1="880.5" y1="811.0" x2="514.0" y2="128.0" stroke="#f59e0b" stroke-width="5.0" opacity="0.60"/>
<line x1="880.5" y1="811.0" x2="638.0" y2="128.0" stroke="#f59e0b" stroke-width="5.0" opacity="0.60"/>
<line x1="880.5" y1="811.0" x2="762.0" y2="128.0" stroke="#f59e0b" stroke-width="5.0" opacity="0.60"/>
<line x1="880.5" y1="811.0" x2="886.0" y2="128.0" stroke="#f59e0b" stroke-width="5.0" opacity="0.60"/>
<line x1="880.5" y1="811.0" x2="1010.0" y2="128.0" stroke="#f59e0b" stroke-width="5.0" opacity="0.60"/>
<line x1="880.5" y1="811.0" x2="1134.0" y2="128.0" stroke="#f59e0b" stroke-width="5.0" opacity="0.60"/>
<line x1="995.5" y1="811.0" x2="266.0" y2="128.0" stroke="#f59e0b" stroke-width="4.3" opacity="0.60"/>
<line x1="995.5" y1="811.0" x2="390.0" y2="128.0" stroke="#f59e0b" stroke-width="4.3" opacity="0.60"/>
<line x1="995.5" y1="811.0" x2="514.0" y2="128.0" stroke="#f59e0b" stroke-width="4.3" opacity="0.60"/>
<line x1="995.5" y1="811.0" x2="638.0" y2="128.0" stroke="#f59e0b" stroke-width="4.3" opacity="0.60"/>
<line x1="995.5" y1="811.0" x2="762.0" y2="128.0" stroke="#f59e0b" stroke-width="4.3" opacity="0.60"/>
<line x1="995.5" y1="811.0" x2="886.0" y2="128.0" stroke="#f59e0b" stroke-width="4.3" opacity="0.60"/>
<line x1="995.5" y1="811.0" x2="1010.0" y2="128.0" stroke="#f59e0b" stroke-width="4.3" opacity="0.60"/>
<line x1="995.5" y1="811.0" x2="1134.0" y2="128.0" stroke="#f59e0b" stroke-width="4.3" opacity="0.60"/>
<line x1="1110.5" y1="811.0" x2="266.0" y2="128.0" stroke="#f59e0b" stroke-width="4.3" opacity="0.60"/>
<line x1="1110.5" y1="811.0" x2="390.0" y2="128.0" stroke="#f59e0b" stroke-width="4.3" opacity="0.60"/>
<line x1="1110.5" y1="811.0" x2="514.0" y2="128.0" stroke="#f59e0b" stroke-width="4.3" opacity="0.60"/>
<line x1="1110.5" y1="811.0" x2="638.0" y2="128.0" stroke="#f59e0b" stroke-width="4.3" opacity="0.60"/>
<line x1="1110.5" y1="811.0" x2="762.0" y2="128.0" stroke="#f59e0b" stroke-width="4.3" opacity="0.60"/>
<line x1="1110.5" y1="811.0" x2="886.0" y2="128.0" stroke="#f59e0b" stroke-width="4.3" opacity="0.60"/>
<line x1="1110.5" y1="811.0" x2="1010.0" y2="128.0" stroke="#f59e0b" stroke-width="4.3" opacity="0.60"/>
<line x1="1110.5" y1="811.0" x2="1134.0" y2="128.0" stroke="#f59e0b" stroke-width="4.3" opacity="0.60"/>
<line x1="260.0" y1="863.0" x2="305.5" y2="811.0" stroke="#f59e0b" stroke-width="5.0" opacity="0.60"/>
<line x1="285.0" y1="863.0" x2="305.5" y2="811.0" stroke="#f59e0b" stroke-width="5.0" opacity="0.60"/>
<line x1="310.0" y1="863.0" x2="305.5" y2="811.0" stroke="#f59e0b" stroke-width="5.0" opacity="0.60"/>
<line x1="335.0" y1="863.0" x2="305.5" y2="811.0" stroke="#f59e0b" stroke-width="5.0" opacity="0.60"/>
<line x1="375.0" y1="863.0" x2="420.5" y2="811.0" stroke="#f59e0b" stroke-width="5.0" opacity="0.60"/>
<line x1="400.0" y1="863.0" x2="420.5" y2="811.0" stroke="#f59e0b" stroke-width="5.0" opacity="0.60"/>
<line x1="425.0" y1="863.0" x2="420.5" y2="811.0" stroke="#f59e0b" stroke-width="5.0" opacity="0.60"/>
<line x1="450.0" y1="863.0" x2="420.5" y2="811.0" stroke="#f59e0b" stroke-width="5.0" opacity="0.60"/>
<line x1="490.0" y1="863.0" x2="535.5" y2="811.0" stroke="#f59e0b" stroke-width="4.9" opacity="0.60"/>
<line x1="515.0" y1="863.0" x2="535.5" y2="811.0" stroke="#f59e0b" stroke-width="4.9" opacity="0.60"/>
<line x1="540.0" y1="863.0" x2="535.5" y2="811.0" stroke="#f59e0b" stroke-width="4.9" opacity="0.60"/>
<line x1="565.0" y1="863.0" x2="535.5" y2="811.0" stroke="#f59e0b" stroke-width="4.9" opacity="0.60"/>
<line x1="605.0" y1="863.0" x2="650.5" y2="811.0" stroke="#f59e0b" stroke-width="4.9" opacity="0.60"/>
<line x1="630.0" y1="863.0" x2="650.5" y2="811.0" stroke="#f59e0b" stroke-width="4.9" opacity="0.60"/>
<line x1="655.0" y1="863.0" x2="650.5" y2="811.0" stroke="#f59e0b" stroke-width="4.9" opacity="0.60"/>
<line x1="680.0" y1="863.0" x2="650.5" y2="811.0" stroke="#f59e0b" stroke-width="4.9" opacity="0.60"/>
<line x1="720.0" y1="863.0" x2="765.5" y2="811.0" stroke="#f59e0b" stroke-width="5.0" opacity="0.60"/>
<line x1="745.0" y1="863.0" x2="765.5" y2="811.0" stroke="#f59e0b" stroke-width="5.0" opacity="0.60"/>
<line x1="770.0" y1="863.0" x2="765.5" y2="811.0" stroke="#f59e0b" stroke-width="5.0" opacity="0.60"/>
<line x1="795.0" y1="863.0" x2="765.5" y2="811.0" stroke="#f59e0b" stroke-width="5.0" opacity="0.60"/>
<line x1="835.0" y1="863.0" x2="880.5" y2="811.0" stroke="#f59e0b" stroke-width="5.0" opacity="0.60"/>
<line x1="860.0" y1="863.0" x2="880.5" y2="811.0" stroke="#f59e0b" stroke-width="5.0" opacity="0.60"/>
<line x1="885.0" y1="863.0" x2="880.5" y2="811.0" stroke="#f59e0b" stroke-width="5.0" opacity="0.60"/>
<line x1="910.0" y1="863.0" x2="880.5" y2="811.0" stroke="#f59e0b" stroke-width="5.0" opacity="0.60"/>
<line x1="950.0" y1="863.0" x2="995.5" y2="811.0" stroke="#f59e0b" stroke-width="4.3" opacity="0.60"/>
<line x1="975.0" y1="863.0" x2="995.5" y2="811.0" stroke="#f59e0b" stroke-width="4.3" opacity="0.60"/>
<line x1="1000.0" y1="863.0" x2="995.5" y2="811.0" stroke="#f59e0b" stroke-width="4.3" opacity="0.60"/>
<line x1="1025.0" y1="863.0" x2="995.5" y2="811.0" stroke="#f59e0b" stroke-width="4.3" opacity="0.60"/>
<line x1="1065.0" y1="863.0" x2="1110.5" y2="811.0" stroke="#f59e0b" stroke-width="4.3" opacity="0.60"/>
<line x1="1090.0" y1="863.0" x2="1110.5" y2="811.0" stroke="#f59e0b" stroke-width="4.3" opacity="0.60"/>
<line x1="1115.0" y1="863.0" x2="1110.5" y2="811.0" stroke="#f59e0b" stroke-width="4.3" opacity="0.60"/>
<line x1="1140.0" y1="863.0" x2="1110.5" y2="811.0" stroke="#f59e0b" stroke-width="4.3" opacity="0.60"/>
<rect x="252.0" y="120.0" width="28.0" height="16.0" fill="#475569" rx="4" stroke="none" opacity="1.00"/>
<text x="266.0" y="132.0" font-family="Arial,Helvetica,sans-serif" font-size="8" font-weight="600" text-anchor="middle" fill="#ffffff">To0</text>
<rect x="376.0" y="120.0" width="28.0" height="16.0" fill="#475569" rx="4" stroke="none" opacity="1.00"/>
<text x="390.0" y="132.0" font-family="Arial,Helvetica,sans-serif" font-size="8" font-weight="600" text-anchor="middle" fill="#ffffff">To1</text>
<rect x="500.0" y="120.0" width="28.0" height="16.0" fill="#475569" rx="4" stroke="none" opacity="1.00"/>
<text x="514.0" y="132.0" font-family="Arial,Helvetica,sans-serif" font-size="8" font-weight="600" text-anchor="middle" fill="#ffffff">To2</text>
<rect x="624.0" y="120.0" width="28.0" height="16.0" fill="#475569" rx="4" stroke="none" opacity="1.00"/>
<text x="638.0" y="132.0" font-family="Arial,Helvetica,sans-serif" font-size="8" font-weight="600" text-anchor="middle" fill="#ffffff">To3</text>
<rect x="748.0" y="120.0" width="28.0" height="16.0" fill="#475569" rx="4" stroke="none" opacity="1.00"/>
<text x="762.0" y="132.0" font-family="Arial,Helvetica,sans-serif" font-size="8" font-weight="600" text-anchor="middle" fill="#ffffff">To4</text>
<rect x="872.0" y="120.0" width="28.0" height="16.0" fill="#475569" rx="4" stroke="none" opacity="1.00"/>
<text x="886.0" y="132.0" font-family="Arial,Helvetica,sans-serif" font-size="8" font-weight="600" text-anchor="middle" fill="#ffffff">To5</text>
<rect x="996.0" y="120.0" width="28.0" height="16.0" fill="#475569" rx="4" stroke="none" opacity="1.00"/>
<text x="1010.0" y="132.0" font-family="Arial,Helvetica,sans-serif" font-size="8" font-weight="600" text-anchor="middle" fill="#ffffff">To6</text>
<rect x="1120.0" y="120.0" width="28.0" height="16.0" fill="#475569" rx="4" stroke="none" opacity="1.00"/>
<text x="1134.0" y="132.0" font-family="Arial,Helvetica,sans-serif" font-size="8" font-weight="600" text-anchor="middle" fill="#ffffff">To7</text>
<rect x="314.0" y="325.3" width="28.0" height="16.0" fill="#475569" rx="4" stroke="none" opacity="1.00"/>
<text x="328.0" y="337.3" font-family="Arial,Helvetica,sans-serif" font-size="8" font-weight="600" text-anchor="middle" fill="#ffffff">Ag0</text>
<rect x="562.0" y="325.3" width="28.0" height="16.0" fill="#475569" rx="4" stroke="none" opacity="1.00"/>
<text x="576.0" y="337.3" font-family="Arial,Helvetica,sans-serif" font-size="8" font-weight="600" text-anchor="middle" fill="#ffffff">Ag1</text>
<rect x="810.0" y="325.3" width="28.0" height="16.0" fill="#475569" rx="4" stroke="none" opacity="1.00"/>
<text x="824.0" y="337.3" font-family="Arial,Helvetica,sans-serif" font-size="8" font-weight="600" text-anchor="middle" fill="#ffffff">Ag2</text>
<rect x="1058.0" y="325.3" width="28.0" height="16.0" fill="#475569" rx="4" stroke="none" opacity="1.00"/>
<text x="1072.0" y="337.3" font-family="Arial,Helvetica,sans-serif" font-size="8" font-weight="600" text-anchor="middle" fill="#ffffff">Ag3</text>
<rect x="438.0" y="530.7" width="28.0" height="16.0" fill="#475569" rx="4" stroke="none" opacity="1.00"/>
<text x="452.0" y="542.7" font-family="Arial,Helvetica,sans-serif" font-size="8" font-weight="600" text-anchor="middle" fill="#ffffff">Co0</text>
<rect x="934.0" y="530.7" width="28.0" height="16.0" fill="#475569" rx="4" stroke="none" opacity="1.00"/>
<text x="948.0" y="542.7" font-family="Arial,Helvetica,sans-serif" font-size="8" font-weight="600" text-anchor="middle" fill="#ffffff">Co1</text>
<rect x="297.5" y="806.0" width="16.0" height="10.0" fill="#f59e0b" rx="3" stroke="none" opacity="1.00"/>
<text x="305.5" y="802.0" font-family="Arial,Helvetica,sans-serif" font-size="7" font-weight="400" text-anchor="middle" fill="#64748b">N0</text>
<rect x="412.5" y="806.0" width="16.0" height="10.0" fill="#f59e0b" rx="3" stroke="none" opacity="1.00"/>
<text x="420.5" y="802.0" font-family="Arial,Helvetica,sans-serif" font-size="7" font-weight="400" text-anchor="middle" fill="#64748b">N1</text>
<rect x="527.5" y="806.0" width="16.0" height="10.0" fill="#f59e0b" rx="3" stroke="none" opacity="1.00"/>
<text x="535.5" y="802.0" font-family="Arial,Helvetica,sans-serif" font-size="7" font-weight="400" text-anchor="middle" fill="#64748b">N2</text>
<rect x="642.5" y="806.0" width="16.0" height="10.0" fill="#f59e0b" rx="3" stroke="none" opacity="1.00"/>
<text x="650.5" y="802.0" font-family="Arial,Helvetica,sans-serif" font-size="7" font-weight="400" text-anchor="middle" fill="#64748b">N3</text>
<rect x="757.5" y="806.0" width="16.0" height="10.0" fill="#f59e0b" rx="3" stroke="none" opacity="1.00"/>
<text x="765.5" y="802.0" font-family="Arial,Helvetica,sans-serif" font-size="7" font-weight="400" text-anchor="middle" fill="#64748b">N4</text>
<rect x="872.5" y="806.0" width="16.0" height="10.0" fill="#f59e0b" rx="3" stroke="none" opacity="1.00"/>
<text x="880.5" y="802.0" font-family="Arial,Helvetica,sans-serif" font-size="7" font-weight="400" text-anchor="middle" fill="#64748b">N5</text>
<rect x="987.5" y="806.0" width="16.0" height="10.0" fill="#f59e0b" rx="3" stroke="none" opacity="1.00"/>
<text x="995.5" y="802.0" font-family="Arial,Helvetica,sans-serif" font-size="7" font-weight="400" text-anchor="middle" fill="#64748b">N6</text>
<rect x="1102.5" y="806.0" width="16.0" height="10.0" fill="#f59e0b" rx="3" stroke="none" opacity="1.00"/>
<text x="1110.5" y="802.0" font-family="Arial,Helvetica,sans-serif" font-size="7" font-weight="400" text-anchor="middle" fill="#64748b">N7</text>
<rect x="249.0" y="856.0" width="22.0" height="14.0" fill="#ef4444" rx="3" stroke="#334155" opacity="1.00"/>
<text x="260.0" y="867.0" font-family="Arial,Helvetica,sans-serif" font-size="7" font-weight="700" text-anchor="middle" fill="#ffffff">0</text>
<rect x="274.0" y="856.0" width="22.0" height="14.0" fill="#3b82f6" rx="3" stroke="#334155" opacity="1.00"/>
<text x="285.0" y="867.0" font-family="Arial,Helvetica,sans-serif" font-size="7" font-weight="700" text-anchor="middle" fill="#ffffff">3</text>
<rect x="299.0" y="856.0" width="22.0" height="14.0" fill="#8b5cf6" rx="3" stroke="#334155" opacity="1.00"/>
<text x="310.0" y="867.0" font-family="Arial,Helvetica,sans-serif" font-size="7" font-weight="700" text-anchor="middle" fill="#ffffff">4</text>
<rect x="324.0" y="856.0" width="22.0" height="14.0" fill="#ef4444" rx="3" stroke="#334155" opacity="1.00"/>
<text x="335.0" y="867.0" font-family="Arial,Helvetica,sans-serif" font-size="7" font-weight="700" text-anchor="middle" fill="#ffffff">0</text>
<rect x="364.0" y="856.0" width="22.0" height="14.0" fill="#3b82f6" rx="3" stroke="#334155" opacity="1.00"/>
<text x="375.0" y="867.0" font-family="Arial,Helvetica,sans-serif" font-size="7" font-weight="700" text-anchor="middle" fill="#ffffff">3</text>
<rect x="389.0" y="856.0" width="22.0" height="14.0" fill="#8b5cf6" rx="3" stroke="#334155" opacity="1.00"/>
<text x="400.0" y="867.0" font-family="Arial,Helvetica,sans-serif" font-size="7" font-weight="700" text-anchor="middle" fill="#ffffff">4</text>
<rect x="414.0" y="856.0" width="22.0" height="14.0" fill="#ef4444" rx="3" stroke="#334155" opacity="1.00"/>
<text x="425.0" y="867.0" font-family="Arial,Helvetica,sans-serif" font-size="7" font-weight="700" text-anchor="middle" fill="#ffffff">0</text>
<rect x="439.0" y="856.0" width="22.0" height="14.0" fill="#f59e0b" rx="3" stroke="#334155" opacity="1.00"/>
<text x="450.0" y="867.0" font-family="Arial,Helvetica,sans-serif" font-size="7" font-weight="700" text-anchor="middle" fill="#ffffff">1</text>
<rect x="479.0" y="856.0" width="22.0" height="14.0" fill="#8b5cf6" rx="3" stroke="#334155" opacity="1.00"/>
<text x="490.0" y="867.0" font-family="Arial,Helvetica,sans-serif" font-size="7" font-weight="700" text-anchor="middle" fill="#ffffff">4</text>
<rect x="504.0" y="856.0" width="22.0" height="14.0" fill="#ef4444" rx="3" stroke="#334155" opacity="1.00"/>
<text x="515.0" y="867.0" font-family="Arial,Helvetica,sans-serif" font-size="7" font-weight="700" text-anchor="middle" fill="#ffffff">0</text>
<rect x="529.0" y="856.0" width="22.0" height="14.0" fill="#f59e0b" rx="3" stroke="#334155" opacity="1.00"/>
<text x="540.0" y="867.0" font-family="Arial,Helvetica,sans-serif" font-size="7" font-weight="700" text-anchor="middle" fill="#ffffff">1</text>
<rect x="554.0" y="856.0" width="22.0" height="14.0" fill="#8b5cf6" rx="3" stroke="#334155" opacity="1.00"/>
<text x="565.0" y="867.0" font-family="Arial,Helvetica,sans-serif" font-size="7" font-weight="700" text-anchor="middle" fill="#ffffff">4</text>
<rect x="594.0" y="856.0" width="22.0" height="14.0" fill="#ef4444" rx="3" stroke="#334155" opacity="1.00"/>
<text x="605.0" y="867.0" font-family="Arial,Helvetica,sans-serif" font-size="7" font-weight="700" text-anchor="middle" fill="#ffffff">0</text>
<rect x="619.0" y="856.0" width="22.0" height="14.0" fill="#f59e0b" rx="3" stroke="#334155" opacity="1.00"/>
<text x="630.0" y="867.0" font-family="Arial,Helvetica,sans-serif" font-size="7" font-weight="700" text-anchor="middle" fill="#ffffff">1</text>
<rect x="644.0" y="856.0" width="22.0" height="14.0" fill="#22c55e" rx="3" stroke="#334155" opacity="1.00"/>
<text x="655.0" y="867.0" font-family="Arial,Helvetica,sans-serif" font-size="7" font-weight="700" text-anchor="middle" fill="#ffffff">2</text>
<rect x="669.0" y="856.0" width="22.0" height="14.0" fill="#ef4444" rx="3" stroke="#334155" opacity="1.00"/>
<text x="680.0" y="867.0" font-family="Arial,Helvetica,sans-serif" font-size="7" font-weight="700" text-anchor="middle" fill="#ffffff">0</text>
<rect x="709.0" y="856.0" width="22.0" height="14.0" fill="#f59e0b" rx="3" stroke="#334155" opacity="1.00"/>
<text x="720.0" y="867.0" font-family="Arial,Helvetica,sans-serif" font-size="7" font-weight="700" text-anchor="middle" fill="#ffffff">1</text>
<rect x="734.0" y="856.0" width="22.0" height="14.0" fill="#22c55e" rx="3" stroke="#334155" opacity="1.00"/>
<text x="745.0" y="867.0" font-family="Arial,Helvetica,sans-serif" font-size="7" font-weight="700" text-anchor="middle" fill="#ffffff">2</text>
<rect x="759.0" y="856.0" width="22.0" height="14.0" fill="#ef4444" rx="3" stroke="#334155" opacity="1.00"/>
<text x="770.0" y="867.0" font-family="Arial,Helvetica,sans-serif" font-size="7" font-weight="700" text-anchor="middle" fill="#ffffff">0</text>
<rect x="784.0" y="856.0" width="22.0" height="14.0" fill="#f59e0b" rx="3" stroke="#334155" opacity="1.00"/>
<text x="795.0" y="867.0" font-family="Arial,Helvetica,sans-serif" font-size="7" font-weight="700" text-anchor="middle" fill="#ffffff">1</text>
<rect x="824.0" y="856.0" width="22.0" height="14.0" fill="#22c55e" rx="3" stroke="#334155" opacity="1.00"/>
<text x="835.0" y="867.0" font-family="Arial,Helvetica,sans-serif" font-size="7" font-weight="700" text-anchor="middle" fill="#ffffff">2</text>
<rect x="849.0" y="856.0" width="22.0" height="14.0" fill="#ef4444" rx="3" stroke="#334155" opacity="1.00"/>
<text x="860.0" y="867.0" font-family="Arial,Helvetica,sans-serif" font-size="7" font-weight="700" text-anchor="middle" fill="#ffffff">0</text>
<rect x="874.0" y="856.0" width="22.0" height="14.0" fill="#f59e0b" rx="3" stroke="#334155" opacity="1.00"/>
<text x="885.0" y="867.0" font-family="Arial,Helvetica,sans-serif" font-size="7" font-weight="700" text-anchor="middle" fill="#ffffff">1</text>
<rect x="899.0" y="856.0" width="22.0" height="14.0" fill="#22c55e" rx="3" stroke="#334155" opacity="1.00"/>
<text x="910.0" y="867.0" font-family="Arial,Helvetica,sans-serif" font-size="7" font-weight="700" text-anchor="middle" fill="#ffffff">2</text>
<rect x="939.0" y="856.0" width="22.0" height="14.0" fill="#3b82f6" rx="3" stroke="#334155" opacity="1.00"/>
<text x="950.0" y="867.0" font-family="Arial,Helvetica,sans-serif" font-size="7" font-weight="700" text-anchor="middle" fill="#ffffff">3</text>
<rect x="964.0" y="856.0" width="22.0" height="14.0" fill="#f59e0b" rx="3" stroke="#334155" opacity="1.00"/>
<text x="975.0" y="867.0" font-family="Arial,Helvetica,sans-serif" font-size="7" font-weight="700" text-anchor="middle" fill="#ffffff">1</text>
<rect x="989.0" y="856.0" width="22.0" height="14.0" fill="#22c55e" rx="3" stroke="#334155" opacity="1.00"/>
<text x="1000.0" y="867.0" font-family="Arial,Helvetica,sans-serif" font-size="7" font-weight="700" text-anchor="middle" fill="#ffffff">2</text>
<rect x="1014.0" y="856.0" width="22.0" height="14.0" fill="#3b82f6" rx="3" stroke="#334155" opacity="1.00"/>
<text x="1025.0" y="867.0" font-family="Arial,Helvetica,sans-serif" font-size="7" font-weight="700" text-anchor="middle" fill="#ffffff">3</text>
<rect x="1054.0" y="856.0" width="22.0" height="14.0" fill="#f59e0b" rx="3" stroke="#334155" opacity="1.00"/>
<text x="1065.0" y="867.0" font-family="Arial,Helvetica,sans-serif" font-size="7" font-weight="700" text-anchor="middle" fill="#ffffff">1</text>
<rect x="1079.0" y="856.0" width="22.0" height="14.0" fill="#22c55e" rx="3" stroke="#334155" opacity="1.00"/>
<text x="1090.0" y="867.0" font-family="Arial,Helvetica,sans-serif" font-size="7" font-weight="700" text-anchor="middle" fill="#ffffff">2</text>
<rect x="1104.0" y="856.0" width="22.0" height="14.0" fill="#3b82f6" rx="3" stroke="#334155" opacity="1.00"/>
<text x="1115.0" y="867.0" font-family="Arial,Helvetica,sans-serif" font-size="7" font-weight="700" text-anchor="middle" fill="#ffffff">3</text>
<rect x="1129.0" y="856.0" width="22.0" height="14.0" fill="#8b5cf6" rx="3" stroke="#334155" opacity="1.00"/>
<text x="1140.0" y="867.0" font-family="Arial,Helvetica,sans-serif" font-size="7" font-weight="700" text-anchor="middle" fill="#ffffff">4</text>
<text x="297.5" y="886.0" font-family="Arial,Helvetica,sans-serif" font-size="10" font-weight="600" text-anchor="middle" fill="#334155">H0</text>
<text x="412.5" y="886.0" font-family="Arial,Helvetica,sans-serif" font-size="10" font-weight="600" text-anchor="middle" fill="#334155">H1</text>
<text x="527.5" y="886.0" font-family="Arial,Helvetica,sans-serif" font-size="10" font-weight="600" text-anchor="middle" fill="#334155">H2</text>
<text x="642.5" y="886.0" font-family="Arial,Helvetica,sans-serif" font-size="10" font-weight="600" text-anchor="middle" fill="#334155">H3</text>
<text x="757.5" y="886.0" font-family="Arial,Helvetica,sans-serif" font-size="10" font-weight="600" text-anchor="middle" fill="#334155">H4</text>
<text x="872.5" y="886.0" font-family="Arial,Helvetica,sans-serif" font-size="10" font-weight="600" text-anchor="middle" fill="#334155">H5</text>
<text x="987.5" y="886.0" font-family="Arial,Helvetica,sans-serif" font-size="10" font-weight="600" text-anchor="middle" fill="#334155">H6</text>
<text x="1102.5" y="886.0" font-family="Arial,Helvetica,sans-serif" font-size="10" font-weight="600" text-anchor="middle" fill="#334155">H7</text>
<text x="1220.0" y="40.0" font-family="Arial,Helvetica,sans-serif" font-size="11" font-weight="700" text-anchor="start" fill="#1f2937">Job Legend</text>
<rect x="1220.0" y="45.0" width="14.0" height="14.0" fill="#ef4444" rx="2" stroke="none" opacity="1.00"/>
<text x="1240.0" y="56.0" font-family="Arial,Helvetica,sans-serif" font-size="10" font-weight="400" text-anchor="start" fill="#1f2937">Job 0</text>
<rect x="1220.0" y="65.0" width="14.0" height="14.0" fill="#f59e0b" rx="2" stroke="none" opacity="1.00"/>
<text x="1240.0" y="76.0" font-family="Arial,Helvetica,sans-serif" font-size="10" font-weight="400" text-anchor="start" fill="#1f2937">Job 1</text>
<rect x="1220.0" y="85.0" width="14.0" height="14.0" fill="#22c55e" rx="2" stroke="none" opacity="1.00"/>
<text x="1240.0" y="96.0" font-family="Arial,Helvetica,sans-serif" font-size="10" font-weight="400" text-anchor="start" fill="#1f2937">Job 2</text>
<rect x="1220.0" y="105.0" width="14.0" height="14.0" fill="#3b82f6" rx="2" stroke="none" opacity="1.00"/>
<text x="1240.0" y="116.0" font-family="Arial,Helvetica,sans-serif" font-size="10" font-weight="400" text-anchor="start" fill="#1f2937">Job 3</text>
<rect x="1220.0" y="125.0" width="14.0" height="14.0" fill="#8b5cf6" rx="2" stroke="none" opacity="1.00"/>
<text x="1240.0" y="136.0" font-family="Arial,Helvetica,sans-serif" font-size="10" font-weight="400" text-anchor="start" fill="#1f2937">Job 4</text>
<text x="1220.0" y="170.0" font-family="Arial,Helvetica,sans-serif" font-size="11" font-weight="700" text-anchor="start" fill="#1f2937">Link Util</text>
<rect x="1220.0" y="175.0" width="14.0" height="14.0" fill="#ef4444" rx="2" stroke="none" opacity="1.00"/>
<text x="1240.0" y="186.0" font-family="Arial,Helvetica,sans-serif" font-size="10" font-weight="400" text-anchor="start" fill="#1f2937">>50%</text>
<rect x="1220.0" y="193.0" width="14.0" height="14.0" fill="#f59e0b" rx="2" stroke="none" opacity="1.00"/>
<text x="1240.0" y="204.0" font-family="Arial,Helvetica,sans-serif" font-size="10" font-weight="400" text-anchor="start" fill="#1f2937">>30%</text>
<rect x="1220.0" y="211.0" width="14.0" height="14.0" fill="#3b82f6" rx="2" stroke="none" opacity="1.00"/>
<text x="1240.0" y="222.0" font-family="Arial,Helvetica,sans-serif" font-size="10" font-weight="400" text-anchor="start" fill="#1f2937">>10%</text>
<rect x="1220.0" y="229.0" width="14.0" height="14.0" fill="#cbd5e1" rx="2" stroke="none" opacity="1.00"/>
<text x="1240.0" y="240.0" font-family="Arial,Helvetica,sans-serif" font-size="10" font-weight="400" text-anchor="start" fill="#1f2937"><10%</text>
</svg>